<svg width="24" height="24" viewBox="0 0 24 24" fill="none" xmlns="http://www.w3.org/2000/svg">
<path d="M5.99988 22.9999H2.99988C2.44988 22.9999 1.97904 22.804 1.58738 22.4124C1.19571 22.0207 0.999878 21.5499 0.999878 20.9999V17.9999H2.99988V20.9999H5.99988V22.9999ZM17.9999 22.9999V20.9999H20.9999V17.9999H22.9999V20.9999C22.9999 21.5499 22.804 22.0207 22.4124 22.4124C22.0207 22.804 21.5499 22.9999 20.9999 22.9999H17.9999ZM11.9999 18.4999C9.99988 18.4999 8.18738 17.9082 6.56238 16.7249C4.93738 15.5415 3.74988 13.9665 2.99988 11.9999C3.74988 10.0332 4.93738 8.45821 6.56238 7.27488C8.18738 6.09154 9.99988 5.49988 11.9999 5.49988C13.9999 5.49988 15.8124 6.09154 17.4374 7.27488C19.0624 8.45821 20.2499 10.0332 20.9999 11.9999C20.2499 13.9665 19.0624 15.5415 17.4374 16.7249C15.8124 17.9082 13.9999 18.4999 11.9999 18.4999ZM11.9999 16.4999C13.4665 16.4999 14.8082 16.0999 16.0249 15.2999C17.2415 14.4999 18.1749 13.3999 18.8249 11.9999C18.1749 10.5999 17.2415 9.49988 16.0249 8.69988C14.8082 7.89988 13.4665 7.49988 11.9999 7.49988C10.5332 7.49988 9.19154 7.89988 7.97488 8.69988C6.75821 9.49988 5.82488 10.5999 5.17488 11.9999C5.82488 13.3999 6.75821 14.4999 7.97488 15.2999C9.19154 16.0999 10.5332 16.4999 11.9999 16.4999ZM11.9999 15.4999C12.9665 15.4999 13.7915 15.1582 14.4749 14.4749C15.1582 13.7915 15.4999 12.9665 15.4999 11.9999C15.4999 11.0332 15.1582 10.2082 14.4749 9.52488C13.7915 8.84155 12.9665 8.49988 11.9999 8.49988C11.0332 8.49988 10.2082 8.84155 9.52488 9.52488C8.84155 10.2082 8.49988 11.0332 8.49988 11.9999C8.49988 12.9665 8.84155 13.7915 9.52488 14.4749C10.2082 15.1582 11.0332 15.4999 11.9999 15.4999ZM11.9999 13.4999C11.5832 13.4999 11.229 13.354 10.9374 13.0624C10.6457 12.7707 10.4999 12.4165 10.4999 11.9999C10.4999 11.5832 10.6457 11.229 10.9374 10.9374C11.229 10.6457 11.5832 10.4999 11.9999 10.4999C12.4165 10.4999 12.7707 10.6457 13.0624 10.9374C13.354 11.229 13.4999 11.5832 13.4999 11.9999C13.4999 12.4165 13.354 12.7707 13.0624 13.0624C12.7707 13.354 12.4165 13.4999 11.9999 13.4999ZM0.999878 5.99988V2.99988C0.999878 2.44988 1.19571 1.97904 1.58738 1.58738C1.97904 1.19571 2.44988 0.999878 2.99988 0.999878H5.99988V2.99988H2.99988V5.99988H0.999878ZM20.9999 5.99988V2.99988H17.9999V0.999878H20.9999C21.5499 0.999878 22.0207 1.19571 22.4124 1.58738C22.804 1.97904 22.9999 2.44988 22.9999 2.99988V5.99988H20.9999Z" fill="#25418E"/>
</svg>
