<svg width="24" height="24" viewBox="0 0 24 24" fill="none" xmlns="http://www.w3.org/2000/svg">
<path d="M1 22L12.5 2L24 22H1ZM4.60682 19.8947H20.3932L12.5 6.21053L4.60682 19.8947ZM12.5 18.8421C12.7962 18.8421 13.0445 18.7412 13.2449 18.5395C13.4453 18.3377 13.5455 18.0877 13.5455 17.7895C13.5455 17.4912 13.4453 17.2412 13.2449 17.0395C13.0445 16.8377 12.7962 16.7368 12.5 16.7368C12.2038 16.7368 11.9555 16.8377 11.7551 17.0395C11.5547 17.2412 11.4545 17.4912 11.4545 17.7895C11.4545 18.0877 11.5547 18.3377 11.7551 18.5395C11.9555 18.7412 12.2038 18.8421 12.5 18.8421ZM11.4545 15.6842H13.5455V10.4211H11.4545V15.6842Z" fill="#25418E"/>
</svg>
