<svg width="24" height="24" viewBox="0 0 24 24" fill="none" xmlns="http://www.w3.org/2000/svg">
<path d="M4 18C4.55 18 5.02044 18.1962 5.41211 18.5879C5.80378 18.9796 6 19.45 6 20V23H4V20H1V18H4Z" fill="#25418E"/>
<path d="M23 20H20V23H18V20C18 19.45 18.1962 18.9796 18.5879 18.5879C18.9796 18.1962 19.45 18 20 18H23V20Z" fill="#25418E"/>
<path fill-rule="evenodd" clip-rule="evenodd" d="M12 8.5C12.9667 8.5 13.7913 8.84206 14.4746 9.52539C15.1579 10.2087 15.5 11.0333 15.5 12C15.5 12.9667 15.1579 13.7913 14.4746 14.4746C13.7913 15.1579 12.9667 15.5 12 15.5C11.0333 15.5 10.2087 15.1579 9.52539 14.4746C8.84206 13.7913 8.5 12.9667 8.5 12C8.5 11.0333 8.84206 10.2087 9.52539 9.52539C10.2087 8.84206 11.0333 8.5 12 8.5ZM12 10.5C11.5833 10.5 11.2292 10.6458 10.9375 10.9375C10.6458 11.2292 10.5 11.5833 10.5 12C10.5 12.4167 10.6458 12.7708 10.9375 13.0625C11.2292 13.3542 11.5833 13.5 12 13.5C12.4167 13.5 12.7708 13.3542 13.0625 13.0625C13.3542 12.7708 13.5 12.4167 13.5 12C13.5 11.5833 13.3542 11.2292 13.0625 10.9375C12.7708 10.6458 12.4167 10.5 12 10.5Z" fill="#25418E"/>
<path fill-rule="evenodd" clip-rule="evenodd" d="M12 5.5C14 5.5 15.8125 6.09206 17.4375 7.27539C19.0624 8.45871 20.25 10.0334 21 12C20.25 13.9666 19.0624 15.5413 17.4375 16.7246C15.8125 17.9079 14 18.5 12 18.5C10 18.5 8.1875 17.9079 6.5625 16.7246C4.9376 15.5413 3.74997 13.9666 3 12C3.74997 10.0334 4.9376 8.45871 6.5625 7.27539C8.1875 6.09206 10 5.5 12 5.5ZM12 7.5C10.5333 7.5 9.19128 7.9002 7.97461 8.7002C6.75812 9.50018 5.82474 10.6001 5.1748 12C5.82474 13.3999 6.75812 14.4998 7.97461 15.2998C9.19128 16.0998 10.5333 16.5 12 16.5C13.4667 16.5 14.8087 16.0998 16.0254 15.2998C17.2419 14.4998 18.1753 13.3999 18.8252 12C18.1753 10.6001 17.2419 9.50018 16.0254 8.7002C14.8087 7.9002 13.4667 7.5 12 7.5Z" fill="#25418E"/>
<path d="M6 4C6 4.55 5.80378 5.02044 5.41211 5.41211C5.02044 5.80378 4.55 6 4 6H1V4H4V1H6V4Z" fill="#25418E"/>
<path d="M20 4H23V6H20C19.45 6 18.9796 5.80378 18.5879 5.41211C18.1962 5.02044 18 4.55 18 4V1H20V4Z" fill="#25418E"/>
</svg>
