<svg width="24" height="24" viewBox="0 0 24 24" fill="none" xmlns="http://www.w3.org/2000/svg">
<path d="M19 8V13.877C18.3799 13.6347 17.7058 13.5 17 13.5V9H12V4H5V20H11.5918C11.7254 20.727 12.0023 21.4032 12.3916 22H5C4.45 22 3.97956 21.8038 3.58789 21.4121C3.19622 21.0204 3 20.55 3 20V4C3 3.45 3.19622 2.97956 3.58789 2.58789C3.97956 2.19622 4.45 2 5 2H13L19 8Z" fill="#25418E"/>
<path d="M19.625 15.6416C19.7031 15.5636 19.8292 15.5635 19.9072 15.6416L20.5186 16.252C20.5965 16.33 20.5965 16.4571 20.5186 16.5352L15.6943 21.3584C15.6163 21.4364 15.4902 21.4364 15.4121 21.3584L13.1416 19.0879C13.0636 19.0098 13.0636 18.8837 13.1416 18.8057L13.752 18.1943C13.83 18.1163 13.9571 18.1163 14.0352 18.1943L15.4121 19.5713C15.4902 19.6492 15.6163 19.6492 15.6943 19.5713L19.625 15.6416Z" fill="#25418E"/>
<path d="M12.3916 16C12.0023 16.5968 11.7254 17.273 11.5918 18H7V16H12.3916Z" fill="#25418E"/>
<path d="M15 13.877C14.9016 13.9154 14.8045 13.9562 14.709 14H7V12H15V13.877Z" fill="#25418E"/>
</svg>
