<svg width="24" height="24" viewBox="0 0 24 24" fill="none" xmlns="http://www.w3.org/2000/svg">
<path fill-rule="evenodd" clip-rule="evenodd" d="M19 8V13.877C18.3799 13.6347 17.7058 13.5 17 13.5C16.2942 13.5 15.6201 13.6347 15 13.877V12H7V14H14.709C13.76 14.4355 12.9572 15.1329 12.3916 16H7V18H11.5918C11.5322 18.3243 11.5 18.6584 11.5 19C11.5 20.1072 11.8287 21.137 12.3916 22H5C4.45 22 3.97956 21.8038 3.58789 21.4121C3.19622 21.0204 3 20.55 3 20V4C3 3.45 3.19622 2.97956 3.58789 2.58789C3.97956 2.19622 4.45 2 5 2H13L19 8ZM12 9H17L12 4V9Z" fill="#25418E"/>
<path d="M19.625 15.6416C19.7031 15.5636 19.8292 15.5635 19.9072 15.6416L20.5186 16.252C20.5965 16.33 20.5965 16.4571 20.5186 16.5352L15.6943 21.3584C15.6163 21.4364 15.4902 21.4364 15.4121 21.3584L13.1416 19.0879C13.0636 19.0098 13.0636 18.8837 13.1416 18.8057L13.752 18.1943C13.83 18.1163 13.9571 18.1163 14.0352 18.1943L15.4121 19.5713C15.4902 19.6492 15.6163 19.6492 15.6943 19.5713L19.625 15.6416Z" fill="#25418E"/>
</svg>
