<svg width="24" height="24" viewBox="0 0 24 24" fill="none" xmlns="http://www.w3.org/2000/svg">
<path d="M7.44444 19.0645H8.82986L18.3333 9.60484L16.9479 8.22581L7.44444 17.6855V19.0645ZM5.5 21V16.8871L18.3333 4.1371C18.5278 3.95968 18.7425 3.82258 18.9774 3.72581C19.2124 3.62903 19.4595 3.58065 19.7188 3.58065C19.978 3.58065 20.2292 3.62903 20.4722 3.72581C20.7153 3.82258 20.9259 3.96774 21.1042 4.16129L22.441 5.51613C22.6354 5.69355 22.7772 5.90323 22.8663 6.14516C22.9554 6.3871 23 6.62903 23 6.87097C23 7.12903 22.9554 7.375 22.8663 7.60887C22.7772 7.84274 22.6354 8.05645 22.441 8.25L9.63194 21H5.5ZM17.6285 8.92742L16.9479 8.22581L18.3333 9.60484L17.6285 8.92742Z" fill="#25418E"/>
<path d="M15.2951 4.74194H9V3H17.0451L15.2951 4.74194ZM11.7951 8.22581H5.5V6.48387H13.5451L11.7951 8.22581ZM8.29514 11.7097H2V9.96774H10.0451L8.29514 11.7097Z" fill="#25418E"/>
</svg>
