<svg width="24" height="24" viewBox="0 0 24 24" fill="none" xmlns="http://www.w3.org/2000/svg">
<path d="M2 22V17.2778L16.6667 2.63889C16.8889 2.43519 17.1343 2.27778 17.4028 2.16667C17.6713 2.05556 17.9537 2 18.25 2C18.5463 2 18.8333 2.05556 19.1111 2.16667C19.3889 2.27778 19.6296 2.44444 19.8333 2.66667L21.3611 4.22222C21.5833 4.42593 21.7454 4.66667 21.8472 4.94444C21.9491 5.22222 22 5.5 22 5.77778C22 6.07407 21.9491 6.35648 21.8472 6.625C21.7454 6.89352 21.5833 7.13889 21.3611 7.36111L6.72222 22H2ZM18.2222 7.33333L19.7778 5.77778L18.2222 4.22222L17.4444 5L16.6667 5.77778L18.2222 7.33333Z" fill="#25418E"/>
</svg>
