<svg width="24" height="24" viewBox="0 0 24 24" fill="none" xmlns="http://www.w3.org/2000/svg">
<path d="M10 4.5C10 3.8125 10.2448 3.22396 10.7344 2.73438C11.224 2.24479 11.8125 2 12.5 2C13.1875 2 13.776 2.24479 14.2656 2.73438C14.7552 3.22396 15 3.8125 15 4.5C15 5.1875 14.7552 5.77604 14.2656 6.26562C13.776 6.75521 13.1875 7 12.5 7C11.8125 7 11.224 6.75521 10.7344 6.26562C10.2448 5.77604 10 5.1875 10 4.5ZM10 12C10 11.3125 10.2448 10.724 10.7344 10.2344C11.224 9.74479 11.8125 9.5 12.5 9.5C13.1875 9.5 13.776 9.74479 14.2656 10.2344C14.7552 10.724 15 11.3125 15 12C15 12.6875 14.7552 13.276 14.2656 13.7656C13.776 14.2552 13.1875 14.5 12.5 14.5C11.8125 14.5 11.224 14.2552 10.7344 13.7656C10.2448 13.276 10 12.6875 10 12ZM10 19.5C10 18.8125 10.2448 18.224 10.7344 17.7344C11.224 17.2448 11.8125 17 12.5 17C13.1875 17 13.776 17.2448 14.2656 17.7344C14.7552 18.224 15 18.8125 15 19.5C15 20.1875 14.7552 20.776 14.2656 21.2656C13.776 21.7552 13.1875 22 12.5 22C11.8125 22 11.224 21.7552 10.7344 21.2656C10.2448 20.776 10 20.1875 10 19.5Z" fill="#25418E"/>
</svg>
