<svg width="24" height="24" viewBox="0 0 24 24" fill="none" xmlns="http://www.w3.org/2000/svg">
<path d="M14 20C14 20.55 13.8038 21.0204 13.4121 21.4121C13.0204 21.8038 12.55 22 12 22C11.45 22 10.9796 21.8038 10.5879 21.4121C10.1962 21.0204 10 20.55 10 20H14Z" fill="#25418E"/>
<path fill-rule="evenodd" clip-rule="evenodd" d="M12 2C12.4167 2 12.7708 2.14583 13.0625 2.4375C13.3542 2.72917 13.5 3.08333 13.5 3.5V4.0498C14.85 4.33314 15.9377 5.02936 16.7627 6.1377C17.5876 7.24597 18 8.50048 18 9.90039V17.5H20V19H4V17.5H6V9.90039C6 8.50048 6.41241 7.24598 7.2373 6.1377C8.0623 5.02936 9.15 4.33314 10.5 4.0498V3.5C10.5 3.08333 10.6458 2.72917 10.9375 2.4375C11.2292 2.14583 11.5833 2 12 2Z" fill="#25418E"/>
</svg>
