<svg width="24" height="24" viewBox="0 0 24 24" fill="none" xmlns="http://www.w3.org/2000/svg">
<path d="M2 12C2 6.47715 6.47715 2 12 2C17.5228 2 22 6.47715 22 12C22 17.5228 17.5228 22 12 22C6.47715 22 2 17.5228 2 12Z" fill="#25418E"/>
<path d="M10.5117 16L9.67383 13.6211H6.39844L5.56055 16H4.07812L7.26562 7.39844H8.82422L12.0059 16H10.5117ZM9.31055 12.4141L8.49609 10.0703C8.46484 9.96875 8.41992 9.82617 8.36133 9.64258C8.30273 9.45508 8.24414 9.26562 8.18555 9.07422C8.12695 8.87891 8.07812 8.71484 8.03906 8.58203C8 8.74219 7.95117 8.92188 7.89258 9.12109C7.83789 9.31641 7.7832 9.5 7.72852 9.67188C7.67773 9.84375 7.63867 9.97656 7.61133 10.0703L6.79102 12.4141H9.31055ZM13.1367 7.43359H15.6855C16.791 7.43359 17.625 7.59375 18.1875 7.91406C18.75 8.23438 19.0312 8.78711 19.0312 9.57227C19.0312 9.90039 18.9727 10.1973 18.8555 10.4629C18.7422 10.7246 18.5762 10.9414 18.3574 11.1133C18.1387 11.2812 17.8691 11.3945 17.5488 11.4531V11.5117C17.8809 11.5703 18.1758 11.6738 18.4336 11.8223C18.6953 11.9707 18.9004 12.1836 19.0488 12.4609C19.2012 12.7383 19.2773 13.0977 19.2773 13.5391C19.2773 14.0625 19.1523 14.5078 18.9023 14.875C18.6562 15.2422 18.3027 15.5215 17.8418 15.7129C17.3848 15.9043 16.8418 16 16.2129 16H13.1367V7.43359ZM14.543 10.9668H15.8906C16.5273 10.9668 16.9688 10.8633 17.2148 10.6562C17.4609 10.4492 17.584 10.1465 17.584 9.74805C17.584 9.3418 17.4375 9.04883 17.1445 8.86914C16.8555 8.68945 16.3945 8.59961 15.7617 8.59961H14.543V10.9668ZM14.543 12.1035V14.8223H16.0254C16.6816 14.8223 17.1426 14.6953 17.4082 14.4414C17.6738 14.1875 17.8066 13.8438 17.8066 13.4102C17.8066 13.1445 17.7461 12.9141 17.625 12.7188C17.5078 12.5234 17.3145 12.373 17.0449 12.2676C16.7754 12.1582 16.4121 12.1035 15.9551 12.1035H14.543Z" fill="white"/>
</svg>
