<?xml version="1.0" encoding="utf-8"?>
<!-- Generator: Adobe Illustrator 21.0.0, SVG Export Plug-In . SVG Version: 6.00 Build 0)  -->
<svg version="1.1" id="Capa_1" xmlns="http://www.w3.org/2000/svg" xmlns:xlink="http://www.w3.org/1999/xlink" x="0px" y="0px"
	 viewBox="0 0 26 25" style="enable-background:new 0 0 26 25;" xml:space="preserve">
<style type="text/css">
	.st0{fill:#FFFFFF;}
</style>
<path class="st0" d="M24.5,7.7c-0.9-2.3-2.5-4.2-4.6-5.6S15.5,0,13,0C9.7,0,6.5,1.3,4.2,3.7s-3.7,5.5-3.7,8.8c0,2.5,0.7,4.9,2.1,6.9
	C4,21.5,5.9,23.1,8.2,24c2.3,0.9,4.8,1.2,7.2,0.7c2.4-0.5,4.7-1.7,6.4-3.4c1.7-1.7,2.9-4,3.4-6.4C25.7,12.5,25.5,10,24.5,7.7z
	 M13,23.2c-2.3,0-4.6-0.8-6.4-2.2c0.3-1.5,1.1-2.9,2.2-3.9c1.2-1,2.7-1.5,4.2-1.5s3,0.5,4.2,1.5c1.2,1,2,2.4,2.2,3.9
	C17.6,22.4,15.3,23.2,13,23.2z M9.9,10.7c0-0.6,0.2-1.2,0.5-1.7c0.3-0.5,0.8-0.9,1.4-1.1c0.6-0.2,1.2-0.3,1.8-0.2s1.2,0.4,1.6,0.8
	c0.4,0.4,0.7,1,0.8,1.6c0.1,0.6,0.1,1.2-0.2,1.8c-0.2,0.6-0.6,1-1.1,1.4c-0.5,0.3-1.1,0.5-1.7,0.5c-0.8,0-1.6-0.3-2.2-0.9
	C10.2,12.3,9.9,11.5,9.9,10.7z M21,19.6c-0.4-1.2-1-2.2-1.8-3.1c-0.8-0.9-1.8-1.6-3-2.1c0.8-0.7,1.3-1.5,1.6-2.5
	c0.3-1,0.2-2-0.1-2.9c-0.3-0.9-1-1.8-1.8-2.3C15,6,14,5.7,13,5.7c-1,0-2,0.3-2.8,0.9C9.4,7.2,8.7,8,8.4,8.9C8,9.9,8,10.9,8.2,11.9
	c0.3,1,0.8,1.8,1.6,2.5c-1.1,0.5-2.1,1.2-3,2.1c-0.8,0.9-1.4,2-1.8,3.1c-1.1-1.3-2-2.8-2.4-4.5c-0.4-1.7-0.4-3.4,0-5.1
	S3.9,6.7,5,5.4c1.1-1.3,2.6-2.3,4.2-2.9s3.4-0.8,5.1-0.6c1.7,0.2,3.4,0.8,4.8,1.8c1.4,1,2.6,2.3,3.4,3.8c0.8,1.5,1.2,3.2,1.2,5
	C23.7,15.1,22.7,17.6,21,19.6z"/>
</svg>
