<svg width="18" height="19" viewBox="0 0 18 19" fill="none" xmlns="http://www.w3.org/2000/svg">
<path d="M6.75 16.25V10.7C6.75 10.28 6.75 10.0699 6.83175 9.90951C6.90365 9.76839 7.01839 9.65365 7.15951 9.58175C7.31994 9.5 7.52996 9.5 7.95 9.5H10.05C10.47 9.5 10.6801 9.5 10.8405 9.58175C10.9816 9.65365 11.0964 9.76839 11.1683 9.90951C11.25 10.0699 11.25 10.28 11.25 10.7V16.25M1.5 7.625L8.28 2.54C8.5382 2.34635 8.66729 2.24953 8.80908 2.21221C8.93423 2.17926 9.06578 2.17926 9.19093 2.21221C9.33271 2.24953 9.46181 2.34635 9.72 2.54L16.5 7.625M3 6.5V13.85C3 14.6901 3 15.1101 3.16349 15.431C3.3073 15.7132 3.53677 15.9427 3.81902 16.0865C4.13988 16.25 4.55992 16.25 5.4 16.25H12.6C13.4401 16.25 13.8601 16.25 14.181 16.0865C14.4632 15.9427 14.6927 15.7132 14.8365 15.431C15 15.1101 15 14.6901 15 13.85V6.5L10.44 3.08C9.92362 2.69271 9.66542 2.49906 9.38185 2.42442C9.13155 2.35853 8.86846 2.35853 8.61815 2.42442C8.33459 2.49906 8.07639 2.69271 7.56 3.08L3 6.5Z" stroke="black" stroke-width="1.75" stroke-linecap="round" stroke-linejoin="round"/>
</svg>
