<svg width="60" height="60" viewBox="0 0 60 60" fill="none" xmlns="http://www.w3.org/2000/svg">
<path d="M56.0421 18.6665C52.9309 20.4986 51.3177 21.2429 48.0912 21.0712C46.8813 21.0712 46.2476 20.4986 45.0377 20.6131C43.8854 20.6704 43.3092 21.0712 42.2145 21.472L37.8358 23.0178C36.6835 23.3614 35.9345 23.3614 34.7822 23.7622C33.7452 24.1629 34.2061 23.8194 33.5147 24.621C32.5929 25.6516 32.8233 26.4531 31.9591 28.1708C30.922 30.461 31.0373 30.7472 31.6134 31.0335C31.2101 32.1786 31.1525 32.9229 31.2101 34.1825C31.3253 35.1559 30.922 35.8429 31.9591 36.5872C33.3995 37.6178 36.3378 40.0225 37.0868 40.0798C38.2391 40.0798 41.4655 40.137 43.1364 38.9919C43.5397 38.7629 43.6549 38.5339 43.3092 39.45C43.2516 39.5645 39.1609 42.7135 38.7 42.7135C35.5888 42.7707 34.9551 42.9425 34.8975 42.9998C34.5518 42.8853 32.1319 40.0225 30.634 41.0531C30.0578 41.3966 29.8273 41.7402 29.5969 42.37C29.7697 42.7707 30.7492 43.4006 31.5558 43.9158C32.7657 44.7174 32.8809 45.519 34.0908 45.8053C35.5888 46.1488 37.202 45.9198 38.1239 46.0343C40.1149 45.6819 42.039 45.0252 43.8277 44.0876C45.729 43.1143 41.2351 45.977 40.1404 47.3511C36.7987 48.3817 37.7206 48.439 36.165 48.7252L33.8028 49.2978C32.7657 49.5841 31.9015 50.9582 32.8809 51.7025C33.4571 52.1605 35.3008 51.4735 37.0868 51.4162C37.8934 51.4162 41.1199 49.9276 41.8112 49.5841C43.6549 48.5535 45.0377 47.2366 46.1323 46.4351C47.6303 45.4045 44.4039 49.2978 43.0788 50.9582C42.6754 51.4735 42.5026 51.5307 41.9841 52.275C41.1775 53.3056 42.2145 54.8515 42.7331 54.5652C43.3092 54.3935 43.7125 53.1911 44.4039 52.8476C44.692 52.6186 45.5562 51.359 46.4204 50.4429C46.9966 49.7558 47.5151 49.4696 48.0912 48.7252C49.0707 47.5802 49.2435 46.6068 50.1078 45.29C50.6839 44.6029 51.0296 44.4311 51.5481 43.5723C54.0832 38.7629 53.3342 36.5872 55.8116 33.1519C56.5606 32.1214 57.4248 31.8923 58.5771 31.2625C59.7294 23.2469 56.0421 18.6665 56.0421 18.6665ZM44.1158 31.4916C43.5397 33.5527 43.5973 33.7817 42.5026 34.5261C41.1198 35.5566 41.0622 34.7551 37.951 36.4727C37.951 36.4727 36.6835 35.1559 34.667 34.5261C34.667 34.5261 34.0908 31.9496 33.0538 31.0908C35.6464 29.1441 35.5888 27.4265 35.9921 27.4837C36.914 27.5982 38.412 28.0563 41.1775 27.0257C42.7331 30.0029 44.6344 29.8884 44.1158 31.4916ZM28.4446 16.8343C27.2347 15.9755 27.1195 15.1739 25.9095 14.9449C24.4116 14.5441 22.7983 14.7732 21.8765 14.6014C21.5308 14.6014 18.2468 15.5175 16.2303 16.5481C14.2714 17.5786 18.7653 14.7159 19.9176 13.2845C23.2016 12.3112 22.2222 12.2539 23.8354 11.9104C25.2758 11.6241 25.2182 11.6814 26.1976 11.3951C27.2347 11.1661 28.0989 9.73473 27.1195 8.99042C26.5433 8.53238 24.6996 9.21944 22.9136 9.21944C21.2754 9.70462 19.6922 10.357 18.1892 11.1661C16.3455 12.1394 14.9627 13.4563 13.868 14.2006C12.3701 15.2884 15.5965 11.3951 16.9216 9.79198L18.0163 8.47512C18.7653 7.38728 17.7859 5.8414 17.2673 6.01317C16.6912 6.29944 16.2879 7.50179 15.5389 7.90258C15.2508 8.07434 14.3866 9.33395 13.58 10.25C13.0038 10.9371 12.4853 11.2234 11.9091 11.9677C10.9297 13.17 10.7568 14.0861 9.89262 15.3457C9.31648 16.09 8.97079 16.2618 8.45225 17.1206C5.9172 21.93 6.6662 24.1057 4.18876 27.4837C3.49738 28.6288 2.57554 28.8006 1.42325 29.4876C0.270951 37.5033 3.9583 41.9692 3.9583 41.9692C7.0695 40.2515 8.68271 39.45 11.9091 39.5645C13.1191 39.679 13.7528 40.137 14.9627 40.137C16.115 40.0225 16.6912 39.5645 17.7859 39.2782C19.5143 38.7057 20.3785 38.2476 22.107 37.7323C23.3169 37.3888 24.0659 37.3315 25.2182 36.8735C26.2552 36.53 25.7943 36.8735 26.4857 36.0719C27.3499 35.0414 27.1771 34.2398 27.9261 32.5794C29.0784 30.2892 28.9631 29.9457 28.387 29.7167C28.7327 28.5716 28.8479 27.77 28.7903 26.5104C28.6174 25.5371 29.0784 24.9073 28.0413 24.1629C26.6009 23.0751 23.6626 20.6704 22.9136 20.6131C21.7613 20.6131 18.5348 20.5559 16.864 21.6437C16.4607 21.93 16.3455 22.159 16.6912 21.3002C16.7488 21.1284 20.8394 17.9794 21.3004 17.9222C24.1811 17.9222 24.9301 17.7504 25.1029 17.6931C25.391 17.6931 27.8684 20.7277 29.3664 19.6398C29.9426 19.2963 30.173 18.9528 30.4035 18.3802C30.2307 17.9222 29.2512 17.2924 28.4446 16.8343ZM17.4978 26.0523C18.8229 25.079 18.9382 25.8806 22.0494 24.1629C22.0494 24.1629 23.3169 25.4798 25.3334 26.0523C25.3334 26.0523 25.9095 28.6861 26.9466 29.5449C24.3539 31.4916 24.4116 33.2092 24.0083 33.1519C23.0864 33.0374 21.5884 32.5794 18.8229 33.5527C17.2097 30.6327 15.366 30.8045 15.8846 29.0869C16.4607 27.1402 16.4031 26.8539 17.4978 26.0523Z" fill="#003DA5"/>
</svg>
