<?xml version="1.0" encoding="utf-8"?>
<!-- Generator: Adobe Illustrator 25.0.0, SVG Export Plug-In . SVG Version: 6.00 Build 0)  -->
<svg version="1.1" id="Capa_1" xmlns="http://www.w3.org/2000/svg" xmlns:xlink="http://www.w3.org/1999/xlink" x="0px" y="0px"
	 viewBox="0 0 128 128" style="enable-background:new 0 0 128 128;" xml:space="preserve">
<style type="text/css">
	.st0{fill:none;}
	.st1{fill:#FFFFFF;}
</style>
<path class="st0" d="M0,0h128v128H0V0z"/>
<g>
	<g>
		<g>
			<path class="st1" d="M64,0.2C28.8,0.2,0.2,28.8,0.2,64c0,35.2,28.6,63.8,63.8,63.8c35.2,0,63.8-28.6,63.8-63.8
				C127.8,28.8,99.2,0.2,64,0.2z M93.2,92.2c-1.1,1.9-3.6,2.5-5.5,1.3c-15-9.2-33.8-11.2-56-6.1c-2.1,0.5-4.3-0.9-4.8-3
				c-0.5-2.1,0.8-4.3,3-4.8c24.3-5.6,45.1-3.2,61.9,7.1C93.8,87.9,94.4,90.3,93.2,92.2z M101.1,74.8c-1.4,2.3-4.5,3.1-6.8,1.6
				c-17.1-10.5-43.3-13.6-63.6-7.4c-2.6,0.8-5.4-0.7-6.2-3.3c-0.8-2.6,0.7-5.4,3.3-6.2c23.2-7,52-3.6,71.6,8.5
				C101.8,69.4,102.5,72.5,101.1,74.8z M101.7,56.8c-20.6-12.2-54.5-13.3-74.1-7.4c-3.2,1-6.5-0.8-7.4-4c-1-3.2,0.8-6.5,4-7.4
				c22.5-6.8,60-5.5,83.6,8.5c2.8,1.7,3.8,5.3,2.1,8.2C108.2,57.5,104.6,58.4,101.7,56.8z"/>
		</g>
	</g>
</g>
</svg>
