<?xml version="1.0" encoding="utf-8"?>
<!-- Generator: Adobe Illustrator 21.0.0, SVG Export Plug-In . SVG Version: 6.00 Build 0)  -->
<svg version="1.1" id="Capa_1" xmlns="http://www.w3.org/2000/svg" xmlns:xlink="http://www.w3.org/1999/xlink" x="0px" y="0px"
	 viewBox="0 0 20 20" style="enable-background:new 0 0 20 20;" xml:space="preserve">
<style type="text/css">
	.st0{fill:#666666;}
</style>
<path class="st0" d="M19.6,10C19.6,10,19.6,9.9,19.6,10C19.6,9.9,19.6,9.9,19.6,10C19.6,9.9,19.6,9.9,19.6,10
	C19.6,9.9,19.6,9.9,19.6,10C19.6,9.9,19.6,9.9,19.6,10c0-0.2-0.1-0.4-0.2-0.5c-0.6-0.7-1.3-1.4-2.1-2c-1.6-1.3-3.4-2.3-5.5-2.8
	c-1.2-0.2-2.3-0.3-3.5,0C7.3,4.9,6.3,5.3,5.3,5.8c-1.5,0.8-2.9,1.8-4.1,3C1,9,0.8,9.3,0.6,9.5c-0.3,0.3-0.3,0.7,0,1
	c0.6,0.7,1.3,1.4,2.1,2c1.6,1.3,3.4,2.3,5.5,2.8c1.2,0.2,2.3,0.3,3.5,0c1.1-0.2,2.1-0.6,3.1-1.1c1.5-0.8,2.9-1.8,4.1-3
	c0.2-0.2,0.4-0.4,0.6-0.7c0.1-0.1,0.2-0.2,0.2-0.4c0,0,0,0,0,0c0,0,0,0,0,0c0,0,0,0,0,0C19.6,10.1,19.6,10.1,19.6,10
	C19.6,10.1,19.6,10,19.6,10C19.6,10,19.6,10,19.6,10C19.6,10,19.6,10,19.6,10z M10,13.7c-2,0-3.7-1.7-3.7-3.7C6.3,8,8,6.3,10,6.3
	S13.7,8,13.7,10S12,13.7,10,13.7z"/>
<circle class="st0" cx="10" cy="10" r="1.2"/>
</svg>
