<svg width="24" height="25" viewBox="0 0 24 25" fill="none" xmlns="http://www.w3.org/2000/svg">
<path d="M0 12.5C0 5.87258 5.37258 0.5 12 0.5C18.6274 0.5 24 5.87258 24 12.5C24 19.1274 18.6274 24.5 12 24.5C5.37258 24.5 0 19.1274 0 12.5Z" fill="#E2E9F1"/>
<g clip-path="url(#clip0_420_1101)">
<path fill-rule="evenodd" clip-rule="evenodd" d="M12.1403 5.33606C12.0507 5.30987 11.9554 5.30986 11.8657 5.33602L5.98539 7.05215C5.77645 7.11312 5.63281 7.30467 5.63281 7.52233V11.0401C5.63281 14.9509 8.1358 18.4229 11.8462 19.6588C11.9467 19.6923 12.0553 19.6923 12.1558 19.6588C15.8653 18.4228 18.3675 14.9516 18.3675 11.0417V7.52233C18.3675 7.30472 18.2239 7.1132 18.015 7.05218L12.1403 5.33606ZM12.2655 18.5803C15.3422 17.3639 17.3869 14.384 17.3869 11.0456V8.04331C17.3869 7.95446 17.3283 7.87625 17.243 7.85134L12.258 6.39511C12.1299 6.35771 12.0019 6.4537 12.0019 6.58705L12 18.3965C12 18.5348 12.1369 18.6312 12.2655 18.5803Z" fill="#35435D"/>
</g>
<defs>
<clipPath id="clip0_420_1101">
<rect width="16" height="16" fill="white" transform="translate(4 4.5)"/>
</clipPath>
</defs>
</svg>
