<svg width="25" height="24" viewBox="0 0 25 24" fill="none" xmlns="http://www.w3.org/2000/svg">
<path d="M0.5 12C0.5 5.37258 5.87258 0 12.5 0C19.1274 0 24.5 5.37258 24.5 12C24.5 18.6274 19.1274 24 12.5 24C5.87258 24 0.5 18.6274 0.5 12Z" fill="#E2E9F1"/>
<path d="M12.3657 4.83211C12.4554 4.80595 12.5507 4.80596 12.6403 4.83215L18.515 6.54828C18.7239 6.60929 18.8675 6.80081 18.8675 7.01842V10.5378C18.8675 14.4477 16.3653 17.9189 12.6558 19.1549C12.5553 19.1884 12.4467 19.1884 12.3462 19.1549C8.6358 17.919 6.13281 14.447 6.13281 10.5362V7.01842C6.13281 6.80076 6.27645 6.60922 6.48539 6.54824L12.3657 4.83211ZM7.1124 7.38571V10.5362C7.1124 13.9706 9.27605 17.0257 12.501 18.1722C15.725 17.0257 17.8879 13.9714 17.8879 10.5378V7.38561L12.5029 5.81254L7.1124 7.38571Z" fill="#35435D"/>
</svg>
