<svg width="24" height="25" viewBox="0 0 24 25" fill="none" xmlns="http://www.w3.org/2000/svg">
<path d="M0 12.5C0 5.87258 5.37258 0.5 12 0.5C18.6274 0.5 24 5.87258 24 12.5C24 19.1274 18.6274 24.5 12 24.5C5.37258 24.5 0 19.1274 0 12.5Z" fill="#E2E9F1"/>
<path d="M11.8657 5.33602C11.9554 5.30986 12.0507 5.30987 12.1403 5.33606L18.015 7.05218C18.2239 7.1132 18.3675 7.30472 18.3675 7.52233V11.0417C18.3675 14.9516 15.8653 18.4228 12.1558 19.6588C12.0553 19.6923 11.9467 19.6923 11.8462 19.6588C8.1358 18.4229 5.63281 14.9509 5.63281 11.0401V7.52233C5.63281 7.30467 5.77645 7.11312 5.98539 7.05215L11.8657 5.33602ZM15.6118 10.724C15.8031 10.5327 15.8031 10.2226 15.6118 10.0313C15.4205 9.84 15.1104 9.84 14.9191 10.0313L11.3471 13.6033L9.40771 11.6639C9.21643 11.4727 8.90631 11.4727 8.71503 11.6639C8.52375 11.8552 8.52375 12.1653 8.71503 12.3566L11.0007 14.6423C11.192 14.8336 11.5021 14.8336 11.6934 14.6423L15.6118 10.724Z" fill="#35435D"/>
</svg>
