<svg width="26" height="26" viewBox="0 0 26 26" fill="none" xmlns="http://www.w3.org/2000/svg">
<path d="M13 1.03999C6.40081 1.03999 1.03998 6.40083 1.03998 13C1.03998 19.5651 6.34617 24.903 12.8984 24.958C12.9635 24.9705 13.0304 24.9705 13.0954 24.958C19.6505 24.9063 24.96 19.5671 24.96 13C24.96 6.40083 19.5991 1.03999 13 1.03999ZM12.48 2.0932V4.17827C10.8634 4.27662 9.24538 4.87841 7.76646 5.7982C7.70723 5.83362 7.65564 5.88048 7.6147 5.93604C7.57376 5.99161 7.54429 6.05476 7.528 6.12183C7.51172 6.1889 7.50895 6.25854 7.51986 6.32669C7.53076 6.39484 7.55512 6.46014 7.59152 6.51878C7.62792 6.57742 7.67562 6.62823 7.73185 6.66825C7.78809 6.70826 7.85172 6.73669 7.91905 6.75186C7.98638 6.76703 8.05606 6.76865 8.12402 6.75662C8.19198 6.74459 8.25687 6.71915 8.3149 6.68179C9.65785 5.84657 11.0978 5.31598 12.48 5.21726V6.27351C10.1631 6.43057 7.53958 7.39357 5.75451 9.54788C5.71001 9.60032 5.67636 9.66106 5.65549 9.72659C5.63463 9.79212 5.62697 9.86114 5.63296 9.92965C5.63895 9.99817 5.65847 10.0648 5.69039 10.1257C5.7223 10.1866 5.76599 10.2406 5.81891 10.2845C5.87183 10.3285 5.93293 10.3615 5.99869 10.3816C6.06444 10.4017 6.13354 10.4087 6.20198 10.4019C6.27043 10.3952 6.33685 10.3749 6.39742 10.3424C6.45798 10.3098 6.51148 10.2655 6.55482 10.2121C8.09734 8.35052 10.4261 7.47268 12.48 7.31452V8.35351C9.37796 8.61789 7.58878 10.3434 6.80263 12.3012C5.968 14.3799 6.13804 16.6543 6.71529 18.0151C6.74022 18.0805 6.77807 18.1401 6.82657 18.1904C6.87506 18.2408 6.93321 18.2808 6.99754 18.3082C7.06186 18.3356 7.13105 18.3497 7.20095 18.3497C7.27086 18.3497 7.34005 18.3357 7.4044 18.3083C7.46874 18.281 7.52692 18.241 7.57545 18.1907C7.62398 18.1404 7.66186 18.0808 7.68685 18.0155C7.71183 17.9502 7.72339 17.8805 7.72084 17.8107C7.71829 17.7408 7.70168 17.6722 7.67201 17.6089C7.24098 16.5928 7.05652 14.4613 7.76849 12.6882C8.43206 11.0356 9.76832 9.64032 12.48 9.39656V10.4315C12.0026 10.4831 11.5004 10.6108 10.9769 10.8326C9.73792 11.3579 8.96779 12.2906 8.60638 13.3494C8.24497 14.4081 8.25923 15.5803 8.45912 16.704C8.65901 17.8277 9.04847 18.908 9.48896 19.7925C9.92945 20.6769 10.3817 21.3556 10.8966 21.7374C10.9512 21.7806 11.014 21.8124 11.0811 21.8309C11.1483 21.8494 11.2184 21.8543 11.2875 21.8451C11.3565 21.836 11.423 21.8131 11.4831 21.7778C11.5431 21.7424 11.5954 21.6954 11.6369 21.6395C11.6784 21.5836 11.7083 21.5199 11.7247 21.4522C11.7411 21.3845 11.7438 21.3142 11.7325 21.2455C11.7212 21.1767 11.6963 21.111 11.6591 21.0521C11.622 20.9932 11.5733 20.9423 11.5161 20.9026C11.2937 20.7376 10.8176 20.1282 10.4193 19.3284C10.0209 18.5286 9.6618 17.528 9.48287 16.5222C9.30394 15.5163 9.30928 14.5094 9.59052 13.6855C9.87177 12.8616 10.3954 12.2087 11.3821 11.7904C11.7763 11.6233 12.1386 11.5268 12.48 11.4725V12.5521C11.7141 12.7469 11.1149 13.3507 10.79 14.0887C10.3944 14.9874 10.3362 16.112 10.724 17.1762C11.0327 18.0232 11.6081 19.0499 12.48 19.953V23.9068C6.68499 23.6359 2.07998 18.8627 2.07998 13C2.07998 7.13724 6.68499 2.36408 12.48 2.0932ZM13.52 2.0932C19.315 2.36408 23.92 7.13724 23.92 13C23.92 18.8627 19.315 23.6359 13.52 23.9068V20.8548C13.9292 21.1434 14.3808 21.4009 14.8829 21.6064C14.9466 21.6353 15.0155 21.651 15.0853 21.6527C15.1552 21.6544 15.2248 21.6419 15.2897 21.6161C15.3547 21.5903 15.4138 21.5517 15.4635 21.5025C15.5132 21.4533 15.5525 21.3946 15.579 21.33C15.6055 21.2653 15.6187 21.1959 15.6178 21.126C15.6169 21.0561 15.6019 20.9871 15.5737 20.9231C15.5455 20.8591 15.5047 20.8015 15.4537 20.7536C15.4027 20.7058 15.3426 20.6687 15.277 20.6446C14.593 20.3647 14.0129 19.962 13.52 19.5091V17.8212C14.2688 18.7758 15.5536 19.7435 17.5947 19.9519C17.664 19.9618 17.7346 19.9576 17.8023 19.9395C17.8699 19.9214 17.9332 19.8899 17.9884 19.8467C18.0435 19.8036 18.0894 19.7497 18.1233 19.6884C18.1571 19.6271 18.1782 19.5596 18.1853 19.4899C18.1924 19.4203 18.1854 19.3499 18.1647 19.283C18.1439 19.2161 18.1099 19.1541 18.0646 19.1007C18.0193 19.0473 17.9637 19.0036 17.9011 18.9722C17.8385 18.9408 17.7702 18.9224 17.7003 18.918C15.8373 18.7278 14.8323 17.8712 14.2401 17.0574C13.6924 16.305 13.5407 15.6435 13.52 15.5441V13.6023C13.6149 13.6417 13.6896 13.692 13.7536 13.7526C13.9 13.8912 14.0219 14.1293 14.1354 14.4625C14.3625 15.1288 14.5252 16.1422 15.341 16.9091L15.3562 16.9234L15.3725 16.9366C16.3959 17.7542 17.5949 17.7529 18.4285 17.1773C19.262 16.6016 19.76 15.5552 19.76 14.3944C19.76 13.1001 19.1441 11.6169 18.009 10.4183C16.9549 9.30508 15.4214 8.45967 13.52 8.34335V7.31148C15.5918 7.45371 17.958 8.32793 19.5193 10.2121C19.5629 10.2647 19.6164 10.3082 19.6769 10.3401C19.7373 10.3721 19.8034 10.3918 19.8715 10.3981C19.9395 10.4045 20.0081 10.3974 20.0734 10.3773C20.1387 10.3571 20.1994 10.3243 20.252 10.2807C20.3047 10.237 20.3482 10.1835 20.3801 10.1231C20.412 10.0626 20.4317 9.99651 20.4381 9.92847C20.4445 9.86042 20.4374 9.79179 20.4172 9.72649C20.397 9.66119 20.3642 9.6005 20.3206 9.54788C18.5162 7.37017 15.855 6.41035 13.52 6.26945V5.21421C14.9367 5.29108 16.4187 5.82392 17.7988 6.68179C17.916 6.75465 18.0573 6.77798 18.1917 6.74665C18.326 6.71532 18.4425 6.63189 18.5153 6.51472C18.5882 6.39755 18.6115 6.25623 18.5802 6.12186C18.5489 5.98748 18.4654 5.87106 18.3483 5.7982C16.8344 4.85719 15.1747 4.25026 13.52 4.17421V2.0932ZM13.52 9.38437C15.1206 9.49637 16.371 10.2004 17.2544 11.1333C18.218 12.1508 18.72 13.4455 18.72 14.3944C18.72 15.2507 18.3326 15.9791 17.8374 16.3211C17.3472 16.6596 16.7789 16.7118 16.0418 16.1332C15.5349 15.6445 15.3844 14.9034 15.1196 14.1263C14.9858 13.7338 14.8141 13.3251 14.4686 12.998C14.2269 12.7692 13.9015 12.6116 13.52 12.5348V11.4664C14.2279 11.582 14.8079 11.9332 15.2902 12.3947C16.1869 13.2526 16.6489 14.586 16.64 15.0709C16.6388 15.1391 16.651 15.207 16.676 15.2706C16.701 15.3341 16.7383 15.3921 16.7858 15.4413C16.8332 15.4904 16.8899 15.5298 16.9525 15.557C17.0151 15.5843 17.0825 15.5989 17.1508 15.6001C17.2191 15.6013 17.287 15.589 17.3505 15.564C17.4141 15.539 17.4721 15.5017 17.5212 15.4542C17.5704 15.4068 17.6097 15.3501 17.6369 15.2875C17.6642 15.2248 17.6788 15.1574 17.68 15.0891C17.6981 14.0972 17.13 12.7154 16.0093 11.6431C15.3738 11.0351 14.5238 10.5673 13.52 10.4396V9.38437ZM12.48 13.6449V15.5563C12.4786 15.578 12.4786 15.5997 12.48 15.6213V18.3107C12.1244 17.7901 11.8646 17.2684 11.701 16.8198C11.4076 16.0146 11.463 15.14 11.7416 14.5072C11.9244 14.092 12.1757 13.799 12.48 13.6449Z" fill="#042F62"/>
</svg>
