<svg width="45" height="45" viewBox="0 0 45 45" fill="none" xmlns="http://www.w3.org/2000/svg">
<path d="M8.37393 29C7.60401 29 7.01505 28.8665 6.60705 28.5996C6.20235 28.3359 6 27.9648 6 27.4863C6 27.1576 6.10364 26.8825 6.31093 26.6611C6.51822 26.4398 6.82257 26.2819 7.22398 26.1875C7.06934 26.1224 6.93444 26.0166 6.81928 25.8701C6.70412 25.7204 6.64654 25.5625 6.64654 25.3965C6.64654 25.1882 6.70741 25.0156 6.82915 24.8789C6.95089 24.7389 7.12692 24.6022 7.35724 24.4688C7.06769 24.3451 6.83737 24.1465 6.66628 23.873C6.49848 23.5996 6.41457 23.2773 6.41457 22.9062C6.41457 22.5091 6.50177 22.1722 6.67615 21.8955C6.85382 21.6156 7.11047 21.4023 7.44607 21.2559C7.78497 21.1094 8.19625 21.0361 8.67992 21.0361C8.78192 21.0361 8.90037 21.0426 9.03527 21.0557C9.17017 21.0687 9.29356 21.0833 9.40543 21.0996C9.52059 21.1159 9.59791 21.1289 9.63739 21.1387H11.5622V21.8955L10.6985 22.1152C10.7775 22.2357 10.8367 22.3643 10.8762 22.501C10.9157 22.6377 10.9354 22.7826 10.9354 22.9355C10.9354 23.5215 10.7281 23.9788 10.3135 24.3076C9.90226 24.6331 9.32975 24.7959 8.59602 24.7959C8.42164 24.7861 8.25712 24.7731 8.10248 24.7568C8.02681 24.8154 7.96923 24.8773 7.92974 24.9424C7.89026 25.0075 7.87052 25.0758 7.87052 25.1475C7.87052 25.2191 7.90013 25.2793 7.95936 25.3281C8.02187 25.3737 8.114 25.4095 8.23574 25.4355C8.36077 25.4583 8.51541 25.4697 8.69967 25.4697H9.63739C10.2428 25.4697 10.7034 25.5983 11.0193 25.8555C11.3385 26.1126 11.498 26.4902 11.498 26.9883C11.498 27.6263 11.2282 28.1211 10.6886 28.4727C10.1523 28.8242 9.38075 29 8.37393 29ZM8.43809 28.0283C8.79673 28.0283 9.10437 27.9941 9.36101 27.9258C9.62094 27.8607 9.82 27.7663 9.95819 27.6426C10.0964 27.5221 10.1655 27.3773 10.1655 27.208C10.1655 27.0713 10.1244 26.9622 10.0421 26.8809C9.96313 26.8027 9.84139 26.7474 9.67688 26.7148C9.51565 26.6823 9.30837 26.666 9.05502 26.666H8.27522C8.09097 26.666 7.92481 26.6953 7.77675 26.7539C7.63197 26.8125 7.51681 26.8939 7.43127 26.998C7.34572 27.1055 7.30295 27.2292 7.30295 27.3691C7.30295 27.5742 7.40165 27.7354 7.59907 27.8525C7.79978 27.9697 8.07945 28.0283 8.43809 28.0283ZM8.67992 23.8877C8.96289 23.8877 9.17017 23.8014 9.30179 23.6289C9.4334 23.4564 9.4992 23.222 9.4992 22.9258C9.4992 22.597 9.43011 22.3512 9.29191 22.1885C9.15701 22.0225 8.95302 21.9395 8.67992 21.9395C8.40354 21.9395 8.19625 22.0225 8.05806 22.1885C7.91987 22.3512 7.85078 22.597 7.85078 22.9258C7.85078 23.222 7.91823 23.4564 8.05313 23.6289C8.19132 23.8014 8.40025 23.8877 8.67992 23.8877Z" fill="#003DA5"/>
<path d="M17.539 21.1387V26.5977H16.3841L16.1817 25.8994H16.1028C15.9843 26.085 15.8363 26.2363 15.6586 26.3535C15.4809 26.4707 15.2851 26.557 15.0713 26.6123C14.8574 26.6676 14.6353 26.6953 14.405 26.6953C14.0102 26.6953 13.6663 26.627 13.3735 26.4902C13.0807 26.3503 12.852 26.1338 12.6875 25.8408C12.5262 25.5479 12.4456 25.167 12.4456 24.6982V21.1387H13.9509V24.3271C13.9509 24.7178 14.0217 25.0124 14.1632 25.2109C14.3046 25.4095 14.53 25.5088 14.8393 25.5088C15.1453 25.5088 15.3855 25.4404 15.5599 25.3037C15.7343 25.1637 15.856 24.9603 15.9251 24.6934C15.9975 24.4232 16.0337 24.0944 16.0337 23.707V21.1387H17.539Z" fill="#003DA5"/>
<path d="M20.6236 19V20.7676C20.6236 20.9727 20.617 21.1761 20.6039 21.3779C20.594 21.5798 20.5808 21.736 20.5644 21.8467H20.6236C20.7684 21.6221 20.9658 21.4316 21.2159 21.2754C21.4659 21.1159 21.79 21.0361 22.1881 21.0361C22.8067 21.0361 23.3085 21.2754 23.6934 21.7539C24.0784 22.2324 24.2709 22.9339 24.2709 23.8584C24.2709 24.4801 24.182 25.0026 24.0044 25.4258C23.8267 25.8457 23.5783 26.1631 23.2591 26.3779C22.94 26.5895 22.5698 26.6953 22.1486 26.6953C21.7439 26.6953 21.4248 26.6237 21.1912 26.4805C20.9576 26.3372 20.7684 26.1761 20.6236 25.9971H20.52L20.2683 26.5977H19.1183V19H20.6236ZM21.7045 22.2275C21.4412 22.2275 21.2323 22.2812 21.0777 22.3887C20.923 22.4961 20.8095 22.6572 20.7371 22.8721C20.668 23.0869 20.6302 23.3587 20.6236 23.6875V23.8486C20.6236 24.3792 20.7026 24.7861 20.8605 25.0693C21.0184 25.3493 21.3063 25.4893 21.7242 25.4893C22.0335 25.4893 22.2786 25.3477 22.4596 25.0645C22.6438 24.7812 22.736 24.3727 22.736 23.8389C22.736 23.305 22.6438 22.903 22.4596 22.6328C22.2753 22.3626 22.0236 22.2275 21.7045 22.2275Z" fill="#003DA5"/>
<path d="M25.3024 25.8994C25.3024 25.5934 25.3863 25.3786 25.5541 25.2549C25.7252 25.1312 25.9308 25.0693 26.171 25.0693C26.4046 25.0693 26.6053 25.1312 26.7731 25.2549C26.9442 25.3786 27.0298 25.5934 27.0298 25.8994C27.0298 26.1924 26.9442 26.404 26.7731 26.5342C26.6053 26.6644 26.4046 26.7295 26.171 26.7295C25.9308 26.7295 25.7252 26.6644 25.5541 26.5342C25.3863 26.404 25.3024 26.1924 25.3024 25.8994Z" fill="#003DA5"/>
<path d="M33.4606 21.1387V26.5977H32.3057L32.1034 25.8994H32.0244C31.9059 26.085 31.7579 26.2363 31.5802 26.3535C31.4025 26.4707 31.2068 26.557 30.9929 26.6123C30.779 26.6676 30.5569 26.6953 30.3266 26.6953C29.9318 26.6953 29.5879 26.627 29.2951 26.4902C29.0023 26.3503 28.7736 26.1338 28.6091 25.8408C28.4479 25.5479 28.3673 25.167 28.3673 24.6982V21.1387H29.8726V24.3271C29.8726 24.7178 29.9433 25.0124 30.0848 25.2109C30.2263 25.4095 30.4516 25.5088 30.7609 25.5088C31.0669 25.5088 31.3071 25.4404 31.4815 25.3037C31.6559 25.1637 31.7776 24.9603 31.8467 24.6934C31.9191 24.4232 31.9553 24.0944 31.9553 23.707V21.1387H33.4606Z" fill="#003DA5"/>
<path d="M34.2503 21.1387H35.8987L36.9401 24.21C36.973 24.3076 37.0009 24.4069 37.024 24.5078C37.047 24.6087 37.0667 24.7129 37.0832 24.8203C37.0996 24.9277 37.1128 25.04 37.1227 25.1572H37.1523C37.172 24.9814 37.1983 24.8171 37.2312 24.6641C37.2674 24.5111 37.3118 24.3597 37.3645 24.21L38.3861 21.1387H40L37.6656 27.2959C37.5241 27.6735 37.3398 27.9876 37.1128 28.2383C36.8858 28.4922 36.6242 28.6826 36.3281 28.8096C36.0352 28.9365 35.7128 29 35.3607 29C35.1896 29 35.0416 28.9902 34.9165 28.9707C34.7915 28.9544 34.6846 28.9365 34.5957 28.917V27.7354C34.6648 27.7516 34.752 27.7663 34.8573 27.7793C34.9626 27.7923 35.0728 27.7988 35.188 27.7988C35.3986 27.7988 35.5795 27.7549 35.7309 27.667C35.8822 27.5791 36.0089 27.4603 36.1109 27.3105C36.2129 27.1641 36.2935 27.0029 36.3527 26.8271L36.4416 26.5586L34.2503 21.1387Z" fill="#003DA5"/>
<circle cx="22.5" cy="22.5" r="21.5" stroke="#003DA5" stroke-width="2"/>
</svg>
