<svg width="30" height="30" viewBox="0 0 30 30" fill="none" xmlns="http://www.w3.org/2000/svg">
<path d="M17.7842 4.32501C17.8521 4.35896 17.92 4.42686 17.92 4.49476C17.92 4.56266 17.8521 4.59661 17.7842 4.56266C17.7163 4.52871 17.6483 4.46081 17.6483 4.39291C17.6144 4.32501 17.6823 4.29105 17.7842 4.32501ZM15.3057 3.51018C15.9848 3.74784 16.6298 3.95154 17.2749 4.15525C17.3767 4.1892 17.4446 4.2571 17.4446 4.32501C17.4446 4.39291 17.3767 4.42686 17.2749 4.39291C16.6638 4.1892 15.9848 3.9855 15.3057 3.74784C15.2039 3.71389 15.136 3.61204 15.136 3.54413C15.136 3.54413 15.2039 3.47623 15.3057 3.51018ZM21.315 4.69847C20.9416 4.22315 20.4663 3.78179 19.8552 3.54413C18.8706 3.13672 17.7842 2.72931 16.5959 2.28795C15.3057 1.77869 13.9137 1.23547 12.352 0.624355C11.2995 0.216944 10.3149 0.149042 9.53408 0.386698C8.71926 0.658306 8.20999 1.23547 8.20999 2.05029C8.20999 6.36206 8.17604 10.7078 8.17604 15.0535C8.17604 19.3992 8.14209 23.7449 8.14209 28.1246C8.14209 28.9734 8.65135 29.5166 9.46618 29.6863C10.247 29.8561 11.2656 29.6863 12.3181 29.1771C13.8458 28.4302 15.2718 27.7511 16.5619 27.1061C17.7502 26.5289 18.8366 26.0196 19.8552 25.5104C20.4323 25.2388 20.9755 24.7635 21.315 24.2202C21.6546 23.711 21.8583 23.1338 21.8583 22.5906V21.5042V6.22626C21.8583 5.71699 21.6546 5.17378 21.315 4.69847ZM20.9076 23.032C20.9076 23.3036 20.8058 23.6091 20.6021 23.8807C20.3984 24.1523 20.1607 24.39 19.8552 24.5258C18.8366 24.9672 17.7502 25.4425 16.5619 25.9857C15.2718 26.5629 13.8458 27.174 12.3181 27.853C11.8088 28.0907 11.2995 28.1246 10.96 28.0227C10.5866 27.9209 10.3489 27.6493 10.3489 27.2419C10.3489 23.1338 10.3489 19.0597 10.3829 14.9516C10.3829 10.8775 10.4168 6.80342 10.4168 2.72931C10.4168 2.3219 10.6545 2.05029 11.0279 1.91449C11.4014 1.77869 11.8767 1.77869 12.386 1.98239C13.9477 2.52561 15.3397 3.00092 16.6298 3.44228C17.8181 3.84969 18.9045 4.22315 19.8891 4.56266C20.1947 4.66451 20.4663 4.86822 20.636 5.10588C20.8058 5.34353 20.9416 5.64909 20.9416 5.9207V21.5042V23.032H20.9076ZM14.6607 18.5504C14.5928 18.5844 14.5249 18.7881 14.457 19.0937C14.5249 19.0937 14.5588 19.1616 14.6267 19.1616C14.6607 19.1616 14.6946 19.1616 14.7286 19.1616C14.7965 18.89 14.8304 18.6862 14.7965 18.5844C14.7965 18.5504 14.7286 18.5165 14.6607 18.5504ZM15.4076 18.0751C15.6452 16.8868 15.781 15.7665 15.8489 14.714C15.8489 14.714 15.8489 14.714 15.8489 14.68C15.815 14.6461 15.781 14.6121 15.7131 14.6121C15.6113 14.6121 15.5773 14.8837 15.5773 15.0874C15.5773 15.1214 15.5773 15.1893 15.5773 15.2233C15.5094 16.106 15.3397 17.0906 15.1699 17.9733C15.1699 18.0072 15.136 18.0751 15.136 18.143C15.0681 18.4486 14.9323 18.9579 15.0681 19.0258H15.102C15.2378 18.9918 15.3397 18.5504 15.4076 18.143C15.4076 18.1091 15.4076 18.0751 15.4076 18.0751ZM14.9323 15.427C14.9662 14.9516 15.0002 14.4763 15.136 14.2047C15.1699 14.1708 15.1699 14.1368 15.2039 14.0689C15.2718 14.001 15.3057 13.8992 15.3057 13.7973C15.3057 13.6276 15.1699 13.5936 15.102 13.6615C14.7965 14.001 14.7286 14.6121 14.6946 15.2572C14.6946 15.427 14.6607 15.6307 14.6267 15.8004C14.5249 16.6831 14.3551 17.6677 14.1514 18.6183C14.1854 18.6523 14.1854 18.6862 14.1854 18.7202C14.2193 18.7881 14.3212 18.856 14.3551 18.89C14.5588 17.9733 14.7625 17.0226 14.8644 15.9702C14.8983 15.8344 14.9323 15.6307 14.9323 15.427ZM18.4971 17.3282C18.5311 17.1924 18.5311 17.1585 18.5311 17.0227C18.7008 15.9362 18.9385 14.6121 18.7348 13.4918C18.599 12.7448 18.3613 12.0998 18.0218 11.5566C17.92 11.3868 17.7842 11.251 17.7502 11.1491C17.7162 11.0812 17.6483 11.0133 17.5804 10.9794C17.4107 10.8096 17.173 10.538 16.9693 10.5041C16.9354 10.5041 16.9354 10.538 16.9354 10.538C16.9014 10.572 16.8335 10.6738 16.8335 10.7417C16.8335 10.8436 16.9354 10.9115 17.0033 10.9794C17.0372 11.0133 17.0712 11.0133 17.1051 11.0473C17.8521 11.6584 18.2934 12.5072 18.4632 13.6955C18.565 14.3745 18.4971 15.2233 18.3953 16.072C18.3274 16.6831 18.2595 17.1924 18.1576 17.7356V17.7696C18.1576 17.8375 18.1237 17.9733 18.1237 18.0751C18.1916 17.9733 18.3274 17.8035 18.4292 17.6677C18.4632 17.5319 18.4632 17.4301 18.4971 17.3282ZM13.2687 15.0535C13.3026 14.8498 13.3026 14.6121 13.3366 14.4084C13.4724 13.3899 13.8119 12.5072 14.3212 11.8961C14.3551 11.8621 14.3551 11.8621 14.3891 11.8282C14.4909 11.7603 14.5928 11.6584 14.5928 11.4886C14.5928 11.3528 14.5588 11.2849 14.457 11.3189C14.457 11.3189 14.457 11.3189 14.423 11.3189H14.3891C13.71 11.964 13.2347 12.9825 13.065 14.2387C13.031 14.4763 12.9971 14.714 12.9971 14.9856C12.9631 15.2233 12.9631 15.4609 12.9292 15.6986C12.8273 16.4115 12.7255 17.1585 12.5557 17.8714C12.5557 17.9054 12.5897 17.9393 12.5897 17.9733C12.6236 18.0412 12.6576 18.177 12.7255 18.143H12.7594C12.9292 17.3961 13.065 16.6492 13.1668 15.8683C13.2347 15.5628 13.2347 15.2912 13.2687 15.0535ZM16.1885 15.4949C16.2224 15.1893 16.2564 14.8498 16.2564 14.6121C16.2224 14.2387 15.9848 13.9331 15.7131 13.9671H15.6792C15.2378 14.0689 15.1699 14.5782 15.136 15.1893C15.136 15.2572 15.136 15.3251 15.102 15.393C15.0341 16.072 14.9662 16.6152 14.8644 17.2264C14.8644 17.2603 14.8644 17.2943 14.8304 17.3622C14.7965 17.5659 14.7286 17.8714 14.7625 18.0072C14.7625 18.0412 14.7965 18.0751 14.8304 18.0751H14.8644C15.0002 18.0412 15.0341 17.6677 15.102 17.4301C15.102 17.3961 15.102 17.3622 15.136 17.3282C15.2718 16.6492 15.3057 16.1739 15.3736 15.5288C15.3736 15.4609 15.3736 15.3591 15.4076 15.2912C15.4415 14.8498 15.4755 14.4084 15.7471 14.3745C15.7471 14.3745 15.7471 14.3745 15.781 14.3745C15.8829 14.3745 15.9169 14.4084 15.9508 14.4763C16.0866 14.68 16.0187 15.1893 15.9508 15.5628C15.9508 15.6307 15.9508 15.6307 15.9508 15.6986C15.815 16.9887 15.5773 18.2109 15.2718 19.5011C15.3057 19.5011 15.5094 19.4332 15.5773 19.3992C15.8489 18.177 16.0866 16.9887 16.2224 15.6986C16.1885 15.6307 16.1885 15.5628 16.1885 15.4949ZM13.5742 17.6338C13.5403 17.6338 13.5403 17.6338 13.5063 17.6677V17.7017C13.4384 18.0751 13.3366 18.4825 13.2347 18.89C13.2687 18.89 13.3026 18.856 13.3705 18.856C13.4384 18.822 13.5063 18.7541 13.5742 18.7541C13.5742 18.7202 13.5742 18.6862 13.6082 18.6523C13.6761 18.3807 13.744 18.0751 13.744 17.7696C13.744 17.7696 13.744 17.7696 13.744 17.7356C13.6761 17.6677 13.6421 17.6338 13.5742 17.6338ZM14.3551 16.8189C14.423 16.4455 14.4909 16.072 14.457 15.6646C14.457 15.6646 14.457 15.6646 14.457 15.6307C14.423 15.5967 14.3551 15.5967 14.2872 15.6307C14.2872 15.6307 14.2872 15.6307 14.2872 15.6646C14.2193 15.9362 14.1854 16.2078 14.1514 16.4455C14.1514 16.5813 14.1175 16.7171 14.0835 16.8868C13.9816 17.498 13.8798 18.0751 13.744 18.6862C13.7779 18.6862 13.8119 18.6862 13.8458 18.6862C13.8798 18.6862 13.8798 18.6862 13.9137 18.6862C13.9477 18.6862 14.0156 18.6523 14.0496 18.6523C14.1854 18.1091 14.2872 17.5319 14.3551 16.9887C14.3212 16.8868 14.3212 16.8529 14.3551 16.8189ZM16.2903 16.5473C16.3243 16.5813 16.3582 16.5813 16.3922 16.5813C16.528 16.5473 16.5619 16.1399 16.5959 15.8344C16.5959 15.7665 16.5959 15.7325 16.5959 15.6646C16.5959 15.5967 16.6298 15.4949 16.6298 15.427C16.6638 15.1893 16.6977 14.9177 16.6977 14.6461C16.6977 14.1708 16.528 13.8652 16.494 13.7973C16.3243 13.5257 16.0866 13.322 15.8489 13.288C15.6452 13.288 15.5434 13.322 15.4755 13.4239C15.4415 13.4578 15.4415 13.5257 15.4415 13.5936C15.4755 13.7294 15.5434 13.7294 15.6113 13.7294C15.6452 13.7294 15.6452 13.7294 15.6792 13.7294C15.7131 13.7294 15.781 13.7294 15.815 13.7294C16.1545 13.7634 16.4261 14.1368 16.4261 14.68C16.4261 15.0195 16.3922 15.2912 16.3582 15.5628C16.2903 15.8683 16.2564 16.1739 16.2903 16.5473ZM17.1391 17.7696C17.207 17.498 17.2409 17.2264 17.2409 16.9547C17.2409 16.9547 17.2409 16.9547 17.2409 16.9208C17.207 16.8868 17.173 16.8868 17.1391 16.8868C17.0033 16.9208 16.9693 17.1585 16.9693 17.3282C16.9693 17.3622 16.9693 17.3961 16.9693 17.4301C16.8675 18.0072 16.7656 18.5504 16.6298 19.0937C16.6298 19.0937 16.6298 19.0937 16.6638 19.0937C16.6977 19.0937 16.8335 19.0937 16.9014 19.0597C16.9693 18.6862 17.0712 18.3128 17.1391 17.9393C17.1051 17.9054 17.1391 17.8375 17.1391 17.7696ZM16.3243 17.6677C16.3582 17.4301 16.3922 17.2264 16.3582 17.1245C16.3582 17.0906 16.2903 17.0566 16.2224 17.0906C16.1206 17.1585 16.0866 17.3622 16.0866 17.498C16.0866 17.5319 16.0866 17.5998 16.0527 17.6338C15.9508 18.1091 15.8489 18.6183 15.7471 19.0937C15.781 19.0597 15.8489 19.0597 15.8829 18.9918C15.9169 18.9579 15.9508 18.9579 16.0187 18.9579C16.1206 18.5504 16.1885 18.143 16.2564 17.7356C16.2903 17.7017 16.2903 17.7017 16.3243 17.6677ZM12.6915 16.4455C12.7934 15.9023 12.8273 15.5288 12.7934 15.427C12.7594 15.3591 12.7255 15.3251 12.6915 15.3251C12.5897 15.3251 12.5218 15.6646 12.5218 15.8683C12.5218 15.8683 12.5218 15.8683 12.5218 15.9023C12.4878 16.1739 12.4539 16.4455 12.386 16.7171C12.386 16.785 12.386 16.8189 12.386 16.8529C12.386 16.9887 12.4199 17.0566 12.4199 17.1245C12.4199 17.1924 12.4539 17.498 12.4539 17.5319C12.4539 17.5659 12.4539 17.5998 12.4878 17.6338C12.5557 17.2603 12.6236 16.8868 12.6915 16.5134C12.6576 16.5134 12.6915 16.4794 12.6915 16.4455ZM16.9354 16.5134C17.0712 15.5628 17.2409 14.3066 16.9354 13.5597C16.7317 13.1183 16.3243 12.609 15.7471 12.643C15.7131 12.643 15.6452 12.643 15.6113 12.6769C15.0341 12.8127 14.5928 13.356 14.423 14.2047C14.423 14.2047 14.2533 14.9177 14.3551 15.1214C14.3891 15.1553 14.423 15.1893 14.457 15.1893C14.5928 15.1553 14.5928 14.9516 14.6267 14.7479C14.6267 14.68 14.6267 14.6121 14.6267 14.5782C14.7286 13.9331 15.102 13.1862 15.6792 13.0843C15.7131 13.0843 15.7131 13.0843 15.7471 13.0843C16.3582 13.0504 16.8675 13.7294 16.8675 14.68C16.8675 14.8837 16.8335 15.1553 16.7996 15.393C16.7996 15.4609 16.7996 15.5288 16.7656 15.5628C16.6298 16.7171 16.4601 17.8375 16.1885 18.9579C16.2564 18.9579 16.3243 18.9579 16.3582 18.9579C16.3922 18.9579 16.4261 18.9579 16.4261 18.9918C16.5959 18.2109 16.7317 17.4301 16.8675 16.5813C16.9014 16.5473 16.9354 16.5473 16.9354 16.5134ZM17.207 15.5967C17.207 15.6307 17.207 15.6646 17.173 15.7325C17.1391 15.9362 17.1051 16.1739 17.173 16.2757C17.207 16.3097 17.2409 16.3436 17.2749 16.3097C17.4107 16.2757 17.4446 16.0041 17.4446 15.7325C17.4446 15.6646 17.4446 15.6307 17.4446 15.5628C17.4446 15.4949 17.4446 15.427 17.4786 15.3591C17.5125 15.1553 17.5125 14.9177 17.5465 14.7479C17.6144 13.4239 17.0033 12.5072 16.3922 12.2016C16.2224 12.0998 15.8489 12.0319 15.6452 12.0658C15.2718 12.1337 14.9323 12.3035 14.6607 12.643C14.3891 12.9485 14.2193 13.322 14.0835 13.7973C13.9477 14.2387 13.8798 14.8837 13.8458 15.4949C13.8119 15.8004 13.7779 16.106 13.744 16.3776C13.744 16.4115 13.744 16.4794 13.71 16.5134C13.6761 16.7171 13.6421 16.9547 13.6761 17.0906C13.71 17.1245 13.71 17.1585 13.744 17.1585C13.744 17.1585 13.744 17.1585 13.7779 17.1585C13.9137 17.1245 13.9477 16.785 13.9816 16.5813C13.9816 16.5134 13.9816 16.4794 13.9816 16.4455C14.0156 16.2418 14.0496 15.8683 14.0835 15.6307C14.0835 15.4949 14.1175 15.3591 14.1175 15.2233C14.1514 14.7819 14.1854 14.3405 14.2872 14.035C14.5249 13.1183 15.102 12.5411 15.7131 12.4732C15.7131 12.4732 15.7131 12.4732 15.7471 12.4732C16.1206 12.4393 16.528 12.6769 16.7996 13.0504C17.0712 13.4239 17.2409 13.8992 17.2749 14.4763C17.2749 14.8158 17.2409 15.0874 17.207 15.393C17.207 15.427 17.207 15.4949 17.207 15.5967ZM19.2101 13.7973V13.7634C19.2101 13.6615 19.1761 13.5936 19.1761 13.4918C19.1422 13.3899 19.1082 13.322 19.1082 13.288C19.0743 13.2201 18.7008 12.1677 18.6669 12.2016C18.6329 12.2016 18.599 12.2356 18.5311 12.2356C18.7008 12.7109 18.8366 13.1862 18.9045 13.6955C18.9045 13.7634 18.9045 13.7973 18.9045 13.8652C18.9045 14.001 18.9045 14.1368 18.9724 14.2047C19.0064 14.1708 19.1422 14.1029 19.1761 14.0689C19.244 14.001 19.244 13.8992 19.2101 13.7973ZM14.0835 10.4701C14.1854 10.4701 14.2872 10.3683 14.3551 10.3004C14.7286 9.99481 15.1699 9.859 15.6113 9.859V9.82505C15.6113 9.82505 15.6113 9.5874 15.6113 9.45159C15.5773 9.45159 15.5094 9.45159 15.4755 9.45159C15.1699 9.48555 14.8983 9.55345 14.6267 9.68925C14.6267 9.68925 14.5928 9.68925 14.5928 9.7232C14.2872 9.89296 13.9477 10.0627 13.9816 10.3004C13.9816 10.4022 14.0156 10.4701 14.0835 10.4701ZM16.3922 9.55345C16.2564 9.48554 16.1545 9.48555 16.0187 9.45159C15.9508 9.5874 15.8489 9.7911 15.815 9.82505C16.0866 9.82505 16.3243 9.89296 16.5619 9.99481C16.528 9.92691 16.4261 9.5874 16.3922 9.55345ZM13.9137 9.92691C14.457 9.5195 15.0681 9.21394 15.6792 9.21394C15.6792 9.17999 15.6792 9.14604 15.6792 9.14604C15.6792 9.14604 15.5094 8.90838 15.4755 8.84048C14.9662 8.90838 14.457 9.11208 14.0156 9.41764L13.9816 9.45159C13.9137 9.48555 13.8458 9.55345 13.7779 9.62135C13.6421 9.75715 13.3705 10.0288 13.2687 10.1985L13.2347 10.2325C13.2347 10.2664 13.2008 10.2664 13.2008 10.2664C13.1329 10.4022 13.031 10.538 12.9292 10.7417C12.9292 10.8436 12.9292 11.0133 12.9292 11.0133C12.9292 11.0133 12.9292 11.1491 12.9292 11.3868C13.031 11.1491 13.1329 10.9794 13.2687 10.7757C13.2687 10.7417 13.3026 10.7417 13.3366 10.7078C13.3366 10.7078 13.3705 10.6738 13.4045 10.6399C13.4384 10.6059 13.4384 10.572 13.4724 10.538C13.5063 10.3004 13.9137 9.92691 13.9137 9.92691ZM18.1237 16.9208C18.1576 16.6152 18.2255 16.3097 18.2255 16.0381C18.2255 16.0381 18.2255 16.0381 18.2255 16.0041C18.1916 15.9702 18.1237 15.9702 18.0558 16.0041C18.0558 16.0041 18.0558 16.0041 18.0558 16.0381C17.9879 16.3776 17.92 16.751 17.886 17.0906C17.8521 17.3961 17.7842 17.7017 17.7163 18.0072C17.6823 18.2449 17.6144 18.4486 17.5804 18.6862C17.6144 18.6862 17.6144 18.6523 17.6144 18.6523C17.6483 18.5844 17.8181 18.4825 17.92 18.4146C18.0218 17.9733 18.0897 17.5319 18.1576 17.0906C18.1237 17.0226 18.1237 16.9547 18.1237 16.9208ZM13.5403 11.1491C13.6421 11.0133 13.744 10.8775 13.744 10.7417C13.744 10.6399 13.6761 10.572 13.6082 10.572C13.6082 10.572 13.5742 10.572 13.5403 10.572C13.5403 10.572 13.5063 10.572 13.5063 10.6059C13.2008 10.9115 12.9292 11.4547 12.6236 12.2356C12.6236 12.4053 12.5897 12.7788 12.5897 12.8467C12.5897 12.9146 12.6576 12.9485 12.6915 12.9825C12.8613 12.3714 13.0989 11.7942 13.4384 11.2849C13.4724 11.251 13.5063 11.1831 13.5403 11.1491ZM17.3088 18.89C17.3428 18.856 17.3428 18.856 17.3767 18.822C17.5465 17.9393 17.7163 17.0226 17.8521 16.072C17.8521 15.9702 17.886 15.9023 17.886 15.8004C17.9539 15.3591 17.9879 14.9177 17.9879 14.4763C17.9879 13.7634 17.7842 13.0843 17.6144 12.7448C17.5465 12.609 17.4446 12.3714 17.3088 12.3714C17.2749 12.3714 17.2409 12.4053 17.2409 12.4053C17.173 12.5751 17.2749 12.7109 17.3428 12.8127C17.3767 12.8467 17.3767 12.8806 17.4107 12.8806C17.6483 13.356 17.7842 13.8992 17.7502 14.5103C17.7502 14.9177 17.6823 15.3251 17.6483 15.7325C17.6483 15.8344 17.6144 15.9362 17.6144 16.0041C17.4786 17.1585 17.3088 18.1091 17.1051 18.9918C17.173 18.9918 17.2749 18.9239 17.3088 18.89ZM12.9292 14.4084C12.9292 14.3745 12.9292 14.3405 12.9292 14.3066C13.065 13.1183 13.4384 12.1337 14.0496 11.4207C14.2872 11.1491 14.8983 10.538 15.7471 10.5041C15.9169 10.5041 16.1206 10.538 16.2903 10.572C16.3243 10.572 16.3243 10.572 16.3582 10.6059C16.3922 10.6399 16.4601 10.6399 16.494 10.6399C16.5619 10.6399 16.5959 10.572 16.6298 10.4701C16.6298 10.4362 16.6298 10.3683 16.5959 10.3343C16.4601 10.1306 15.9169 10.0967 15.815 10.0967C15.781 10.0967 15.7471 10.0967 15.7471 10.0967C14.8983 10.1646 14.1854 10.572 13.6082 11.4547C13.2347 11.9979 12.9292 12.8806 12.7934 13.7634C12.7934 13.7634 12.7934 13.7634 12.7934 13.7973C12.7934 13.8992 12.7594 13.9671 12.7594 14.0689C12.7594 14.1368 12.7255 14.2387 12.7594 14.3066C12.7934 14.4084 12.8273 14.5782 12.8273 14.7819C12.8273 14.7819 12.8273 14.7819 12.8613 14.7819C12.8952 14.7479 12.8952 14.5442 12.9292 14.4084ZM18.9385 15.5628C18.9045 15.5628 18.9045 15.5628 18.9045 15.5288C18.8366 16.0381 18.8027 16.5134 18.7008 17.0227C18.7687 16.9208 18.8366 16.8189 18.8366 16.8189C18.8366 16.8189 19.0064 16.4115 19.1082 16.1739C19.1082 16.106 19.1422 16.0381 19.1422 15.9702C19.0743 15.8683 18.9724 15.6986 18.9724 15.6646C18.9385 15.6307 18.9385 15.5628 18.9385 15.5628ZM18.1576 15.5288C18.1916 15.5288 18.1916 15.5288 18.1916 15.5288C18.2934 15.5288 18.2934 15.393 18.3274 15.1893C18.3274 15.1553 18.3274 15.1553 18.3274 15.1214C18.4632 13.6615 18.0897 12.7109 17.7502 12.1337C17.4446 11.6245 16.7996 10.7417 15.7131 10.7417C15.6452 10.7417 15.5773 10.7417 15.5094 10.7417H15.4755C15.2039 10.7757 14.8983 10.8436 14.8304 11.0133C14.7965 11.0473 14.7965 11.1152 14.7965 11.1831C14.7965 11.251 14.8304 11.3189 14.9323 11.3189C15.0002 11.3189 15.0341 11.2849 15.102 11.251C15.136 11.251 15.136 11.251 15.136 11.217C15.3057 11.1491 15.5094 11.1152 15.6792 11.1152C16.5619 11.0812 17.1051 11.7603 17.3428 12.0319C17.9539 12.8467 18.1916 13.7973 18.0897 14.9856C18.0897 15.0195 18.0897 15.0195 18.0897 15.0535C18.0897 15.2572 18.0558 15.4949 18.1576 15.5288ZM14.0496 9.04418C14.0835 9.04418 14.0835 9.01023 14.1175 9.01023C14.1854 8.97628 14.2193 8.94233 14.2533 8.90838C14.3891 8.77258 14.6267 8.70467 14.7286 8.70467C14.7625 8.70467 14.8304 8.67072 14.8644 8.67072H14.8983C15.0341 8.63677 15.1699 8.60282 15.3057 8.60282C15.2378 8.50097 15.102 8.29726 15.0681 8.22936C15.0341 8.22936 14.9662 8.22936 14.8644 8.26331C14.7965 8.26331 14.7286 8.29726 14.6946 8.33121C14.2533 8.50097 13.9816 8.67072 13.9816 8.67072C13.71 8.84048 13.3705 9.11208 13.031 9.55345L12.9971 9.5874C13.031 9.68925 12.9631 10.0627 12.9631 10.1985C13.2687 9.68925 13.6421 9.31579 14.0496 9.04418ZM13.0989 8.09356C13.031 8.12751 12.9631 8.22936 12.9631 8.36516C13.031 8.26331 13.2008 8.05961 13.4045 7.9917C13.4384 7.95775 13.5063 7.95775 13.5403 7.9238L13.5742 7.88985C13.6082 7.8559 13.6421 7.8559 13.6761 7.82195C13.744 7.788 13.7779 7.75405 13.8458 7.7201H13.8119C13.7779 7.7201 13.7779 7.7201 13.7779 7.7201C13.7779 7.7201 13.5063 7.68615 13.4724 7.58429C13.4724 7.55034 13.4724 7.55034 13.4384 7.55034C13.4384 7.55034 13.4384 7.55034 13.4045 7.55034L13.3705 7.58429V7.65219C13.3705 7.75405 13.2687 8.02566 13.0989 8.09356ZM13.71 15.0535C13.744 14.8498 13.744 14.6121 13.7779 14.4084C13.9477 12.9825 14.6946 11.93 15.5773 11.7942C15.6113 11.7942 15.6452 11.7942 15.7131 11.7942C16.0527 11.7942 16.3922 11.8961 16.6638 12.0998C16.6638 12.0998 16.6977 12.0998 16.6977 12.1337C16.7656 12.1677 16.8335 12.2356 16.8675 12.2356C16.9014 12.2356 16.9693 12.2016 16.9693 12.0998C17.0372 11.8621 16.7317 11.6924 16.528 11.5905C16.528 11.5905 16.528 11.5905 16.494 11.5905C16.1885 11.4207 15.815 11.3528 15.4755 11.4207C14.5249 11.5905 13.7779 12.609 13.5063 14.1368C13.4384 14.4763 13.4045 14.8837 13.3705 15.3251C13.3366 15.7325 13.2687 16.1739 13.2347 16.5813C13.1329 17.1924 13.031 17.6677 12.8952 18.2788V18.3128C12.8952 18.3467 12.8952 18.3467 12.8952 18.3807C12.9631 18.5165 13.065 18.6862 13.065 18.7541C13.0989 18.6862 13.1329 18.5844 13.1329 18.4825C13.1329 18.4486 13.1329 18.4146 13.1329 18.3807C13.3705 17.3961 13.5063 16.5473 13.6082 15.5967C13.6761 15.427 13.6761 15.2233 13.71 15.0535ZM14.1514 7.31269C14.0835 7.31269 14.0156 7.31269 13.9816 7.51639C13.9816 7.55034 13.9816 7.58429 13.9477 7.61824C14.1175 7.51639 14.2872 7.44849 14.457 7.38059C14.457 7.34664 14.457 7.31269 14.423 7.27874C14.423 7.24478 14.3551 7.24478 14.2872 7.24478H14.2533H14.2193C14.1854 7.24478 14.1854 7.24478 14.1854 7.24478C14.2533 7.24478 14.1854 7.27873 14.1514 7.31269ZM13.4045 8.77258C13.8458 8.36516 14.3551 8.09356 14.8983 7.9917C14.8644 7.9917 14.7965 7.9238 14.7625 7.75405C14.7625 7.68615 14.7286 7.6522 14.6946 7.61824C14.6607 7.61824 14.6607 7.61824 14.6267 7.61824C14.0496 7.788 13.5063 8.12751 13.031 8.63677C13.065 8.73863 13.0989 8.94233 13.1329 9.07813C13.2008 8.97628 13.3026 8.87443 13.4045 8.77258Z" fill="#002856"/>
</svg>
