<svg width="57" height="85" viewBox="0 0 57 85" fill="none" xmlns="http://www.w3.org/2000/svg">
<path d="M34.6058 85H22.3758C20.0984 85 16.7726 82.0165 7.26753 72.4234L6.24989 71.398C0.96553 66.0703 0.140998 59.8901 0.0275866 55.0812C0.0275866 54.9484 0.00919553 54.8187 0.00919553 54.689V29.7891C0.00919553 29.7242 0.00919553 29.6594 0.00919553 29.5945C0 29.2671 0 28.9922 0 28.7235C0.00892322 21.1083 3.0151 13.8076 8.35911 8.42286C13.7031 3.0381 20.9486 0.00899127 28.5061 0C29.0075 0.0396646 29.4757 0.268374 29.8171 0.64049C30.1586 1.01261 30.3482 1.50076 30.3482 2.00756C30.3482 2.51435 30.1586 3.00251 29.8171 3.37463C29.4757 3.74674 29.0075 3.97545 28.5061 4.01512C22.0044 4.02084 15.7706 6.62588 11.1732 11.2584C6.57573 15.8908 3.99041 22.1722 3.98473 28.7235C3.98473 28.9706 3.98473 29.2331 4.00005 29.5574C4.00465 29.6253 4.00465 29.6934 4.00005 29.7613V54.6859C3.99925 54.7003 3.99925 54.7147 4.00005 54.7291C4.0032 54.7888 4.0032 54.8486 4.00005 54.9083C4.1717 62.6512 6.79549 66.2649 9.05759 68.5473L10.0783 69.5758C13.7964 73.3284 20.6685 80.2622 22.5168 80.9725H34.4311C36.2702 80.2622 43.1515 73.3284 46.8696 69.5758L47.9087 68.5658C52.1754 64.2666 52.8498 59.155 52.9601 55.1831C52.9641 55.0511 52.9806 54.9198 53.0091 54.7909C53.0132 54.7622 53.0132 54.7331 53.0091 54.7044V29.7891C53.0107 29.7757 53.0107 29.7623 53.0091 29.7489C53.003 29.6584 53.003 29.5676 53.0091 29.4771C53.0091 29.227 53.0091 28.9768 53.0091 28.7266C52.9876 28.4497 53.0231 28.1714 53.1134 27.909C53.2038 27.6466 53.347 27.4059 53.5341 27.2019C53.7212 26.998 53.9482 26.8353 54.2007 26.724C54.4532 26.6127 54.7259 26.5553 55.0015 26.5553C55.2771 26.5553 55.5498 26.6127 55.8023 26.724C56.0548 26.8353 56.2818 26.998 56.4689 27.2019C56.656 27.4059 56.7993 27.6466 56.8896 27.909C56.9799 28.1714 57.0154 28.4497 56.9939 28.7266C56.9939 28.9768 56.9939 29.23 56.9939 29.4802C56.9939 29.5821 56.9939 29.6871 56.9939 29.7891V54.689C56.9941 54.9448 56.9715 55.2001 56.9264 55.4518C56.7916 59.7974 55.967 66.1042 50.7103 71.398L49.6926 72.4234C40.209 82.0165 36.8863 85 34.6058 85Z" fill="#073184"/>
<path d="M31.8599 74.9938H25.033C24.7585 75.0155 24.4826 74.9798 24.2225 74.8889C23.9624 74.7981 23.7238 74.654 23.5217 74.4657C23.3196 74.2775 23.1583 74.0492 23.048 73.7951C22.9377 73.5411 22.8807 73.2668 22.8807 72.9895C22.8807 72.7123 22.9377 72.438 23.048 72.1839C23.1583 71.9299 23.3196 71.7016 23.5217 71.5133C23.7238 71.3251 23.9624 71.181 24.2225 71.0901C24.4826 70.9993 24.7585 70.9635 25.033 70.9852H31.1129C33.562 68.8268 37.3979 64.9384 39.7613 62.5549L40.7838 61.525C42.0084 60.2916 42.8074 58.7498 42.9268 54.9848L42.9544 53.9919C42.9568 53.8946 42.9671 53.7977 42.985 53.7021V30.4245L42.9666 30.2518C42.9604 30.1615 42.9604 30.0708 42.9666 29.9805L42.985 29.3083C42.985 29.1572 42.985 28.9999 42.985 28.8581C43.0129 26.921 42.6583 24.9977 41.9416 23.1999C41.225 21.4022 40.1607 19.7658 38.8106 18.3861C37.4605 17.0063 35.8515 15.9107 34.0773 15.1628C32.303 14.415 30.3989 14.0298 28.4755 14.0298C26.5522 14.0298 24.648 14.415 22.8737 15.1628C21.0995 15.9107 19.4905 17.0063 18.1404 18.3861C16.7903 19.7658 15.726 21.4022 15.0094 23.1999C14.2928 24.9977 13.9381 26.921 13.966 28.8581C13.966 28.9937 13.966 29.1664 13.966 29.3576L13.9813 29.8571C13.9813 29.925 13.9813 29.9897 13.9813 30.0575V30.2796V54.2602C13.9829 54.2828 13.9829 54.3054 13.9813 54.328V54.7751C13.9548 55.2815 13.7392 55.7591 13.3778 56.1121C13.0164 56.4652 12.5359 56.6677 12.0326 56.679C11.5293 56.6903 11.0403 56.5096 10.6637 56.1731C10.287 55.8366 10.0505 55.3692 10.0015 54.8645V54.4914C10.0015 54.4421 10.0015 54.3928 10.0015 54.3434V30.2117C10.0015 30.1686 10.0015 30.1254 10.0015 30.0791V29.891V29.4902C10.0015 29.2312 10.0015 29.0307 10.0015 28.8735C9.97002 26.4065 10.4252 23.9578 11.3407 21.6694C12.2562 19.381 13.6138 17.2985 15.3347 15.5427C17.0555 13.787 19.1054 12.3929 21.3654 11.4414C23.6254 10.49 26.0505 10 28.5 10C30.9495 10 33.3746 10.49 35.6346 11.4414C37.8946 12.3929 39.9445 13.787 41.6653 15.5427C43.3862 17.2985 44.7438 19.381 45.6593 21.6694C46.5748 23.9578 47.03 26.4065 46.9985 28.8735C46.9985 29.0646 46.9985 29.2527 46.9985 29.4439L46.9832 29.9835L46.9985 30.1254C46.9985 30.1932 46.9985 30.2641 46.9985 30.3351V53.921C46.9985 54.0493 46.9862 54.1774 46.9617 54.3033L46.9403 55.102C46.8209 59.4498 45.8658 62.1355 43.6462 64.3711L42.6237 65.401C40.0307 68.0158 35.6927 72.3913 33.1885 74.5313C32.8164 74.8434 32.3439 75.0079 31.8599 74.9938Z" fill="#073184"/>
<path d="M28.5015 64C27.9863 64.0004 27.491 63.8003 27.1198 63.4419C25.1205 61.513 22.9011 59.2835 21.4307 57.8085L20.7123 57.0847C20.4101 56.7842 20.2128 56.3937 20.1498 55.9716C20.0717 55.3777 20.0299 54.7796 20.0245 54.1806V53.7053V30.218C20.0245 30.1751 20.0245 30.1291 20.0245 30.0861L20.0459 29.7335L20 28.8442C20 28.7123 20 28.6203 20 28.5375C20.0032 26.2758 20.8997 24.1075 22.493 22.5074C24.0864 20.9073 26.2469 20.0057 28.5015 20C29.0016 20.0394 29.4685 20.2665 29.809 20.6359C30.1496 21.0054 30.3387 21.4901 30.3387 21.9933C30.3387 22.4965 30.1496 22.9812 29.809 23.3507C29.4685 23.7201 29.0016 23.9472 28.5015 23.9866C27.9066 23.9874 27.3176 24.1058 26.7683 24.3349C26.2189 24.564 25.7199 24.8995 25.2998 25.3221C24.8797 25.7447 24.5466 26.2461 24.3197 26.7978C24.0927 27.3495 23.9764 27.9407 23.9772 28.5375C23.9772 28.5774 23.9772 28.6264 23.9772 28.6908L24.0108 29.6967C24.0108 29.7641 24.0108 29.8285 24.0108 29.896L23.9833 30.2824V53.6348V54.0887C23.9833 54.3585 23.9833 54.5824 24.0077 54.7633L24.2248 54.981C25.3498 56.1096 26.9149 57.6827 28.4771 59.213C30.0392 57.6797 31.6044 56.1065 32.7294 54.978L32.9434 54.7633C32.9434 54.613 32.9617 54.4382 32.9648 54.2297L33.0198 52.3345V34.8425C32.9983 34.5676 33.0337 34.2912 33.1238 34.0306C33.2139 33.7701 33.3567 33.5311 33.5433 33.3286C33.73 33.1262 33.9563 32.9646 34.2082 32.8541C34.46 32.7436 34.7319 32.6866 35.0068 32.6866C35.2817 32.6866 35.5536 32.7436 35.8055 32.8541C36.0574 32.9646 36.2837 33.1262 36.4703 33.3286C36.6569 33.5311 36.7998 33.7701 36.8899 34.0306C36.98 34.2912 37.0154 34.5676 36.9939 34.8425V52.4235L36.9389 54.3462C36.9282 54.891 36.8863 55.4347 36.8135 55.9746C36.7497 56.3959 36.5537 56.7858 36.2541 57.0878L35.5388 57.8054C34.0683 59.2805 31.8489 61.513 29.8466 63.4419C29.4846 63.7916 29.0041 63.991 28.5015 64Z" fill="#073184"/>
</svg>
