<?xml version="1.0" encoding="utf-8"?>
<!-- Generator: Adobe Illustrator 25.0.0, SVG Export Plug-In . SVG Version: 6.00 Build 0)  -->
<svg version="1.1" id="Capa_1" xmlns="http://www.w3.org/2000/svg" xmlns:xlink="http://www.w3.org/1999/xlink" x="0px" y="0px"
	 viewBox="0 0 60 80" style="enable-background:new 0 0 60 80;" xml:space="preserve">
<style type="text/css">
	.st0{fill:#FFFFF6;}
	.st1{fill:none;}
	.st2{fill:#FFE100;}
	.st3{fill:#C79600;}
</style>
<g>
	<g>
		<polygon class="st0" points="25.8,36.2 25.8,32.2 24.4,36.2 		"/>
		<path class="st0" d="M22.3,27.1c0.3,0,0.5-0.2,0.5-0.5c0-0.3-0.2-0.5-0.5-0.5s-0.5,0.2-0.5,0.5C21.8,26.9,22,27.1,22.3,27.1z"/>
		<polygon class="st0" points="26.4,32.2 26.4,36.2 27.7,36.2 		"/>
		<polygon class="st0" points="18.2,32.2 16.8,36.2 18.2,36.2 		"/>
		<polygon class="st0" points="18.7,32.2 18.7,36.2 20.1,36.2 		"/>
		<rect x="37.6" y="27.1" class="st0" width="0.2" height="0.5"/>
		<rect x="38.1" y="27.1" class="st0" width="0.3" height="0.5"/>
		<rect x="38.6" y="27.1" class="st0" width="0.2" height="0.5"/>
		<path class="st0" d="M34.7,34.9c0.9,0,2.4-0.5,3.3-0.5c0.9,0,2.1,0.5,3.2,0.5c0.9,0,2.4-0.5,3.3-0.5c0.9,0,1.5,0.2,1.5,0.2
			c0,0,0,0,0,0c-1.5-1.3-4.7-3.8-5.1-4c-0.3-0.2-0.6-0.4-0.9-0.5v-1.5l0.2-0.2v-0.7c0-0.2-0.1-0.3-0.3-0.3c-0.2,0-0.3,0.1-0.3,0.3
			v0.6h-0.6V28H39v-0.2h-1.7V28h0.1v0.3h-0.6v-0.6c0-0.2-0.1-0.3-0.3-0.3c-0.2,0-0.3,0.1-0.3,0.3v0.7l0.2,0.2V30
			c-0.4,0.1-0.7,0.3-1.1,0.6c-0.5,0.3-4.9,3.9-5,3.9c0.3-0.1,0.7-0.1,1.1-0.1C32.4,34.4,33.6,34.9,34.7,34.9z M39.6,27.7H40v0.4
			h-0.3V27.7z M37.7,29.2c0-0.3,0.2-0.5,0.5-0.5c0.3,0,0.5,0.2,0.5,0.5v0.5c-0.2,0-0.4,0-0.6,0c-0.1,0-0.2,0-0.3,0V29.2z M36.4,28.1
			v-0.4h0.3v0.4H36.4z"/>
		<path class="st0" d="M38.2,26.2c-0.4,0-0.7,0.3-0.7,0.7h1.4C38.9,26.6,38.6,26.2,38.2,26.2z"/>
		<path class="st0" d="M28.4,50.7c-0.4,0.1-0.6-0.1-0.7-0.5c0-0.3,0-0.5,0-0.8c0-0.5,0.1-1.1,0-1.6c0-0.2,0-0.5-0.1-0.6
			c-0.2-0.3-0.6-0.4-0.9-0.2c-0.4,0.2-0.9,0.4-1.3,0.7c-0.1,0-0.1,0.1-0.2,0c-0.3-0.2-0.7-0.4-1.1-0.4c0,0,0,0,0,0c0,0,0,0,0,0
			c-0.4,0-0.7,0.1-1.1,0.4c-1.2,0.8-1.9,0.4-2.3-1c-0.5-1.7-2.3-2.5-3.9-1.7c-0.1,0-0.2,0-0.3,0c-0.2,0-0.3,0-0.5-0.1
			c0,0,0,0.2-0.1,0.2c0.1,0.1,0.3,0.3,0.3,0.3s0,0.6,0,0.8c0,0.1,0,0.1,0.1,0.2c0.2,0.1,0.2,0.3,0.2,0.5c0,0.3,0,0.5,0,0.8
			c0,0.1,0,0.3,0,0.5c0.2,0,0.7,0,0.7,0l0.8-1.8l0.2,0.1v3.8c0,0-0.9,0-1.5,0c0,0.2,0,0.5,0,0.5l0.4,1.9c0,0,0.6,0.5,0.9,0.7
			c0,0,0.1,0,0.1,0.1c0-0.3,0-0.9,0-0.9h-0.5c0,0-0.2-0.8-0.3-1.1c-0.1-0.3,0.1-0.5,0.4-0.5c0.2,0,1.4,0,1.4,0
			c0.4,0.9,0.7,2.1,1.1,3c0,0.1,0,0.1,0,0.2c-0.1,0.2-0.2,0.4-0.3,0.6c-0.1,0.2-0.2,0.4-0.3,0.5c0.3,0,0.6,0,0.9,0
			c0.1,0,0.2,0,0.2-0.1c0-0.1,0.1-0.3-0.1-0.4c-0.2-0.1-0.1-0.2,0-0.3c0.1-0.1,0.2-0.1,0.3-0.1c-0.1-0.3-0.5-2.2-0.5-2.2V51h2
			c0,0,0.8,0.8,1.2,1.1c0.1,0.1,0.2,0.3,0,0.4c-0.1,0.1-0.6,0.5-0.8,0.7c-0.2,0.2-0.4,0.3-0.4,0.7c0,0.3-0.1,0.7-0.1,1.1
			c0.3-0.2,0.5-0.3,0.8-0.5c-0.1-0.2-0.1-0.4-0.2-0.6c0.2-0.1,1.6-1.1,1.9-1.3c0.1-0.1,0-0.4-0.1-0.6c-0.2-0.2-0.5-0.5-0.5-0.5
			l0.1-0.1c0,0,1,0.5,1.4,0.8c0.6,0.5,0.9,1.1,0.7,1.8c-0.1,0.4-0.3,0.8-0.4,1.1c0,0.1,0,0.1-0.1,0.2c0.3,0,0.5,0,0.7,0
			c0.4,0,0.4,0,0.4-0.4c0,0,0-0.1-0.1-0.1c-0.1-0.1-0.2-0.2,0-0.3c0.1-0.1,0.2-0.1,0.2-0.1s-0.4-1.8-0.5-2.4c0-0.1-0.3-0.4-0.3-0.4
			l-1.2-1.1c0,0-0.1-0.1,0-0.1c0.1-0.1,0.2-0.2,0.2-0.3c0.2-0.3,0.4-0.7,0.4-1.1c0-0.3-0.1-0.6-0.2-0.8c0,0,0-0.1,0.1-0.1
			c0.2-0.2,0.6-0.3,0.8-0.1c0.2,0.1,0.2,0.3,0.2,0.6c0,0.5,0,1,0,1.5c0,0.2,0,0.5,0.1,0.7c0.1,0.3,0.4,0.4,0.7,0.4
			C27.9,51.2,28.2,51,28.4,50.7C28.5,50.7,28.4,50.7,28.4,50.7z"/>
		<path class="st0" d="M8.3,50.6c0.2-0.1,0.2-0.1,0.2-0.2c0-0.1-0.1-0.1-0.2-0.1c0,0-0.1,0-0.2,0c-0.1,0-0.2,0.1-0.2,0.2v0l0,0
			c0,0,0,0.1,0,0.1c0,0,0.1,0,0.2,0C8.2,50.6,8.3,50.6,8.3,50.6z"/>
		<path class="st0" d="M5.7,39.8c0,0,0.1,0,0.1-0.1c0.1,0,0.1-0.1,0.1-0.2l0,0c0,0,0,0-0.1,0c0,0-0.1,0-0.1,0
			c-0.1,0-0.1,0.1-0.1,0.1c0,0.1-0.1,0.1-0.1,0.2C5.5,39.8,5.6,39.8,5.7,39.8z"/>
		<path class="st0" d="M7.1,45c0,0-0.1,0-0.1,0c0,0,0,0,0,0l0,0l0,0c0,0.1,0,0.1,0.1,0.2c0.1,0,0.1,0,0.1,0c0.1,0,0.2,0,0.2,0
			c0,0,0-0.1-0.1-0.2C7.2,45.1,7.1,45.1,7.1,45z"/>
		<path class="st0" d="M13.7,62.1c-0.1,0-0.2,0-0.3,0.1l0,0l0,0c0,0.1,0.1,0.2,0.2,0.2c0.1,0,0.2,0,0.2,0c0.2,0,0.3-0.1,0.3-0.1
			c0-0.1-0.1-0.2-0.2-0.2C13.9,62.2,13.8,62.1,13.7,62.1z"/>
		<path class="st0" d="M8.2,58.4c0.1,0,0.1,0,0.2-0.1c0.1,0,0.2-0.2,0.1-0.3l0,0c0,0-0.1-0.1-0.2-0.1c0,0-0.1,0-0.1,0
			c-0.1,0-0.1,0.1-0.2,0.1C8,58.2,7.9,58.2,8,58.3C8,58.3,8,58.4,8.2,58.4z"/>
		<path class="st0" d="M7.9,51.3L7.9,51.3L7.9,51.3L7.9,51.3c-0.1,0-0.2,0.2-0.1,0.3c0,0.1,0.1,0.1,0.1,0.2C7.9,52,8,52,8,52
			c0,0,0.1,0,0.1-0.2c0,0,0,0,0,0c0,0,0-0.1,0-0.2C8.1,51.4,8,51.3,7.9,51.3z"/>
		<path class="st0" d="M8,29.6c0,0,0.1,0.1,0.2,0.1l0,0c0,0,0-0.1,0-0.2c0-0.1-0.1-0.1-0.1-0.1C8,29.3,8,29.3,8,29.3c0,0,0,0,0,0
			c0,0,0,0.1,0,0.2C7.9,29.5,8,29.5,8,29.6z"/>
		<path class="st0" d="M7.9,36.6L7.9,36.6c0-0.1,0-0.2,0-0.2c0,0-0.1,0-0.2,0.1c0,0-0.1,0.1-0.1,0.1c0,0.1,0,0.2,0,0.2l0,0l0,0l0,0
			c0.1,0,0.2,0,0.2-0.1C7.9,36.7,7.9,36.7,7.9,36.6z"/>
		<path class="st0" d="M9.2,31.2c0.1,0,0.1,0.1,0.2,0.1c0,0,0-0.1,0-0.2c0,0,0-0.1-0.1-0.1c0,0-0.1-0.1-0.1-0.1c0,0,0,0,0,0l0,0l0,0
			c0,0,0,0.2,0,0.2C9.1,31.1,9.1,31.2,9.2,31.2z"/>
		<path class="st0" d="M9.5,30.6c0.1,0.1,0.1,0.1,0.1,0.1c0.2,0.1,0.2,0,0.2,0c0,0,0-0.1-0.1-0.2l0,0c0,0,0-0.1-0.1-0.1
			c-0.1,0-0.2-0.1-0.2,0l0,0l0,0l0,0C9.4,30.4,9.5,30.5,9.5,30.6z"/>
		<path class="st0" d="M7.3,43.9c0,0-0.1,0-0.2,0.1c0,0-0.1,0.1-0.1,0.1c0,0.1,0,0.2,0,0.2l0,0l0,0l0,0c0.1,0,0.2,0,0.2-0.1
			c0-0.1,0-0.1,0-0.1l0,0C7.3,44,7.3,43.9,7.3,43.9z"/>
		<path class="st0" d="M48.5,60.1L48.5,60.1c0.1-0.1,0.2-0.2,0.1-0.4c0-0.1-0.1-0.2-0.2-0.3c0,0-0.1,0-0.1,0c0,0,0,0,0,0
			c-0.1,0-0.2,0.2-0.2,0.4C48.3,60,48.4,60.2,48.5,60.1z"/>
		<path class="st0" d="M7.7,37.5c0,0-0.1,0-0.1,0c0,0,0,0,0,0l0,0l0,0c0,0.1,0,0.2,0.1,0.2c0.1,0,0.1,0.1,0.1,0.1c0.1,0,0.2,0,0.2,0
			c0,0,0-0.1-0.1-0.2C7.8,37.6,7.7,37.5,7.7,37.5z"/>
		<path class="st0" d="M10,57.6c0.1,0.1,0.1,0.2,0.1,0.2c0.2,0.2,0.3,0.2,0.3,0.1c0,0,0.1-0.1,0-0.3c0,0,0,0,0,0c0,0,0-0.1-0.1-0.2
			c-0.1-0.1-0.2-0.2-0.3-0.2l0,0l0,0l0,0C10,57.3,9.9,57.5,10,57.6z"/>
		<path class="st0" d="M50.4,26.4L50.4,26.4c0.1,0,0.3-0.1,0.3-0.3c0-0.2,0-0.4-0.1-0.4c-0.1,0-0.1,0-0.1,0c-0.1,0-0.2,0.1-0.2,0.3
			C50.2,26.2,50.2,26.4,50.4,26.4z"/>
		<path class="st0" d="M52.7,48.9L52.7,48.9L52.7,48.9c0.2-0.1,0.2-0.4,0.1-0.6c-0.1-0.1-0.2-0.3-0.3-0.3c0,0-0.1,0-0.1,0
			c0,0-0.1,0-0.1,0c-0.2,0.1-0.2,0.4-0.1,0.6C52.3,48.8,52.5,48.9,52.7,48.9z"/>
		<path class="st0" d="M54.4,41.2c0.2,0.1,0.4,0,0.5-0.2c0.1-0.2,0.2-0.5,0-0.6c-0.1,0-0.1,0-0.2,0c-0.1,0-0.3,0.1-0.3,0.2
			C54.3,40.8,54.3,41.1,54.4,41.2L54.4,41.2L54.4,41.2z"/>
		<path class="st0" d="M53.6,35.1c0.1,0.1,0.3,0,0.4-0.2c0.1-0.2,0.2-0.4,0-0.5c-0.1,0-0.1,0-0.2,0c-0.1,0-0.2,0.1-0.3,0.2
			C53.5,34.8,53.4,35,53.6,35.1L53.6,35.1L53.6,35.1z"/>
		<path class="st0" d="M54.6,46.3c-0.2,0.1-0.3,0.3-0.2,0.5l0,0l0,0c0.1,0.1,0.3,0.1,0.5,0c0.2-0.1,0.3-0.3,0.2-0.5
			c0-0.1-0.1-0.1-0.2-0.1C54.8,46.2,54.7,46.2,54.6,46.3z"/>
		<path class="st0" d="M54.2,44.8l-0.1,0.1c0.4-0.2,1.6-0.7,2.6-1.9c2.4-2.9,2.6-5.4,2.3-5.8c0-0.1-0.1-0.1-0.2-0.1c0,0,0,0,0,0
			c-0.3,0-0.8,0.5-1.1,0.8l-0.1,0.1c-0.3,0.3-2.3,3.1-2.9,5.1C54.5,44.1,54.3,44.6,54.2,44.8z"/>
		<path class="st0" d="M52.4,30.3c-0.1,0-0.1,0.1-0.2,0.1c-0.1,0.1-0.1,0.3,0,0.3l0,0c0.1,0,0.2,0,0.2-0.1
			C52.5,30.5,52.5,30.4,52.4,30.3C52.4,30.3,52.4,30.3,52.4,30.3z"/>
		<path class="st0" d="M48.4,32.2c0.1,0.2,0.4,0.9,1.1,1.7c0.6,0.8,1.3,1.3,1.9,1.7c0.2,0.1,0.3,0.2,0.5,0.3c0.5,0.3,0.8,0.7,1,0.8
			l-0.1-0.1c-0.2-0.5-0.9-1.9-1.8-2.9C50,32.5,48.7,32.3,48.4,32.2z"/>
		<path class="st0" d="M52.4,37.2c0,0-0.1,0-0.1,0.1c-0.1,0.1-0.1,0.3,0.1,0.5c0.1,0.2,0.4,0.2,0.5,0.1l0,0l0,0
			c0.1-0.1,0-0.3-0.1-0.5C52.6,37.2,52.5,37.2,52.4,37.2C52.4,37.2,52.4,37.2,52.4,37.2z"/>
		<path class="st0" d="M53.1,43.8L53.1,43.8c0.1-0.1,0-0.3-0.1-0.5c-0.1-0.1-0.2-0.1-0.3-0.1c0,0,0,0,0,0c0,0-0.1,0-0.1,0.1
			c-0.1,0.1,0,0.3,0.1,0.4C52.8,43.9,53,43.9,53.1,43.8z"/>
		<path class="st0" d="M51.7,33L51.7,33c0.1-0.2,0-0.3-0.2-0.4c-0.1-0.1-0.2-0.1-0.2-0.1c0,0,0,0-0.1,0c0,0-0.1,0-0.1,0.1
			c-0.1,0.1,0,0.3,0.2,0.4C51.4,33.1,51.6,33.1,51.7,33z"/>
		<path class="st0" d="M50.9,30.3L50.9,30.3c0-0.1,0-0.2-0.2-0.3c-0.1,0-0.1-0.1-0.2-0.1c0,0,0,0-0.1,0c0,0-0.1,0-0.1,0.1
			c0,0.1,0,0.2,0.2,0.3C50.7,30.4,50.9,30.3,50.9,30.3z"/>
		<path class="st0" d="M48.4,25.8L48.4,25.8c0-0.1-0.1-0.2-0.3-0.2c-0.1,0-0.2,0.1-0.2,0.2c0,0.1,0.1,0.2,0.2,0.2
			C48.3,25.9,48.4,25.8,48.4,25.8z"/>
		<path class="st0" d="M50.4,60.1L50.4,60.1L50.4,60.1c0.1,0.2,0.4,0.3,0.6,0.2c0.3-0.1,0.4-0.3,0.4-0.5c0-0.1-0.1-0.1-0.2-0.2
			c-0.1-0.1-0.3-0.1-0.4,0C50.6,59.7,50.4,59.9,50.4,60.1z"/>
		<polygon class="st0" points="8.2,27 8.3,27.4 8.8,28.2 8.9,28.5 9,29 9,28.6 8.9,28.2 9.1,27.8 9.4,27.4 9.7,26.7 9.8,26.1 
			9.9,25.6 9.8,25 9.8,24.5 9.7,24 9.6,23.5 9.4,22.9 9.1,22.3 9,22.5 8.7,23.1 8.6,23.5 8.3,24.5 8.2,25 8.1,26.1 8.1,26.5 		"/>
		<path class="st0" d="M8.7,58.6c-0.1,0-0.2,0.2-0.2,0.3c0,0.1,0,0.1,0,0.2c0,0,0,0,0,0c0.1,0.2,0.2,0.2,0.2,0.2c0,0,0.1,0,0.2-0.2
			c0-0.1,0-0.1,0-0.2c0-0.1,0-0.2-0.1-0.2C8.8,58.6,8.8,58.6,8.7,58.6C8.8,58.6,8.8,58.6,8.7,58.6L8.7,58.6L8.7,58.6L8.7,58.6z"/>
		<path class="st0" d="M46.6,55.7C46.6,55.7,46.5,55.7,46.6,55.7c-0.1,0-0.1,0-0.2,0c-0.4,0.2-1.5,2.1-1.2,5.5
			c0.1,1.4,0.6,2.4,0.8,2.7l0,0.1l0.1-0.4c0.1-0.3,0.2-0.8,0.4-1.4c0.5-1.8,0.5-4.8,0.4-5.2l0-0.1C46.9,56.5,46.8,55.9,46.6,55.7z"
			/>
		<path class="st0" d="M44.8,64.5c0-0.3-0.1-0.5-0.3-0.6c0,0,0,0,0,0c-0.1,0-0.1,0-0.2,0.1c-0.1,0.1-0.2,0.2-0.2,0.4
			c0,0.3,0.1,0.5,0.3,0.6l0,0l0.1,0C44.6,65,44.7,64.8,44.8,64.5z"/>
		<path class="st0" d="M12.6,64.6c0,0.1,0,0.2,0,0.2c0,0.3,0.1,0.3,0.1,0.3c0.1,0,0.2-0.1,0.3-0.2c0-0.1,0.1-0.1,0.1-0.2
			c0-0.1,0-0.3-0.1-0.3l-0.1,0c0,0,0,0,0,0c0,0-0.1,0-0.1,0C12.7,64.5,12.6,64.5,12.6,64.6z"/>
		<path class="st0" d="M52.6,54.5l-0.4,0.7c0.2-0.1,0.8-0.3,1.6-0.8c1.1-0.7,2.4-1.5,3.5-2.7c1.1-1.1,1.4-2,1.5-2.2
			c-0.3,0-1.8,0.1-3.5,1.6C54.1,52.3,53.2,53.6,52.6,54.5z"/>
		<path class="st0" d="M56.1,55.5L56.1,55.5c-0.4,0.1-2.9,1.3-4.2,2.2c-0.4,0.3-0.7,0.5-1,0.7l-0.3,0.2l0.1,0
			c0.3,0.1,0.7,0.2,1.3,0.2c0.4,0,0.8,0,1.1-0.1c2.9-0.6,4-2.5,4.1-3c0-0.1,0-0.1-0.1-0.1C57,55.4,56.4,55.5,56.1,55.5z"/>
		<polygon class="st0" points="21.3,66.9 21.3,66.2 21.3,65.6 21.1,65.1 20.9,64.3 20.6,63.6 19.8,62.7 18.6,61.7 18.4,62.9 
			18.4,63.9 18.4,64.9 18.7,66.4 19.7,67.9 20.2,68.3 20.7,69 20.7,68.6 21.2,67.4 		"/>
		<path class="st0" d="M11.6,64.4C11.6,64.4,11.6,64.4,11.6,64.4c0.1,0,0.2,0.1,0.3,0c0.1,0,0.3-0.1,0.3-0.3l0,0h0l0,0
			c0-0.1,0-0.1-0.1-0.1c-0.1-0.1-0.2-0.1-0.3-0.1c0,0,0,0,0,0c-0.1,0-0.2,0-0.2,0c-0.3,0.1-0.3,0.2-0.3,0.2
			C11.3,64.2,11.3,64.3,11.6,64.4z"/>
		<path class="st0" d="M41.9,68.7L41.9,68.7c0,0.2,0.2,0.2,0.4,0.2c0.2,0,0.3-0.1,0.3-0.2c0-0.1-0.2-0.2-0.3-0.2
			C42.1,68.5,41.9,68.6,41.9,68.7z"/>
		<path class="st0" d="M47.7,64c-0.2,0-0.4,0.2-0.4,0.3v0l0,0.1c0,0.1,0.2,0.2,0.4,0.2c0.2,0,0.4-0.2,0.3-0.3c0-0.1-0.1-0.1-0.1-0.1
			C47.9,64,47.8,63.9,47.7,64z"/>
		<path class="st0" d="M49,24.5c0.1,0.2,0.1,0.3,0.2,0.4c0.1,0.2,0.1,0.4,0.2,0.6l0.1,0.4c0.1-0.5,0.2-1.7,0.1-2.9
			c-0.2-1.3-0.9-2-1.1-2.2c0,0.2-0.1,0.8,0,1.6C48.5,23.3,48.7,23.9,49,24.5z"/>
		<polygon class="st0" points="3.6,58.7 3.6,58.7 3.6,58.7 		"/>
		<path class="st0" d="M53,34.2l-0.1,0.3c0.4-0.5,1.2-1.6,1.6-3.1c0.5-1.8,0.4-3.5,0.4-4.3l0-0.1c0-0.1,0-0.1,0-0.2
			c0-0.3-0.1-0.4-0.1-0.4c0,0,0,0,0,0c0,0-0.1,0.1-0.2,0.1l0,0c-0.2,0.2-1,1.7-1.4,3.1C52.9,30.6,53,32.1,53,33c0,0.4,0,0.7,0,0.9
			C53,34,53,34.1,53,34.2z"/>
		<path class="st0" d="M51.6,29.7l0,0.4c0.2-0.6,0.6-1.8,0.8-3.4c0.1-0.9,0-2.7-0.8-3.5c-0.4,1.9-0.5,4.1-0.2,5.4
			C51.5,29,51.6,29.4,51.6,29.7z"/>
		<path class="st0" d="M52.3,56.2c0.1,0.1,0.3,0.1,0.5,0c0.2-0.1,0.3-0.3,0.2-0.5c0-0.1-0.1-0.1-0.2-0.1c-0.1,0-0.2,0-0.3,0.1
			C52.3,55.8,52.2,56,52.3,56.2L52.3,56.2L52.3,56.2z"/>
		<path class="st0" d="M52.8,60.5c-1.3,0.2-2.2,0.8-3,1.3c-0.2,0.1-0.4,0.3-0.6,0.4c-0.3,0.1-0.5,0.3-0.8,0.4l-0.4,0.2l0.3-0.4
			c0.5-0.7,1-1.4,1.5-2.1l0.1-0.1c0.3-0.5,0.6-1,0.9-1.5l0-0.1l0,0l0.2-0.3c0.3-0.5,0.5-1,0.7-1.5v0l0.1-0.3
			c0.2-0.4,0.3-0.8,0.5-1.2l0-0.1l0.3-0.8c0.5-1.3,0.8-2.7,1.1-4l0-0.1l0,0c0.9-0.5,2.6-1.5,3.9-3c1.6-1.7,1.8-3.7,1.8-4.1
			C59,43.4,58.1,44,57,45.1c-1.1,1-1.7,2.1-2.2,3l0,0c-0.1,0.2-0.3,0.5-0.4,0.7c-0.2,0.3-0.4,0.6-0.5,0.8l-0.3,0.4l0.1-0.5
			c0.1-0.6,0.2-1.2,0.2-1.8c0-0.2,0-0.5,0-0.7l0-0.1c0-0.6,0.1-1.3,0.1-1.9l0-0.3c0-1,0-2,0-2.9l0-0.3c0-0.5-0.1-1.1-0.1-1.6l0-0.1
			l0,0c0.6-0.5,1.9-2,2.8-4c1-2.3,0.5-4.7,0.4-5.1c-0.2,0.2-0.9,1.1-1.6,2.6c-0.7,1.4-0.9,2.6-1.1,3.8c-0.1,0.3-0.1,0.6-0.2,0.9
			c-0.1,0.3-0.2,0.7-0.2,1l-0.1,0.6l-0.1-0.6c-0.1-1.1-0.3-2.1-0.5-3.2c0,0,0,0,0,0l-0.1-0.3c-0.1-0.3-0.2-0.7-0.2-1l0-0.1l0,0
			l-0.1-0.3c-0.3-1-0.6-2-0.9-3l0-0.1c-0.1-0.3-0.2-0.5-0.3-0.8l0,0l0,0l-0.2-0.5c-0.1-0.1-0.1-0.3-0.2-0.4
			c-0.3-0.8-0.7-1.5-1.1-2.2l0,0l0,0l0,0c-0.2-0.3-0.4-0.6-0.6-1l0,0l0,0l-0.3-0.4c-0.6-0.7-1.2-1.3-1.8-1.8l0,0
			c-0.2-0.3-0.4-0.6-0.7-0.9c-1.5-1.3-2.6-1.4-2.8-1.4c0,0,0,0,0,0.1c0,0.1,0.2,0.4,0.4,0.5l0,0c0.2,0.2,1.4,1.2,2.4,1.6
			c0.5,0.2,0.8,0.3,0.9,0.4c0.5,0.5,1,1,1.4,1.5l0.2,0.2l0,0c0.5,0.6,0.9,1.3,1.3,2l0.2,0.4L50.2,28c-0.1-0.1-0.3-0.2-0.4-0.3
			c-0.1-0.1-0.2-0.2-0.3-0.3c-0.4-0.4-0.9-0.8-1.7-1.1c-0.8-0.3-1.4-0.5-1.5-0.5c0.1,0.2,0.7,1.3,1.9,1.9c1,0.5,2.1,0.6,2.5,0.7
			l0.1,0l0,0.1c0.3,0.6,0.5,1.1,0.7,1.8l0.1,0.3c0.2,0.4,0.3,0.9,0.4,1.3l0.2,0.6l-0.4-0.5c-0.3-0.4-0.9-1.1-1.7-1.8
			c-0.6-0.5-1.9-1.3-2.8-1.1c1.1,1.2,2.6,2.3,3.6,2.7c0.6,0.2,1,0.4,1.2,0.6l0,0l0,0c0.1,0.3,0.2,0.6,0.2,0.9l0.1,0.3l0,0
			c0.3,1,0.5,2,0.7,3l0.2,0.9l0,0c0,0.3,0.1,0.5,0.1,0.7l0.1,0.4l0,0c0.1,1,0.2,1.9,0.3,2.9l0,0.5l-0.2-0.5
			c-0.2-0.3-0.3-0.6-0.5-0.9c-0.1-0.2-0.2-0.4-0.3-0.6c-0.4-0.9-0.8-1.9-1.6-2.9c-0.9-1.1-1.6-1.7-1.8-1.8c0,0.4,0,2,1.2,3.7
			c1.1,1.5,2.6,2.7,3.2,3.1l0,0l0,0.1c0,0.6,0,1.3,0,1.9l0,0.1l0,0l0,0c0,0,0,0,0,0.1l0,0.1l0,0c0,0.7-0.1,1.5-0.1,2.2l0,0.5
			l-0.2-0.5c-0.1-0.3-0.2-0.6-0.3-1c-0.5-1.6-2-3.9-2.2-4.2l-0.1-0.1c-0.2-0.3-0.6-0.7-0.8-0.7c0,0-0.1,0-0.1,0.1
			c-0.2,0.4,0,2.4,1.8,4.8c0.7,0.9,1.4,1.4,1.8,1.6l0.1,0l0,0.1c-0.1,0.6-0.1,1.1-0.2,1.6c0,0.2-0.1,0.4-0.1,0.5l0,0.2c0,0,0,0,0,0
			l0,0.1l0,0c-0.2,1.3-0.6,2.6-0.9,3.8L52,53.9l-0.1-0.4c-0.1-0.5-0.2-1-0.2-1.6c0-1.7-0.8-4.3-2.1-6.5c-0.9,1.3-0.5,3.5,0,4.6
			c0.8,1.9,1.8,3.2,2.3,3.9l0,0l0,0.1c-0.6,1.7-1.3,3.3-2.1,4.7L49.8,59l0-0.4c0-0.4,0-0.7,0-1.1c0-0.3,0-0.5,0-0.8
			c0-1,0.1-2.2-0.3-3.6c-0.4-1.6-0.9-2.5-1-2.7c-0.2,0.3-1,2-0.5,4.3c0.4,1.9,1.2,3.6,1.7,4.5l0,0.1l0,0.1c-0.2,0.4-0.5,0.8-0.8,1.2
			l-0.1,0.2l0,0c-0.7,1-1.5,2-2.3,2.9L46.1,64l0,0L46,64c-0.5,0.5-1.8,1.7-1.8,1.8l0,0v0c-0.3,0.3-0.6,0.5-0.9,0.7
			c-0.2,0.2-1,0.8-1,0.8l0.1-0.3c0.1-0.3,0.2-0.7,0.3-1c0.1-0.2,0.2-0.5,0.2-0.7c0.3-1,0.7-2.1,0.8-3.5c0.1-1.7-0.1-2.8-0.1-2.9
			c0,0.1-1.5,1.3-1.7,3.9c-0.2,1.8,0,3.7,0.2,4.6l0,0.1c-1.1,0.8-3.6,2.1-3.6,2.1l0.1-0.3c0.1-0.3,0.3-0.6,0.6-1.1
			c0.9-1.4,1.4-4.2,1.4-4.6l0-0.1c0-0.4,0-1-0.2-1.2c0,0-0.1-0.1-0.2-0.1c-0.5,0-1.9,1.5-2.3,4.6c-0.1,1.2,0.2,2.1,0.3,2.6l0,0.1
			c0,0-0.4,0.2-0.6,0.3c-1,0.4-2,0.8-3.2,1.2L34.4,71c0.6-0.3,1.2-0.7,1.6-1c1.3-1,1.3-2,1-2.7l-1.4-1.4c0,0-0.1-0.1-0.1-0.1
			c-0.2-0.2-0.4-0.4-1-0.3c-2,0.6-3.3,1.7-3.8,3.4c-0.3,0.8-0.3,1.8-0.4,2.3l0,0.1H30l0-0.1c0-0.5-0.1-1.5-0.4-2.3
			c-0.5-1.7-1.8-2.8-3.8-3.4c-0.6-0.2-0.8,0.1-1,0.3c0,0-0.1,0.1-0.1,0.1l-1.4,1.4C23,68,23,69,24.3,70c0.9,0.7,2,1.3,2.8,1.6
			L27,71.8c-2-0.6-4.1-1.5-6.1-2.6l0,0l-0.5-0.3c-1.3-0.7-2.4-1.5-3.5-2.3c-0.1,0-0.1-0.1-0.2-0.1l-0.1-0.1l0-0.6l0.2-0.3l0.2-0.8
			l0.1-0.4l0.1-0.5l0-0.4c0-0.4,0-0.6,0-0.7c0-0.1-0.1-0.6-0.1-0.8l-0.2-0.9l-0.3-0.8l-0.7-1.1l-1-0.9l0,0.5l-0.1,0.4L14.5,60
			l-0.2,1.1l0,0.9l0.2,0.8l0.4,0.9l0.2,0.4l0.3,0.4l0.2,0.4l0.4,0.4l0.3,0.4l0,0.5l-0.2-0.1c-1.3-1.1-2.6-2.4-3.6-3.7L12,61.5
			l0.2-0.8l0.2-0.3l0.4-0.7l0.2-0.4l0.2-0.5l0.1-0.4c0.1-0.4,0.2-0.6,0.2-0.7c0-0.1,0.1-0.6,0.1-0.8l0.1-0.9l-0.1-0.9l-0.4-1.3
			l-0.5-0.8l-0.5,0.5l-0.4,0.8l-0.5,1l-0.2,0.9l0,0.8l0.2,1l0.1,0.5l0.2,0.4l0.1,0.4l0.3,0.5l0.2,0.5l-0.2,0.7l-0.1-0.2
			c-0.8-1.1-1.5-2.3-2.1-3.5l-0.1-0.2l0,0c-0.1-0.2-0.2-0.4-0.3-0.6l0,0c0,0,0,0,0,0l0-0.1C9.1,56.5,9,56.3,8.9,56l0,0l0.3-0.7
			l1-0.8l0.3-0.5l0.3-0.6l0.2-0.6l0.1-0.5l0.2-0.9l0-0.8l0-0.5l0-1l0-0.6l-0.1-1l-0.1-0.3L10.4,48L10,48.6l-0.4,0.7L9.2,50L9,50.6
			l-0.3,0.8l-0.2,0.8l-0.1,0.8l0.2,1.2l0.2,0.6l0.1,0.6l-0.2,0.4l-0.1-0.2c-0.6-1.4-1-3-1.4-4.5l-0.3-1.8l0.5-0.6l1-0.5l0.4-0.4
			l0.4-0.5l0.3-0.5l0.2-0.5l0.4-0.8l0.2-0.7l0.1-0.5l0.1-0.9l-0.1-0.7l-0.6,0.3L9,43.4l-0.6,0.8l-0.8,1.3l-0.4,1.9l0,0.6l-0.1,0.6
			L6.9,49l0-0.3c-0.2-1.2-0.3-2.5-0.4-3.8l0-0.3l0,0c0-0.3,0-0.9,0-0.9l0,0l0.6-0.8l0.3-0.4l0.3-0.1L8.3,42l0.3-0.2L9,41.3l0.2-0.3
			c0.2-0.3,0.4-0.5,0.4-0.5c0-0.1,0.3-0.5,0.4-0.6l0.4-0.7l0.2-0.8l0.1-1.3l-0.2-1.2L10,36.2l-0.3,0.3L9.1,37l-0.7,0.7l-0.5,0.7
			l-0.2,0.7l-0.1,0.6l-0.1,0.3l-0.1,0.5l0,0.4l0,0.4L7.4,42l0,0.5l-0.6,0.8l-0.3,0.3l0-0.2c0-2,0.6-6.4,0.6-6.4
			c0.1-0.5,0.2-0.9,0.3-1.4l0,0L7.9,35l0.3,0l0.6-0.2L9,34.7l0.3-0.2l0.2-0.2C9.8,34.1,9.9,34,10,34c0-0.1,0.3-0.3,0.4-0.4l0.4-0.5
			l0.3-0.6l0.3-1l0.1-1l-0.3,0.2L11,30.8l-0.6,0.3l-0.8,0.4L9.1,32l-0.4,0.5l-0.4,0.7l-0.1,0.4l-0.1,0.3L8,34.2L7.9,35l-0.5,0.3
			c0,0,0.8-3.4,1.4-4.9c0,0,0.4-1,0.5-1.2l0,0l0.6-0.3l0.9,0.1l0.4-0.1l0.5-0.2l0.4-0.2l0.8-0.6l0.6-0.7l0.2-0.5l0.3-0.6l-0.5-0.1
			l-0.8,0l-0.7,0.3L11,27L10.2,28L10,28.5l-0.2,0.4L9.3,29l0.1-0.3c0.6-1.2,1.3-2.3,2.1-3.4l0,0l0.7-0.1l0.3-0.1l0.4-0.1l0.3-0.1
			l0.2-0.1l0.4-0.3l0.5-0.4l0.4-0.5l0.4-0.8l0.2-0.6l0.1-0.3l0.2-0.3l-1,0.1L13.8,22l-0.6,0.3l-0.5,0.5c0,0-0.3,0.4-0.3,0.4
			c0,0-0.1,0.1-0.3,0.4l-0.2,0.2l-0.2,0.3l-0.1,0.3l-0.2,0.6l0,0.2l0,0c-0.9,1.1-1.6,2.3-2.2,3.4L9,29.2C9,29.2,8.6,30,8.6,30
			c-0.4,1.1-0.8,2.3-1.1,3.4l-0.1,0.4l-0.2-0.9l0.1-0.5l0.2-0.6l0.2-1.7l-0.3-1.4l-0.7-1.2l-0.4-0.4l-0.6-0.5l-0.2,0.9l-0.2,1.1
			l0,0.7l0.2,1.3l0.2,0.5l0.3,0.6l0.2,0.4L7,32.9l0.1,0.3l0.2,0.9l0,0c0,0,0,0,0,0c-0.4,1.4-0.6,2.7-0.8,4.2l0,0.3l-0.6-0.9l0.1-0.5
			l0.1-0.5l0-0.4l0-0.5l0-0.4l0-0.3l-0.1-0.6l-0.2-0.7l-0.4-0.7l-0.7-0.8l-0.6-0.5l-0.3-0.3l-0.3-0.4l-0.3,1.2l0,1.2l0.1,0.8
			l0.3,0.7c0,0,0.3,0.5,0.3,0.6c0,0,0.1,0.2,0.3,0.5l0.2,0.3l0.3,0.4l0.3,0.3l0.6,0.4l0.3,0.2l0.7,0.9l-0.1,0.7
			c-0.2,1.5-0.2,3-0.2,4.7l0,0.3l-0.4-0.5l-0.1-0.6l0.1-0.7l-0.1-1.3l-0.3-0.8l-0.4-0.8L4.4,39L4,38.4l-0.6-0.6l-0.5-0.6l-0.6-0.5
			L1.4,36l0,0.4l0.1,1.1L1.6,38l0.2,1L2,39.6l0.3,0.8l0.7,1.4l0.4,0.5l0.5,0.6l0.4,0.4l1.2,0.6l0.6,0.8c0,0,0.1,2.1,0.2,3.1
			c0,0.6,0.1,1.2,0.2,1.9l0,0.3L6,49.4l-0.2-0.6l-0.1-0.7l-0.3-1.2L5,46.2l-0.5-0.7L3.9,45l-0.5-0.4L2.7,44l-0.7-0.4l-0.7-0.4
			l-0.6-0.3l0.1,1.3L1,44.9l0.3,0.7l0.2,0.5l0.4,0.7l0.9,1.2l0.5,0.4l0.6,0.4l0.5,0.3l1.4,0.3l0.3,0.3l0.6,0.5l0,0
			c0.4,2.3,1.2,4.7,2.2,6.8L9,57.5l-1.1-0.8l-0.1-0.6l-0.1-0.7l-0.2-0.4l-0.2-0.5l-0.2-0.5l-0.2-0.3l-0.4-0.6l-0.5-0.7L5,51.9
			l-1.1-0.5L3,51l-0.4-0.2l-0.5-0.3L2.3,52l0.6,1.4l0.5,0.8l0.7,0.7c0,0,0.5,0.4,0.6,0.5c0,0.1,0.3,0.2,0.6,0.4l0.4,0.3l0.5,0.3
			l0.4,0.2l0.8,0.2l0.4,0.1l0.5,0.3L9,57.7l0.1,0.1h0l0.1,0.2c0.1,0.2,0.2,0.4,0.3,0.6c0.7,1.4,1.6,2.7,2.5,3.9l0.2,0.3l-0.7-0.2
			l-0.4-0.5l-0.4-0.6l-0.8-1L9.2,60l-0.7-0.4l-0.8-0.3l-0.6-0.2L6.3,59l-0.8-0.1l-0.8-0.1l-1.1,0L3.8,59l0.7,0.8l0.4,0.4l0.7,0.7
			l0.4,0.3l0.7,0.5l1.3,0.7l0.6,0.2l0.7,0.2l0.6,0.1l1.3-0.2l1.1,0.3l0.1,0c0.1,0.2,0.3,0.4,0.4,0.5l0.2,0.2c1.2,1.4,2.6,2.7,4,3.7
			l0.5,0.3l-1.5,0.1l-0.5-0.4L15.1,67l-0.4-0.2l-0.5-0.3l-0.5-0.3L13.2,66l-0.8-0.3l-0.9-0.3l-1.1,0l0,0l-1.3,0.3l-1,0.3l-0.5,0.1
			l-0.6,0l1.2,1.2l1.4,0.9l1,0.4l1.1,0.2c0,0,0,0,0,0c0,0,0.8,0,0.9,0.1c0,0,0.1,0,0.2,0c0.2,0,0.5,0,0.6,0l0.5,0l0.6-0.1l0.5-0.1
			l0.4-0.2l0.5-0.2l0.4-0.2l0.7,0l0.9-0.1l0,0c1.7,1.2,3.1,2,4.5,2.7l0.3,0.2L22,70.9l-0.7-0.1L21,70.6l-0.8-0.4l-0.4-0.1l-0.6-0.1
			l-0.4,0c-0.5-0.1-0.7-0.1-0.8-0.1c-0.1,0-0.7,0-0.9,0l-1,0.1l-0.9,0.3l-1.3,0.7L12.6,72l0.6,0.1l0.5,0.1l1,0.4l1.2,0.3l1,0.1
			l0.9-0.2l0.7-0.2l0.4-0.1l0.5-0.2l0.5-0.3l0.4-0.2l0.5-0.4l0.5-0.4l1.2,0.2l0.4-0.1l0,0l0,0l0,0c1.4,0.6,2.8,1.2,4.4,1.7l0.5,0.1
			l-0.5,0.1c-0.7,0.1-1.6,0.3-2.5,0.6l-0.1,0l0-0.1c-0.1-0.1-0.1-0.2-0.2-0.3c-0.4,0.1-2,0.6-2.5,0.8c0,0.2,0,0.4-0.1,0.6l0,0.1
			l-0.2,0.1c-0.6,0.3-0.6,0.4-0.6,0.5c0,0.2-0.1,0.4-0.2,0.6c-0.1,0.2-0.1,0.3-0.1,0.4c0.1,0.1,0.2,0,0.3-0.1
			c0.1-0.1,0.3-0.1,0.4-0.2l0.2-0.1l0,0.2c-0.2,1.1-0.4,2.4-0.7,3.5c1-0.9,1.4-1.1,1.4-1.1l0.1,0l1,1.2c0-0.4,0.1-1.2,0.2-2.2
			l0.1-0.7l0.1,0.7c0.3,0.9,0.5,0.9,1,0.9c0.4,0,1.5-0.1,1.7-0.2c0.4-0.3,2-2.1,2.7-3.6l0-0.1l0.1,0c0.3,0.1,0.7,0.1,1.2,0l0.1,0
			l0,0.1c0.8,1.3,2.2,3.1,2.6,3.4h2c0.1,0,0.1,0,0.2,0l0.1-0.1l0,0.1c0.1,0.7,0.1,1.1,0.1,1.4l1.1-1.2l0.1,0c0,0,0.4,0.2,1.3,1.1
			c-0.2-1.1-0.5-2.2-0.8-3.1l-0.2-0.6l0.2,0.1c0.2,0.1,0.4,0.2,0.4,0.2c0.1,0.1,0.3,0.2,0.3,0.1c0.1,0,0-0.1,0-0.3
			c0-0.2-0.1-0.4-0.1-0.7c0,0,0,0,0,0c-0.1-0.1-0.3-0.2-1.2-0.5l-0.1,0l0-0.1c0-0.1,0-0.3,0-0.4c-0.4-0.2-1.6-0.6-2-0.8
			c0,0.1-0.1,0.2-0.1,0.3l0,0.1l-0.1,0c-1-0.3-2-0.6-2.9-0.9l-0.4-0.1l0.4-0.1c2-0.6,3.9-1.3,5.6-2l0.1,0c1,0.4,3,1.1,5.7,1.4
			c0.3,0,0.5,0,0.9,0c0.5,0,1.2,0,2.1-0.2c0.9-0.2,2.1-0.6,2.8-1.5c-3.1-0.8-6.8-0.9-8.9-0.3c-0.7,0.2-1.3,0.3-1.9,0.4l-0.5,0
			c0,0,2.4-1.3,3.5-1.9c0,0,1.2-0.8,1.8-1.2l0.1-0.1l0.1,0c0.4,0.2,1.4,0.5,2.6,0.5c0.2,0,0.4,0,0.6,0c3.9-0.3,6-1.9,6.1-2.4
			c0-0.1,0-0.1,0-0.2c-0.2-0.2-1-0.2-1.4-0.2h-0.1c-0.5,0-4,0.5-5.9,1.4c-0.4,0.2-0.7,0.3-1,0.5l-0.8,0.3l0.7-0.5
			c0.9-0.7,2.7-2.5,2.7-2.5c0.3-0.4,1-1.2,1-1.2l0.1,0c0.4,0,1,0.1,1.6,0.1c1,0,2-0.1,2.8-0.3c2.1-0.6,3.1-2.3,3.3-2.5
			C55.3,60.3,54.3,60.3,52.8,60.5z M28.4,73.9c-0.8,0.9-1.8,2-2.2,2.3L26,76.3l0-0.1c-0.2-0.4-0.3-0.8-0.4-1
			c-0.1-0.2-0.2-0.4-0.3-0.6l-0.1-0.1l0.1,0c0.6-0.2,1.3-0.5,1.8-0.5c0.4-0.1,0.7-0.1,1.1-0.2l0.1,0l0,0.1L28.4,73.9L28.4,73.9z
			 M29.3,71.4c-0.2,0-0.3,0.1-0.4,0.2c-0.1,0.1-0.1,0.2-0.2,0.3L28.6,72l-0.1-0.1c-0.6-0.4-2-1.5-2.5-2.3h0c-0.7-1-0.8-1.4-0.9-1.7
			l0-0.2l0.2,0.1c1,0.4,1.9,1,2.5,1.5c0.7,0.7,1.3,1.6,1.6,2l0.1,0.1L29.3,71.4z M32.1,73.9c0.5,0.1,1.4,0.4,2.4,0.7l0.1,0l-0.1,0.1
			c-0.1,0.3-0.3,0.6-0.4,1.1l0,0.1L34,76c-0.4-0.3-1.3-1.2-1.9-1.9l-0.2-0.3L32.1,73.9z M31.7,71.8l-0.1,0.1l-0.1-0.1
			c0-0.1-0.1-0.1-0.1-0.2c-0.1-0.1-0.2-0.2-0.4-0.2l-0.1,0l0.1-0.1c0.3-0.4,0.8-1.3,1.6-2c0.5-0.5,1.4-1,2.5-1.5l0.2-0.1l0,0.2
			c0,0.3-0.2,0.7-0.9,1.7C33.8,70.4,32.3,71.4,31.7,71.8z"/>
		<path class="st0" d="M38.9,20.1c-1-0.8-3.2-1.8-3.2-1.8c-1.8-0.8-3.7-1.2-5.7-1.2c-1.9,0-3.8,0.4-5.6,1.1l-0.3,0.1
			c-0.8,0.4-1.6,0.8-2.4,1.3c-0.3,0.2-0.6,0.4-0.6,0.4c-1.5,1.1-2.9,2.4-4.1,4.1c-3.4,4.5-5.3,10.5-5.3,16.9s1.9,12.4,5.3,16.9
			c3.5,4.6,8.1,7.1,13.1,7.1s9.6-2.5,13.1-7.1c3.4-4.5,5.3-10.5,5.3-16.9s-1.9-12.4-5.3-16.9C41.8,22.5,40.4,21.2,38.9,20.1
			L38.9,20.1 M23.8,17.6C23.8,17.6,23.8,17.6,23.8,17.6l-0.2,0.1 M16.2,36.3L18,31c-0.2-0.1-0.3-0.4-0.3-0.6c0-0.4,0.3-0.8,0.8-0.8
			c0.2,0,0.5,0.1,0.6,0.3h2.5c0-0.1,0.1-0.1,0.1-0.2v-1.9c-0.5-0.2-0.9-0.7-0.9-1.3c0-0.7,0.6-1.4,1.4-1.4s1.4,0.6,1.4,1.4
			c0,0.6-0.3,1.1-0.9,1.3v1.9c0.1,0,0.1,0.1,0.1,0.2h2.6c0.1-0.2,0.4-0.3,0.6-0.3c0.4,0,0.8,0.3,0.8,0.8c0,0.3-0.1,0.5-0.3,0.6
			l1.9,5.3v0.1c0,1.3-1,2.3-2.3,2.3c-1.3,0-2.3-1-2.3-2.3l0-0.2l1.9-5.3c-0.1-0.1-0.1-0.1-0.2-0.2h-2.6c-0.1,0.1-0.2,0.2-0.3,0.3v1
			c0,0.2-0.2,0.3-0.3,0.3c-0.2,0-0.3-0.2-0.3-0.3v-1c-0.1-0.1-0.2-0.2-0.3-0.3h-2.5C19,30.9,19,30.9,18.9,31l1.9,5.3v0.1
			c0,1.3-1,2.3-2.3,2.3c-1.3,0-2.3-1-2.3-2.3L16.2,36.3z M44.3,52c0,0.3-0.4,0.7-0.4,0.7s0-0.2-0.1-0.7c0-0.3,0-0.3,0.1-0.3v-1.9
			c0,0,0,0,0,0c0,0.2-0.1,0.5-0.2,0.7l-0.1,4.5c0,0,0,0-0.2,0c0,0.1,0.1,0.3-0.1,0.4c0,0-0.1,0.1-0.1,0.1h-0.7
			c0.1-0.1,0.4-0.6,0.4-1.1c0-0.5-0.5-1.8-0.6-1.5c-0.1,0.3-0.1,1.9-0.1,1.9H42V55c0,0,0,0.3-0.3,0.4h-0.6c0-0.1,0.3-0.5,0.4-0.8
			c0.1-0.4,0.1-1.1,0-1.6c-0.1-0.7-0.6-1.1-1-1.4c-0.5,0-1.1,0.1-1.8,0.5c0,0,0,0,0,0c0,0-0.8,0.5-0.9,1c-0.2,0.8-0.1,1.4,0,1.7
			c0,0.2,0,0.5,0,0.6h-0.9c0-0.1,0-0.3,0.2-0.7c0.1-0.3,0-1.5-0.1-2.1c0,0-0.1,0-0.1,0c-0.2,0-0.4,0-0.6-0.1v2.8h-0.7
			c0-0.1,0.1-0.3,0.1-0.5c0.1-0.3,0-1.2-0.4-2.1c-0.1-0.2-0.1-0.3-0.2-0.5h0c-0.4-0.5-1.4-2.6-2.5-2.8l-0.5,0.1l-0.7-0.5l0.6-1.5
			h-0.3l-0.2-0.4h0.4c-0.2-0.1-0.4-0.3-0.4-0.5c0-0.1,0.1-0.3,0.2-0.4c0,0,0,0.1,0,0.1c0,0.3,0.2,0.5,0.6,0.6c0-0.1,0.1-0.2,0.2-0.2
			h0.8c0.1,0,0.2,0.1,0.2,0.2c0.3-0.1,0.5-0.2,0.6-0.4c0.1-0.1,0.1-0.2,0.1-0.3c0.2,0.2,0.2,0.4,0.1,0.7c-0.1,0.1-0.2,0.2-0.3,0.2
			c0,0,0,0,0,0c0,0,7.4,0,8,0c0.1,0,0.5,0.1,0.7,0.1c1.2,0.5,1.4,1.7,1.4,2.4v1.9C44.1,51.7,44.3,51.7,44.3,52z M47.3,41L47.3,41
			L30,41h0v22.8c-9.5,0-17.3-10.3-17.3-22.8H30v-0.7c0.1,0,0.7-0.2,1.5-0.2c0.9,0,1.5,0.2,1.5,0.2c0,0,0.7,0.3,1.7,0.3
			c0.9,0,2.4-0.5,3.3-0.5c0.9,0,2.2,0.5,3.2,0.5c0.9,0,2.4-0.5,3.3-0.5c0.8,0,1.8,0.4,2.8,0.5C47.3,40.7,47.3,40.9,47.3,41z
			 M47.3,40.3c-0.8-0.1-1.9-0.5-2.7-0.5c-0.9,0-2.4,0.5-3.3,0.5c-0.9,0-2.2-0.5-3.2-0.5c-0.9,0-2.4,0.5-3.3,0.5
			c-0.9,0-1.5-0.2-1.5-0.2c0,0-0.7-0.3-1.7-0.3c-0.7,0-1.2,0.1-1.5,0.2v-0.8c0.1,0,0.7-0.2,1.5-0.2c0.9,0,1.5,0.2,1.5,0.2
			c0,0,0.7,0.3,1.7,0.3c0.9,0,2.4-0.5,3.3-0.5c0.9,0,2.2,0.5,3.2,0.5c0.9,0,2.4-0.5,3.3-0.5c0.8,0,1.8,0.4,2.7,0.5
			C47.3,39.6,47.3,40.1,47.3,40.3z M47.2,39.1c-0.8-0.1-1.8-0.5-2.7-0.5c-0.9,0-2.4,0.5-3.3,0.5c-0.9,0-2.2-0.5-3.2-0.5
			c-0.9,0-2.4,0.5-3.3,0.5c-0.9,0-1.5-0.2-1.5-0.2c0,0-0.7-0.3-1.7-0.3c-0.7,0-1.2,0.1-1.5,0.2V38c0.1,0,0.7-0.2,1.5-0.2
			c0.9,0,1.5,0.2,1.5,0.2c0,0,0.7,0.3,1.7,0.3c0.9,0,2.4-0.5,3.3-0.5c0.9,0,2.2,0.5,3.2,0.5c0.9,0,2.4-0.5,3.3-0.5
			c0.8,0,1.7,0.4,2.6,0.5C47.2,38.5,47.2,38.9,47.2,39.1z M47.1,38c-0.8-0.1-1.8-0.5-2.6-0.5c-0.9,0-2.4,0.5-3.3,0.5
			c-0.9,0-2.2-0.5-3.2-0.5c-0.9,0-2.4,0.5-3.3,0.5c-0.9,0-1.5-0.2-1.5-0.2c0,0-0.7-0.3-1.7-0.3c-0.7,0-1.2,0.1-1.5,0.2v-0.8
			c0.1,0,0.7-0.2,1.5-0.2c0.9,0,1.5,0.2,1.5,0.2c0,0,0.7,0.3,1.7,0.3c0.9,0,2.4-0.5,3.3-0.5c0.9,0,2.2,0.5,3.2,0.5
			c0.9,0,2.4-0.5,3.3-0.5c0.7,0,1.6,0.3,2.5,0.5C47.1,37.3,47.1,37.8,47.1,38z M47,36.8c-0.8-0.2-1.7-0.5-2.4-0.5
			c-0.9,0-2.4,0.5-3.3,0.5c-0.9,0-2.2-0.5-3.2-0.5c-0.9,0-2.4,0.5-3.3,0.5c-0.9,0-1.5-0.2-1.5-0.2c0,0-0.7-0.3-1.7-0.3
			c-0.7,0-1.2,0.1-1.5,0.2v-0.8c0.1,0,0.7-0.2,1.5-0.2c0.9,0,1.5,0.2,1.5,0.2c0,0,0.7,0.3,1.7,0.3c0.9,0,2.4-0.5,3.3-0.5
			c0.9,0,2.2,0.5,3.2,0.5c0.9,0,2.4-0.5,3.3-0.5c0.7,0,1.5,0.3,2.3,0.4C46.9,36.2,46.9,36.6,47,36.8z M46.8,35.6
			c-0.7-0.2-1.5-0.4-2.2-0.4c-0.9,0-2.4,0.5-3.3,0.5c-0.9,0-2.2-0.5-3.2-0.5c-0.9,0-2.4,0.5-3.3,0.5c-0.9,0-2.2-0.5-3.2-0.5
			c-0.7,0-1.2,0.1-1.5,0.2V18.2c0,0,0,0,0,0C38.1,18.2,44.9,25.7,46.8,35.6z M36.3,17.6c0-0.1,0-0.1,0-0.2"/>
	</g>
	<g>
		<g>
			<path class="st1" d="M38.5,10.8c0,0.1-0.1,0.2-0.1,0.3C38.4,11,38.4,10.9,38.5,10.8z"/>
			<path class="st1" d="M37.3,8.9C37.3,8.9,37.3,8.9,37.3,8.9C37.3,8.9,37.3,8.9,37.3,8.9z"/>
			<path class="st1" d="M37.5,8.7C37.5,8.7,37.5,8.7,37.5,8.7C37.5,8.7,37.5,8.7,37.5,8.7z"/>
			<polygon class="st1" points="40.8,13 40.9,12.9 40.8,13 			"/>
			<path class="st1" d="M38.9,10c-0.1,0.3-0.3,0.5-0.4,0.8C38.6,10.5,38.7,10.2,38.9,10z"/>
			<path class="st1" d="M36.7,9.4C36.7,9.4,36.7,9.4,36.7,9.4C36.7,9.4,36.7,9.4,36.7,9.4z"/>
			<path class="st1" d="M28.2,5.9C28.3,5.9,28.3,6,28.4,6C28.3,6,28.3,5.9,28.2,5.9z"/>
			<path class="st1" d="M37.1,9.1C37.1,9.1,37.1,9,37.1,9.1C37.1,9,37.1,9.1,37.1,9.1z"/>
			<path class="st1" d="M28.4,6.1C28.4,6.1,28.4,6.1,28.4,6.1C28.4,6.1,28.4,6.1,28.4,6.1L28.4,6.1z"/>
			<path class="st1" d="M38.3,11.1c0,0.1-0.1,0.2-0.1,0.2C38.3,11.2,38.3,11.1,38.3,11.1z"/>
			<path class="st1" d="M36.9,9.2C36.9,9.2,36.9,9.2,36.9,9.2C36.9,9.2,36.9,9.2,36.9,9.2z"/>
			<path class="st1" d="M40.2,14.4C40.2,14.4,40.2,14.4,40.2,14.4C40.2,14.4,40.2,14.4,40.2,14.4z"/>
			<path class="st1" d="M39.1,16.9c0.1,0,0.2-0.1,0.3-0.1C39.2,16.8,39.2,16.9,39.1,16.9L39.1,16.9z"/>
			<rect x="38.7" y="18.6" transform="matrix(0.4472 -0.8944 0.8944 0.4472 6.1114 47.0359)" class="st1" width="4.8" height="0"/>
			<path class="st1" d="M39.4,14.4C39.4,14.4,39.4,14.4,39.4,14.4C39.4,14.4,39.4,14.4,39.4,14.4z"/>
			<path class="st1" d="M39.6,16.6c-0.1,0-0.2,0.1-0.2,0.1C39.4,16.7,39.5,16.7,39.6,16.6z"/>
			<rect x="36.3" y="3.6" transform="matrix(0.7071 -0.7071 0.7071 0.7071 6.4931 27.399)" class="st1" width="0" height="4.5"/>
			<polygon class="st1" points="38.6,17.1 38.6,17.1 38.6,17.1 38.6,17.1 			"/>
			<path class="st1" d="M39.8,16.5c-0.1,0-0.2,0.1-0.2,0.1C39.7,16.6,39.8,16.6,39.8,16.5z"/>
			<path class="st1" d="M40,14.4C40,14.4,40,14.4,40,14.4C40,14.4,40,14.4,40,14.4z"/>
			<path class="st1" d="M39.7,14.4C39.7,14.4,39.7,14.4,39.7,14.4C39.7,14.4,39.7,14.4,39.7,14.4z"/>
			<path class="st1" d="M40.1,16.4c-0.1,0-0.2,0.1-0.2,0.1C39.9,16.5,40,16.4,40.1,16.4z"/>
			<path class="st1" d="M40.4,16.2c-0.1,0-0.2,0.1-0.2,0.1C40.2,16.3,40.3,16.3,40.4,16.2z"/>
			<path class="st1" d="M28,5.7c0.1,0.1,0.1,0.1,0.2,0.2C28.1,5.8,28.1,5.7,28,5.7z"/>
			<path class="st1" d="M37.7,8.6c0.1-0.1,0.1-0.1,0.2-0.2C37.8,8.5,37.7,8.5,37.7,8.6z"/>
			<path class="st1" d="M20.4,14.2c-0.1,0-0.1,0.1-0.2,0.1C20.2,14.2,20.3,14.2,20.4,14.2L20.4,14.2z"/>
			<path class="st1" d="M19.9,14.4c0.1,0,0.2-0.1,0.2-0.1C20.1,14.3,20,14.4,19.9,14.4z"/>
			<path class="st1" d="M21,16.3C21,16.3,21,16.3,21,16.3C21,16.3,21,16.3,21,16.3z"/>
			<path class="st1" d="M22.2,10.9C22.2,10.9,22.2,10.9,22.2,10.9C22.2,10.9,22.2,10.9,22.2,10.9z"/>
			<path class="st1" d="M22,10.8C22,10.8,22,10.8,22,10.8C22,10.8,22,10.8,22,10.8z"/>
			<path class="st1" d="M19.6,14.6c0.1,0,0.2-0.1,0.3-0.1C19.8,14.5,19.7,14.5,19.6,14.6z"/>
			<path class="st1" d="M22.4,11.1C22.4,11.1,22.4,11.1,22.4,11.1C22.4,11.1,22.4,11.1,22.4,11.1z"/>
			<path class="st1" d="M20.7,16.3C20.7,16.3,20.7,16.3,20.7,16.3C20.7,16.3,20.7,16.3,20.7,16.3z"/>
			<path class="st1" d="M20,16.4C20,16.4,20,16.4,20,16.4C20,16.4,20,16.4,20,16.4z"/>
			<path class="st1" d="M19.8,16.4C19.8,16.4,19.8,16.4,19.8,16.4C19.8,16.4,19.8,16.4,19.8,16.4z"/>
			<path class="st1" d="M20.3,16.4C20.3,16.4,20.2,16.4,20.3,16.4C20.2,16.4,20.3,16.4,20.3,16.4z"/>
			<path class="st1" d="M26.2,6.7C26.2,6.7,26.2,6.7,26.2,6.7C26.2,6.7,26.2,6.7,26.2,6.7z"/>
			<path class="st1" d="M26.3,7.3C26.3,7.2,26.3,7.2,26.3,7.3C26.3,7.2,26.3,7.2,26.3,7.3z"/>
			<path class="st1" d="M26.3,7C26.3,7,26.3,7,26.3,7C26.3,7,26.3,7,26.3,7z"/>
			<path class="st1" d="M27.8,5.5c0,0,0.1,0.1,0.1,0.1C27.9,5.6,27.8,5.5,27.8,5.5z"/>
			<path class="st1" d="M26,6.2C26,6.2,26,6.2,26,6.2C26,6.2,26,6.2,26,6.2z"/>
			<path class="st1" d="M26.1,6.5C26.1,6.5,26.1,6.5,26.1,6.5C26.1,6.5,26.1,6.5,26.1,6.5z"/>
			<path class="st1" d="M21.1,10.2c-0.1,0-0.1-0.1-0.2-0.1C21,10.1,21.1,10.2,21.1,10.2z"/>
			<path class="st1" d="M21.4,10.3C21.3,10.3,21.3,10.3,21.4,10.3C21.3,10.3,21.3,10.3,21.4,10.3z"/>
			<path class="st1" d="M21.6,10.5C21.6,10.5,21.5,10.5,21.6,10.5C21.5,10.5,21.6,10.5,21.6,10.5z"/>
			<path class="st1" d="M26.5,7.8C26.5,7.8,26.5,7.8,26.5,7.8C26.5,7.8,26.5,7.8,26.5,7.8z"/>
			<path class="st1" d="M26.4,7.5C26.4,7.5,26.4,7.5,26.4,7.5C26.4,7.5,26.4,7.5,26.4,7.5z"/>
			<path class="st1" d="M21.8,10.6C21.8,10.6,21.8,10.6,21.8,10.6C21.8,10.6,21.8,10.6,21.8,10.6z"/>
			<path class="st1" d="M23,8.8c-0.3,0-0.6-0.1-0.9-0.1C22.4,8.7,22.7,8.7,23,8.8L23,8.8z"/>
			<polygon class="st1" points="21.8,4.4 21.8,4.4 22.6,5.1 			"/>
			<polygon class="st1" points="19.7,18.1 19.5,18.2 19.7,18.1 			"/>
			<path class="st2" d="M34,5.8c-0.3-1.4-0.5-2.9,0-4.1c-1.1,1-1.4,2.2-1.7,3.5C32.1,5.8,32,6.4,31.7,7L32.1,9l2.1-1.8
				C34.2,6.7,34.1,6.3,34,5.8z"/>
			<polygon class="st2" points="34.3,7.6 32.2,9.4 34.3,7.6 			"/>
			<rect x="34.5" y="7.2" class="st3" width="0" height="0.5"/>
			<path class="st3" d="M32.3,5.1c0.3-1.3,0.6-2.5,1.7-3.5c-0.5,1.2-0.3,2.7,0,4.1c0.1,0.5,0.2,0.9,0.2,1.4l0.3-0.3
				c-0.1-0.4-0.1-0.8-0.2-1.1C34,4,33.7,2.3,34.8,1.1c0.1-0.1,0.1-0.2,0-0.2c-0.1-0.1-0.2-0.1-0.2,0c-1.9,1.1-2.3,2.7-2.7,4.2
				c-0.1,0.5-0.2,0.9-0.4,1.3L31.7,7C32,6.4,32.1,5.8,32.3,5.1z"/>
			<path class="st2" d="M38.2,11.3c0-0.1,0.1-0.2,0.1-0.2c0,0,0,0,0,0c0-0.1,0.1-0.2,0.1-0.3c0,0,0,0,0,0c0.1-0.3,0.3-0.5,0.4-0.8
				c0.6-1.3,1.3-2.7,2.4-3.4c-1.5,0.1-2.4,0.9-3.4,1.8c-0.1,0.1-0.1,0.1-0.2,0.2c0,0-0.1,0.1-0.1,0.1c0,0-0.1,0-0.1,0.1
				c0,0-0.1,0.1-0.1,0.1c0,0,0,0-0.1,0c-0.1,0-0.1,0.1-0.2,0.1c0,0,0,0,0,0c-0.1,0-0.1,0.1-0.2,0.1c0,0,0,0,0,0
				c-0.1,0-0.1,0.1-0.2,0.1c0,0,0,0,0,0c0,0-0.1,0.1-0.1,0.1l-0.9,2.1L38.2,11.3C38.2,11.3,38.2,11.3,38.2,11.3z"/>
			<polygon class="st2" points="38,14.6 38,14.6 37.7,14.8 			"/>
			<polygon class="st2" points="38.6,17.1 36.7,15.9 38.6,17.1 			"/>
			<path class="st2" d="M39.3,16.8C39.3,16.8,39.3,16.8,39.3,16.8c0.1,0,0.2-0.1,0.3-0.1c0,0,0,0,0,0c0.1,0,0.2-0.1,0.2-0.1
				c0,0,0,0,0,0c0.1,0,0.2-0.1,0.2-0.1c0,0,0,0,0,0c0.1,0,0.2-0.1,0.2-0.1c1.3-0.7,2.6-1.4,3.9-1.3c-1.3-0.8-2.5-0.7-3.8-0.6
				c-0.1,0-0.2,0-0.2,0c0,0,0,0,0,0c-0.1,0-0.2,0-0.2,0c0,0,0,0,0,0c-0.1,0-0.2,0-0.2,0c0,0,0,0,0,0c-0.1,0-0.2,0-0.2,0c0,0,0,0,0,0
				c-0.1,0-0.2,0-0.4,0l-2,1.2l2,1.2C39.2,16.9,39.2,16.8,39.3,16.8z"/>
			<polygon class="st2" points="23.2,15.9 22.9,16.1 23.2,15.9 			"/>
			<path class="st2" d="M20.2,14.3C20.2,14.3,20.1,14.3,20.2,14.3c-0.1,0.1-0.2,0.1-0.3,0.1c0,0,0,0,0,0c-0.1,0-0.2,0.1-0.3,0.1
				c-1.3,0.7-2.6,1.4-3.9,1.3c1.3,0.8,2.5,0.7,3.8,0.6c0.1,0,0.1,0,0.2,0c0,0,0,0,0,0c0.1,0,0.1,0,0.2,0c0,0,0,0,0,0
				c0.1,0,0.2,0,0.2,0c0,0,0,0,0,0c0.2,0,0.3,0,0.5,0c0,0,0,0,0,0c0.1,0,0.2,0,0.2,0c0,0,0,0,0,0c0.2,0,0.5,0,0.7,0l1.2-0.7
				l-2.5-1.5C20.3,14.2,20.2,14.2,20.2,14.3z"/>
			<path class="st2" d="M22.1,8.6c-1.4-0.2-2.9-0.4-3.9-1.3c0.6,1.4,1.6,2,2.8,2.7c0.1,0,0.1,0.1,0.2,0.1c0,0,0.1,0.1,0.1,0.1
				c0,0,0,0,0.1,0c0.1,0,0.1,0.1,0.2,0.1c0,0,0,0,0.1,0c0.1,0,0.1,0.1,0.2,0.1c0,0,0,0,0,0c0.1,0,0.1,0.1,0.2,0.1c0,0,0,0,0,0
				c0.1,0,0.1,0.1,0.2,0.1c0,0,0,0,0,0c0.1,0,0.1,0.1,0.2,0.1c0,0,0,0,0,0c0.1,0.1,0.3,0.2,0.4,0.3l1.4,0.1L23,8.8
				C22.7,8.7,22.4,8.7,22.1,8.6z"/>
			<path class="st2" d="M28.4,6.1C28.4,6.1,28.4,6.1,28.4,6.1c-0.1-0.1-0.1-0.1-0.2-0.2c0,0,0,0-0.1-0.1c-0.1-0.1-0.1-0.1-0.2-0.2
				c0,0,0,0-0.1-0.1c0,0-0.1-0.1-0.1-0.1c-0.1-0.1-0.1-0.1-0.2-0.2c-1.1-1-2.2-2-2.4-3.3c-0.3,1.4,0.1,2.6,0.6,3.8
				C25.9,5.9,25.9,6,26,6.2c0,0,0,0,0,0c0,0.1,0.1,0.1,0.1,0.2c0,0,0,0,0,0c0,0.1,0.1,0.1,0.1,0.2c0,0,0,0,0,0
				c0,0.1,0.1,0.1,0.1,0.2c0,0,0,0,0,0c0,0.1,0,0.1,0.1,0.2c0,0,0,0,0,0c0,0.1,0,0.1,0.1,0.2c0,0,0,0,0,0c0,0.1,0,0.2,0.1,0.2
				c0,0,0,0,0,0c0,0,0,0.1,0,0.1L27.8,9L28.4,6.1C28.4,6.1,28.4,6.1,28.4,6.1z"/>
			<path class="st3" d="M36.6,9.4c0,0,0.1-0.1,0.1-0.1c0,0,0,0,0,0c0.1,0,0.1-0.1,0.2-0.1c0,0,0,0,0,0c0.1,0,0.1-0.1,0.2-0.1
				c0,0,0,0,0,0c0.1,0,0.1-0.1,0.2-0.1c0,0,0,0,0.1,0c0,0,0.1-0.1,0.1-0.1c0,0,0.1,0,0.1-0.1c0,0,0.1-0.1,0.1-0.1
				c0.1-0.1,0.1-0.1,0.2-0.2c1-0.9,2-1.7,3.4-1.8c-1.1,0.7-1.8,2-2.4,3.4c-0.1,0.3-0.3,0.5-0.4,0.8c0,0,0,0,0,0
				c0,0.1-0.1,0.2-0.1,0.3c0,0,0,0,0,0c0,0.1-0.1,0.2-0.1,0.2c0,0,0,0,0,0l0.5,0c0.2-0.4,0.4-0.8,0.6-1.1C40,8.5,40.7,7,42.3,6.6
				c0.1,0,0.2-0.1,0.1-0.2c0-0.1-0.1-0.2-0.2-0.2c-2.2-0.2-3.4,0.8-4.7,1.9c-0.3,0.2-0.5,0.4-0.8,0.6L36.6,9.4z"/>
			<rect x="38.9" y="17" class="st3" width="0" height="0.5"/>
			<path class="st3" d="M39.1,14.4c0.1,0,0.2,0,0.4,0c0,0,0,0,0,0c0.1,0,0.2,0,0.2,0c0,0,0,0,0,0c0.1,0,0.2,0,0.2,0c0,0,0,0,0,0
				c0.1,0,0.2,0,0.2,0c0,0,0,0,0,0c0.1,0,0.2,0,0.2,0c1.3-0.1,2.6-0.2,3.8,0.6c-1.3-0.1-2.6,0.6-3.9,1.3c-0.1,0-0.2,0.1-0.2,0.1
				c0,0,0,0,0,0c-0.1,0-0.2,0.1-0.2,0.1c0,0,0,0,0,0c-0.1,0-0.2,0.1-0.2,0.1c0,0,0,0,0,0c-0.1,0-0.2,0.1-0.2,0.1c0,0,0,0,0,0
				c-0.1,0-0.2,0.1-0.3,0.1l0.4,0.2c0.4-0.2,0.7-0.4,1.1-0.6c1.6-0.9,3.1-1.7,4.5-1c0.1,0,0.2,0,0.2-0.1c0.1-0.1,0-0.2,0-0.2
				c-1.6-1.5-3.3-1.3-4.9-1.2c-0.2,0-0.5,0-0.7,0L39.1,14.4z"/>
			<polygon class="st3" points="22.2,16.5 21.9,16.7 22.2,16.5 			"/>
			<path class="st3" d="M21.7,16.4c-0.2,0-0.5,0-0.7,0c0,0,0,0,0,0c-0.1,0-0.2,0-0.2,0c0,0,0,0,0,0c-0.2,0-0.3,0-0.5,0c0,0,0,0,0,0
				c-0.1,0-0.2,0-0.2,0c0,0,0,0,0,0c-0.1,0-0.1,0-0.2,0c0,0,0,0,0,0c-0.1,0-0.1,0-0.2,0c-1.3,0.1-2.6,0.2-3.8-0.6
				c1.3,0.1,2.6-0.6,3.9-1.3c0.1,0,0.2-0.1,0.3-0.1c0,0,0,0,0,0c0.1,0,0.2-0.1,0.2-0.1c0,0,0,0,0,0c0.1,0,0.1-0.1,0.2-0.1L20,13.9
				c-0.2,0.1-0.4,0.2-0.5,0.3c-1.6,0.9-3.1,1.7-4.5,1c-0.1,0-0.2,0-0.2,0.1c-0.1,0.1,0,0.2,0,0.2c1.6,1.5,3.3,1.3,4.9,1.2
				c0.5,0,1.1-0.1,1.6-0.1L21.7,16.4z"/>
			<path class="st3" d="M22.8,11.4c-0.1-0.1-0.2-0.2-0.4-0.3c0,0,0,0,0,0c-0.1-0.1-0.1-0.1-0.2-0.1c0,0,0,0,0,0
				c-0.1,0-0.1-0.1-0.2-0.1c0,0,0,0,0,0c-0.1,0-0.1-0.1-0.2-0.1c0,0,0,0,0,0c-0.1,0-0.1-0.1-0.2-0.1c0,0,0,0-0.1,0
				c-0.1,0-0.1-0.1-0.2-0.1c0,0,0,0-0.1,0c0,0-0.1-0.1-0.1-0.1c-0.1,0-0.1-0.1-0.2-0.1c-1.1-0.7-2.2-1.3-2.8-2.7
				c1,0.9,2.5,1.1,3.9,1.3c0.3,0,0.6,0.1,0.9,0.1l-0.2-0.4c-0.2,0-0.5-0.1-0.7-0.1c-1.8-0.2-3.5-0.4-4.3-1.8c0-0.1-0.1-0.1-0.2-0.1
				c-0.1,0-0.1,0.1-0.1,0.2c0.5,2.2,1.9,3,3.2,3.8c0.5,0.3,1,0.6,1.4,1L22.8,11.4z"/>
			<path class="st3" d="M26.5,7.9c0,0,0-0.1,0-0.1c0,0,0,0,0,0c0-0.1,0-0.2-0.1-0.2c0,0,0,0,0,0c0-0.1,0-0.2-0.1-0.2c0,0,0,0,0,0
				c0-0.1,0-0.1-0.1-0.2c0,0,0,0,0,0c0-0.1,0-0.1-0.1-0.2c0,0,0,0,0,0c0-0.1-0.1-0.1-0.1-0.2c0,0,0,0,0,0C26,6.4,26,6.3,26,6.2
				c0,0,0,0,0,0c-0.1-0.2-0.1-0.3-0.2-0.5c-0.5-1.2-1-2.4-0.6-3.8c0.3,1.3,1.4,2.3,2.4,3.3c0.1,0.1,0.1,0.1,0.2,0.2
				c0,0,0.1,0.1,0.1,0.1c0,0,0,0,0.1,0.1c0.1,0.1,0.1,0.1,0.2,0.2c0,0,0,0,0.1,0.1C28.3,5.9,28.3,6,28.4,6c0,0,0,0,0,0c0,0,0,0,0,0
				l0.1-0.4c-0.2-0.2-0.5-0.4-0.7-0.7c-1.3-1.2-2.5-2.4-2.4-4c0-0.1-0.1-0.2-0.1-0.2c-0.1,0-0.2,0-0.2,0.1c-0.9,2-0.3,3.5,0.3,5
				c0.2,0.5,0.4,1,0.6,1.6L26.5,7.9z"/>
			<polygon class="st2" points="31.2,6.7 31.2,6.6 30.1,6.6 30.1,6.9 31.3,6.9 			"/>
			<polygon class="st2" points="30.1,8.3 30.1,8.7 31.7,8.7 31.6,8.3 			"/>
			<polygon class="st2" points="31.4,7.5 31.3,7.1 30.1,7.1 30.1,7.5 			"/>
			<path class="st2" d="M28.5,9.2C28.5,9.2,28.5,9.2,28.5,9.2c0.3-0.1,0.6-0.1,0.8-0.1c0,0,0,0,0,0c0.1,0,0.3,0,0.4,0c0,0,0,0,0,0
				V8.8c0,0,0,0,0,0s0,0,0,0V8.2c0,0,0,0,0,0s0,0,0,0V7.6c0,0,0,0,0,0s0,0,0,0V7c0,0,0,0,0,0s0,0,0,0V6.4c0,0,0,0,0,0s0,0,0,0V5.9
				c0,0,0,0,0,0s0,0,0,0V5.3c0,0,0,0,0,0s0,0,0,0V4.7c0,0,0,0,0,0s0,0,0,0V4.1c0,0,0,0,0,0s0,0,0,0V3.5c0,0,0,0,0,0s0,0,0,0V2.9
				c0,0,0,0,0,0s0,0,0,0V1.8l-1.7,7.4l0,0c0,0,0,0,0,0C28.3,9.2,28.4,9.2,28.5,9.2z"/>
			<polygon class="st2" points="30.1,7.7 30.1,8.1 31.5,8.1 31.5,7.8 31.5,7.7 			"/>
			<path class="st2" d="M30.1,9c0.6,0,1.1,0.1,1.7,0.2l0,0l-0.1-0.3c0,0,0,0,0,0h-1.6L30.1,9C30.1,9,30.1,9,30.1,9
				C30.1,9,30.1,9,30.1,9z"/>
			<polygon class="st2" points="30.5,3.8 30.5,3.6 30.1,3.6 30.1,4 30.6,4 			"/>
			<polygon class="st2" points="30.4,3.3 30.4,3 30.1,3 30.1,3.4 30.4,3.4 			"/>
			<polygon class="st2" points="30.1,1.8 30.1,2.8 30.3,2.8 			"/>
			<polygon class="st2" points="31.1,6.1 31,6 30.1,6 30.1,6.3 31.1,6.3 			"/>
			<polygon class="st2" points="30.6,4.2 30.1,4.2 30.1,4.6 30.7,4.6 			"/>
			<polygon class="st2" points="30.8,4.9 30.8,4.8 30.1,4.8 30.1,5.1 30.9,5.1 			"/>
			<polygon class="st2" points="30.9,5.4 30.1,5.4 30.1,5.7 31,5.7 			"/>
			<path class="st3" d="M28.4,6.1L27.8,9l0.3,0.3l1.7-7.4v1.1c0,0,0,0,0,0s0,0,0,0v0.6c0,0,0,0,0,0s0,0,0,0v0.6c0,0,0,0,0,0s0,0,0,0
				v0.6c0,0,0,0,0,0s0,0,0,0v0.6c0,0,0,0,0,0s0,0,0,0v0.6c0,0,0,0,0,0s0,0,0,0v0.6c0,0,0,0,0,0s0,0,0,0V7c0,0,0,0,0,0s0,0,0,0v0.6
				c0,0,0,0,0,0s0,0,0,0v0.6c0,0,0,0,0,0s0,0,0,0v0.6c0,0,0,0,0,0s0,0,0,0V9c0,0,0.1,0,0.1,0c0,0,0,0,0,0c0,0,0.1,0,0.1,0V8.9h1.6
				c0,0,0,0,0,0l0.1,0.3L32.1,9L31.7,7l-0.2-0.7l-1.4-5.9c0-0.1-0.1-0.1-0.2-0.1s-0.2,0.1-0.2,0.1l-1.2,5.2L28.4,6.1L28.4,6.1z
				 M30.1,8.7V8.3h1.5l0.1,0.4H30.1z M31.5,7.7L31.5,7.7l0.1,0.4h-1.5V7.7H31.5z M30.1,1.8l0.2,1h-0.2V1.8z M30.1,3h0.3l0.1,0.3
				l0,0.1h-0.4V3z M30.1,3.6h0.4l0,0.2l0,0.2h-0.5V3.6z M30.1,4.2h0.6l0.1,0.4h-0.6V4.2z M30.1,4.8h0.7l0,0.1l0.1,0.3h-0.8V4.8z
				 M30.1,5.4h0.8L31,5.7h-0.9V5.4z M30.1,6h1l0,0.1l0.1,0.2h-1.1V6z M30.1,6.6h1.1l0,0.1l0.1,0.2h-1.2V6.6z M30.1,7.1h1.2l0.1,0.4
				h-1.3V7.1z"/>
			<polygon class="st2" points="24.8,8.5 25.8,7.8 25.5,7.6 24.6,8.2 			"/>
			<polygon class="st2" points="24.5,8.1 25.4,7.4 25.1,7.2 25.1,7.2 24.3,7.8 			"/>
			<polygon class="st2" points="23.8,7.1 24.4,6.6 24.3,6.5 24.2,6.4 23.6,6.8 			"/>
			<polygon class="st2" points="23.5,6.6 24,6.3 23.7,6 23.3,6.4 			"/>
			<polygon class="st2" points="25.2,9 26.3,8.2 26.1,8.1 26,8 25,8.7 			"/>
			<path class="st2" d="M25.9,10.4l-0.5-0.7c0,0,0,0,0,0c0,0,0,0,0,0l-0.3-0.5c0,0,0,0,0,0c0,0,0,0,0,0l-0.3-0.5c0,0,0,0,0,0
				c0,0,0,0,0,0l-0.3-0.5c0,0,0,0,0,0c0,0,0,0,0,0L24,7.8c0,0,0,0,0,0c0,0,0,0,0,0l-0.3-0.5c0,0,0,0,0,0c0,0,0,0,0,0l-0.3-0.5
				c0,0,0,0,0,0c0,0,0,0,0,0L23,6.4c0,0,0,0,0,0c0,0,0,0,0,0l-0.3-0.5c0,0,0,0,0,0c0,0,0,0,0,0l-0.3-0.5c0,0,0,0,0,0c0,0,0,0,0,0
				l-0.6-0.8l2.9,6.9l0.1,0C25.1,11.1,25.5,10.7,25.9,10.4z"/>
			<path class="st2" d="M26.4,10.1C26.4,10.1,26.4,10.1,26.4,10.1C26.4,10.1,26.4,10.1,26.4,10.1c0.4-0.3,0.9-0.5,1.3-0.7l-0.3-0.3
				l-1.3,1l0.1,0.1C26.2,10.2,26.3,10.1,26.4,10.1z"/>
			<polygon class="st2" points="24.2,7.6 24.9,7 24.6,6.8 23.9,7.3 			"/>
			<polygon class="st2" points="23.1,6.2 23.5,5.9 23.3,5.6 22.9,5.9 			"/>
			<polygon class="st2" points="25.7,9.7 25.9,9.9 27.2,9 26.9,8.8 			"/>
			<polygon class="st2" points="25.3,9.2 25.5,9.5 26.7,8.6 26.5,8.4 			"/>
			<polygon class="st2" points="22.6,5.1 21.8,4.4 22.4,5.2 			"/>
			<polygon class="st2" points="22.8,5.7 23.1,5.5 22.8,5.2 22.6,5.4 			"/>
			<path class="st3" d="M23,8.8l1.2,2.8l0.4,0l-2.9-6.9l0.6,0.8c0,0,0,0,0,0c0,0,0,0,0,0l0.3,0.5c0,0,0,0,0,0c0,0,0,0,0,0L23,6.4
				c0,0,0,0,0,0c0,0,0,0,0,0l0.3,0.5c0,0,0,0,0,0c0,0,0,0,0,0l0.3,0.5c0,0,0,0,0,0c0,0,0,0,0,0L24,7.8c0,0,0,0,0,0c0,0,0,0,0,0
				l0.3,0.5c0,0,0,0,0,0c0,0,0,0,0,0l0.3,0.5c0,0,0,0,0,0c0,0,0,0,0,0l0.3,0.5c0,0,0,0,0,0c0,0,0,0,0,0l0.3,0.5c0,0,0,0,0,0
				c0,0,0,0,0,0l0.5,0.7c0.1,0,0.1-0.1,0.2-0.1L26,10.1l1.3-1l0.3,0.3c0.1-0.1,0.3-0.1,0.4-0.1c0,0,0,0,0,0l0,0L27.8,9l-1.3-1.1
				L26,7.5l-4.9-4.2c-0.1-0.1-0.2-0.1-0.2,0c-0.1,0.1-0.1,0.1-0.1,0.2l2.1,4.8L23,8.8L23,8.8z M27.2,9l-1.3,1l-0.2-0.3l1.2-0.9
				L27.2,9z M26.7,8.6l-1.2,0.9l-0.2-0.3l1.1-0.8L26.7,8.6z M26.1,8.1l0.2,0.1L25.2,9L25,8.7L26,8L26.1,8.1z M25.8,7.8l-1,0.7
				l-0.2-0.3l0.9-0.7L25.8,7.8z M25.1,7.2l0.3,0.2l-0.9,0.6l-0.2-0.3L25.1,7.2L25.1,7.2z M24.9,7l-0.8,0.6l-0.2-0.3l0.7-0.5L24.9,7z
				 M24.3,6.5l0.1,0.1l-0.6,0.5l-0.2-0.3l0.6-0.4L24.3,6.5z M24,6.3l-0.5,0.4l-0.2-0.3L23.7,6L24,6.3z M23.5,5.9l-0.4,0.3l-0.2-0.3
				l0.4-0.3L23.5,5.9z M23.1,5.5l-0.3,0.2l-0.2-0.3l0.2-0.2L23.1,5.5z M21.8,4.4l0.8,0.7l-0.2,0.1L21.8,4.4L21.8,4.4z"/>
			<polygon class="st2" points="36.2,7.2 36.9,7.7 37,7.4 36.4,6.9 			"/>
			<polygon class="st2" points="36.6,6.8 37.1,7.1 37.2,6.9 37.2,6.8 36.8,6.5 			"/>
			<path class="st2" d="M33.8,10.2l0.5-0.7c0,0,0,0,0,0s0,0,0,0l0.3-0.5c0,0,0,0,0,0c0,0,0,0,0,0l0.3-0.5c0,0,0,0,0,0c0,0,0,0,0,0
				l0.3-0.5c0,0,0,0,0,0c0,0,0,0,0,0l0.3-0.5c0,0,0,0,0,0c0,0,0,0,0,0L36,7.2c0,0,0,0,0,0c0,0,0,0,0,0l0.3-0.5c0,0,0,0,0,0s0,0,0,0
				l0.3-0.5c0,0,0,0,0,0s0,0,0,0L37,5.8c0,0,0,0,0,0c0,0,0,0,0,0l0.3-0.5c0,0,0,0,0,0s0,0,0,0L38,4.4l-3.4,2.9l-0.4,0.3l-2,1.8l0,0
				C32.8,9.6,33.3,9.9,33.8,10.2z"/>
			<polygon class="st2" points="37.8,5.5 38.2,4.6 37.6,5.3 			"/>
			<polygon class="st2" points="37.3,5.8 37.6,6 37.7,5.7 37.5,5.5 			"/>
			<path class="st2" d="M35.2,11.6L35.2,11.6l0.2-0.3l-1.3-1c0,0,0,0,0,0L34,10.4C34.4,10.7,34.8,11.1,35.2,11.6z"/>
			<polygon class="st2" points="34.7,9.3 34.5,9.6 35.7,10.5 35.8,10.3 35.8,10.1 			"/>
			<path class="st2" d="M34.4,9.8l-0.2,0.3c0,0,0,0,0,0l1.3,0.9l0.1-0.2l0.1-0.1L34.4,9.8z"/>
			<polygon class="st2" points="36.1,9.6 36.1,9.6 35.1,8.8 34.9,9.1 35.9,9.9 			"/>
			<polygon class="st2" points="35.4,8.4 35.2,8.7 36.2,9.4 36.3,9 			"/>
			<polygon class="st2" points="36.9,6.3 37.3,6.6 37.5,6.2 37.1,6 			"/>
			<polygon class="st2" points="36.5,8.5 35.8,7.9 35.6,8.2 36.4,8.8 			"/>
			<polygon class="st2" points="36.7,8.2 36.8,7.9 36.1,7.4 35.9,7.7 36.6,8.2 			"/>
			<path class="st3" d="M32.1,9l-0.3,0.3l0,0c0.1,0,0.3,0.1,0.4,0.1l0,0l2-1.8l0.4-0.3L38,4.4l0,0l-0.6,0.9c0,0,0,0,0,0s0,0,0,0
				L37,5.8c0,0,0,0,0,0c0,0,0,0,0,0l-0.3,0.5c0,0,0,0,0,0s0,0,0,0l-0.3,0.5c0,0,0,0,0,0s0,0,0,0L36,7.2c0,0,0,0,0,0c0,0,0,0,0,0
				l-0.3,0.5c0,0,0,0,0,0c0,0,0,0,0,0l-0.3,0.5c0,0,0,0,0,0c0,0,0,0,0,0L35,8.6c0,0,0,0,0,0c0,0,0,0,0,0l-0.3,0.5c0,0,0,0,0,0
				c0,0,0,0,0,0l-0.3,0.5c0,0,0,0,0,0s0,0,0,0l-0.5,0.7c0,0,0,0,0.1,0c0,0,0,0,0,0c0,0,0,0,0,0c0,0,0.1,0,0.1,0.1l0.1-0.1
				c0,0,0,0,0,0l1.3,1l-0.1,0.3l0.4,0l0.9-2.1l0.3-0.7l2.2-5.3c0-0.1,0-0.2-0.1-0.2c-0.1-0.1-0.2,0-0.2,0l-4.2,3.6l-0.3,0.3L32.1,9z
				 M36.1,7.4l0.7,0.5l-0.1,0.3l0,0l-0.7-0.5L36.1,7.4z M35.8,7.9l0.8,0.6l-0.1,0.3l-0.9-0.6L35.8,7.9z M35.6,10.8L35.5,11l-1.3-0.9
				c0,0,0,0,0,0l0.2-0.3l1.2,0.9L35.6,10.8z M35.8,10.3l-0.1,0.1l-1.2-0.9l0.2-0.3l1.1,0.8L35.8,10.3z M34.9,9.1l0.2-0.3l1,0.7l0,0
				l-0.1,0.3L34.9,9.1z M36.2,9.4l-1-0.7l0.2-0.3L36.3,9L36.2,9.4z M36.9,7.7l-0.6-0.5l0.2-0.3L37,7.4L36.9,7.7z M37.2,6.9l-0.1,0.2
				l-0.5-0.4l0.2-0.3L37.2,6.9L37.2,6.9z M37.3,6.6l-0.4-0.3L37.1,6l0.3,0.2L37.3,6.6z M37.6,6l-0.3-0.2l0.2-0.3l0.2,0.2L37.6,6z
				 M37.8,5.5l-0.2-0.1l0.6-0.8L37.8,5.5z"/>
			<path class="st2" d="M36.4,17.4C36.4,17.4,36.4,17.4,36.4,17.4C36.4,17.4,36.4,17.4,36.4,17.4c0,0.1,0,0.1,0,0.2l0.8,0.3
				c0,0,0,0,0,0c0,0,0,0,0,0l0.5,0.2c0,0,0,0,0,0c0,0,0,0,0,0l0.5,0.2c0,0,0,0,0,0c0,0,0,0,0,0l0.5,0.2c0,0,0,0,0,0c0,0,0,0,0,0
				l0.5,0.2c0,0,0,0,0,0c0,0,0,0,0,0l0.5,0.2c0,0,0,0,0,0c0,0,0,0,0,0l0.5,0.2c0,0,0,0,0,0c0,0,0,0,0,0l0.5,0.2c0,0,0,0,0,0s0,0,0,0
				l0.5,0.2c0,0,0,0,0,0c0,0,0,0,0,0l0.5,0.2c0,0,0,0,0,0c0,0,0,0,0,0l1,0.3l-4.1-2.5l-0.4-0.2l0,0l-2-1.2l-0.1,0c0,0,0,0,0,0
				C36.6,16.5,36.5,17,36.4,17.4z"/>
			<path class="st2" d="M36.6,17.9l-0.2,0.7c0.1,0.1,0.2,0.1,0.3,0.2l0.2-0.7L36.6,17.9z"/>
			<path class="st2" d="M37.7,18.3l-0.3,0.9c0.1,0.1,0.2,0.1,0.3,0.2l0.3-0.9L37.7,18.3z"/>
			<polygon class="st2" points="40.3,19.8 40.6,19.8 40.7,19.8 40.8,19.3 40.5,19.2 			"/>
			<polygon class="st2" points="42.2,19.7 42.1,20 42.5,20 43.1,20 			"/>
			<polygon class="st2" points="40.9,19.9 41.2,19.9 41.3,19.9 41.4,19.5 41,19.4 			"/>
			<path class="st2" d="M36.2,17.8c-0.1,0.2-0.2,0.4-0.2,0.6c0.1,0,0.1,0,0.2,0.1l0.2-0.6L36.2,17.8z"/>
			<path class="st2" d="M37.1,18.1l-0.2,0.7c0.1,0.1,0.2,0.1,0.3,0.2l0.3-0.8L37.1,18.1z"/>
			<polygon class="st2" points="39.7,19.8 40,19.8 40.1,19.8 40.3,19.1 39.9,19 			"/>
			<polygon class="st2" points="38.8,18.7 38.5,19.7 38.7,19.7 38.9,19.7 39.2,18.8 			"/>
			<path class="st2" d="M38.6,18.6l-0.3-0.1l-0.3,1c0.1,0.1,0.2,0.1,0.3,0.2l0,0L38.6,18.6z"/>
			<polygon class="st2" points="39.4,18.8 39.1,19.7 39.4,19.7 39.5,19.7 39.7,18.9 			"/>
			<polygon class="st2" points="41.5,19.9 41.7,19.9 41.9,19.9 41.9,19.7 41.6,19.6 			"/>
			<path class="st3" d="M39.1,16.9l-2-1.2l-0.4,0.2l2,1.2l0,0l0.4,0.2l4.1,2.5l0,0l-1-0.3c0,0,0,0,0,0c0,0,0,0,0,0l-0.5-0.2
				c0,0,0,0,0,0c0,0,0,0,0,0L41,19.1c0,0,0,0,0,0s0,0,0,0l-0.5-0.2c0,0,0,0,0,0c0,0,0,0,0,0l-0.5-0.2c0,0,0,0,0,0c0,0,0,0,0,0
				l-0.5-0.2c0,0,0,0,0,0c0,0,0,0,0,0l-0.5-0.2c0,0,0,0,0,0c0,0,0,0,0,0l-0.5-0.2c0,0,0,0,0,0c0,0,0,0,0,0L37.7,18c0,0,0,0,0,0
				c0,0,0,0,0,0l-0.5-0.2c0,0,0,0,0,0c0,0,0,0,0,0l-0.8-0.3c0,0.1,0,0.1-0.1,0.2l0.1,0l-0.2,0.6c0.1,0,0.1,0.1,0.2,0.1l0.2-0.7
				l0.3,0.1l-0.2,0.7c0.1,0,0.1,0.1,0.2,0.1l0.2-0.7l0.3,0.1L37.2,19c0.1,0,0.1,0.1,0.2,0.1l0.3-0.9l0.3,0.1l-0.3,0.9
				c0.1,0,0.1,0.1,0.2,0.1l0.3-1l0.3,0.1l-0.3,1.1l0,0c0.2,0.1,0.4,0.3,0.6,0.4l5.5,0.5c0,0,0,0,0,0c0.1,0,0.2-0.1,0.2-0.1
				c0-0.1,0-0.2-0.1-0.2l-5-3L39.1,16.9L39.1,16.9z M38.7,19.7l-0.2,0l0.3-1l0.3,0.1l-0.3,0.9L38.7,19.7z M39.4,19.7l-0.3,0l0.3-0.9
				l0.3,0.1L39.4,19.7L39.4,19.7z M40.1,19.8L40.1,19.8l-0.4,0l0.2-0.7l0.3,0.1L40.1,19.8z M40.7,19.8L40.7,19.8l-0.4,0l0.2-0.6
				l0.3,0.1L40.7,19.8z M41.3,19.9L41.3,19.9l-0.4,0l0.2-0.5l0.3,0.1L41.3,19.9z M41.9,19.9l-0.1,0l-0.3,0l0.1-0.3l0.3,0.1
				L41.9,19.9z M42.1,20l0.1-0.2l0.9,0.3l-0.6,0L42.1,20z"/>
			<path class="st2" d="M23.3,15.2c0,0,0-0.1,0-0.1c0-0.1,0-0.1,0-0.2c0,0,0-0.1,0-0.1c0,0,0-0.1,0-0.1c0-0.1,0-0.2,0-0.3
				c0,0,0-0.1,0-0.1c0-0.1,0-0.1,0-0.2c0,0,0-0.1,0-0.1c0-0.1,0-0.1,0-0.2c0,0,0-0.1,0-0.1c0-0.1,0-0.1,0.1-0.2
				c0.2-0.5,0.5-1.1,0.8-1.5l-8.2-0.7l6.9,4.2l0.1,0c0,0,0,0,0,0C23.3,15.3,23.3,15.3,23.3,15.2z"/>
			<polygon class="st3" points="23.3,15.9 23.2,15.9 23.2,15.9 			"/>
			<path class="st2" d="M36.4,13.9C36.4,13.9,36.4,13.9,36.4,13.9c0,0.1,0,0.1,0.1,0.2c0,0,0,0.1,0,0.1c0,0.1,0,0.2,0.1,0.3
				c0,0,0,0.1,0,0.1c0,0.1,0,0.1,0,0.2c0,0,0,0.1,0,0.1c0,0.1,0,0.1,0,0.2c0,0.1,0,0.1,0,0.2c0,0.1,0,0.1,0,0.2c0,0,0,0,0,0.1l0.1,0
				l0.3-0.2l-0.5-1.6c0,0,0,0,0,0l-0.1,0C36.3,13.8,36.4,13.9,36.4,13.9z"/>
			<polygon class="st2" points="40.6,12.4 40.8,13 40.9,12.9 41.1,12.8 40.9,12.3 			"/>
			<polygon class="st2" points="40,12.5 40.2,13.3 40.6,13.1 40.3,12.4 			"/>
			<polygon class="st2" points="41.1,12.2 41.3,12.7 41.5,12.5 41.6,12.5 41.5,12.1 			"/>
			<polygon class="st2" points="38.7,14.2 39,14 38.7,13 38.3,13.1 			"/>
			<path class="st2" d="M35.9,12.6C35.9,12.6,35.9,12.6,35.9,12.6c0.1,0.1,0.1,0.2,0.2,0.3c0,0,0,0,0,0.1c0.1,0.1,0.1,0.2,0.1,0.3
				c0,0,0,0,0,0c0,0,0,0,0,0c0,0,0,0.1,0.1,0.1l0.8-0.3c0,0,0,0,0,0c0,0,0,0,0,0l0.5-0.2c0,0,0,0,0,0c0,0,0,0,0,0l0.5-0.2
				c0,0,0,0,0,0c0,0,0,0,0,0l0.5-0.2c0,0,0,0,0,0s0,0,0,0l0.5-0.2c0,0,0,0,0,0c0,0,0,0,0,0l0.5-0.2c0,0,0,0,0,0c0,0,0,0,0,0l0.5-0.2
				c0,0,0,0,0,0c0,0,0,0,0,0l0.5-0.2c0,0,0,0,0,0c0,0,0,0,0,0l0.5-0.2c0,0,0,0,0,0s0,0,0,0l0.5-0.2c0,0,0,0,0,0c0,0,0,0,0,0l1-0.3
				l-7.6,0.6C35.6,12.1,35.7,12.4,35.9,12.6z"/>
			<path class="st2" d="M37,13.5l-0.3,0.1c0,0,0,0,0,0l0.5,1.5l0.3-0.2L37,13.5z"/>
			<polygon class="st2" points="41.7,12 41.8,12.3 42.1,12.2 42.1,12.2 42,11.9 			"/>
			<polygon class="st2" points="42.3,12 42.8,11.8 43.2,11.5 42.2,11.8 			"/>
			<polygon class="st2" points="37.6,13.3 37.2,13.4 37.7,14.8 38,14.6 			"/>
			<polygon class="st2" points="39.5,13.7 39.2,12.8 38.9,12.9 39.2,13.9 			"/>
			<polygon class="st2" points="39.4,12.7 39.7,13.6 40,13.4 40,13.4 39.8,12.6 			"/>
			<polygon class="st2" points="38.1,13.2 37.8,13.3 38.2,14.5 38.2,14.5 38.5,14.3 			"/>
			<path class="st3" d="M38.2,11.3l-2.5,0.2l-0.4,0l-0.1,0c0.1,0.1,0.2,0.2,0.3,0.4l7.6-0.6l-1,0.3c0,0,0,0,0,0c0,0,0,0,0,0
				l-0.5,0.2c0,0,0,0,0,0s0,0,0,0L40.9,12c0,0,0,0,0,0c0,0,0,0,0,0l-0.5,0.2c0,0,0,0,0,0c0,0,0,0,0,0l-0.5,0.2c0,0,0,0,0,0
				c0,0,0,0,0,0l-0.5,0.2c0,0,0,0,0,0c0,0,0,0,0,0l-0.5,0.2c0,0,0,0,0,0s0,0,0,0l-0.5,0.2c0,0,0,0,0,0c0,0,0,0,0,0l-0.5,0.2
				c0,0,0,0,0,0c0,0,0,0,0,0L37,13.3c0,0,0,0,0,0c0,0,0,0,0,0l-0.8,0.3c0,0.1,0,0.1,0.1,0.2c0,0,0,0,0,0c0,0,0,0,0,0c0,0,0,0,0,0.1
				l0.1,0c0,0,0,0,0,0l0.5,1.6l-0.3,0.2l-0.1,0c0,0.1,0,0.1,0,0.2c0,0.1,0,0.2,0,0.3l0.1,0l0.4-0.2l2-1.2l0.7-0.4l4.8-2.9
				c0.1,0,0.1-0.1,0.1-0.2c0-0.1-0.1-0.1-0.2-0.1l-5.7,0.5L38.2,11.3z M39.2,12.8l0.3,0.9l-0.3,0.2l-0.3-1L39.2,12.8z M38.7,13
				L39,14l-0.3,0.2l-0.4-1.1L38.7,13z M37.2,15.1l-0.5-1.5c0,0,0,0,0,0l0.3-0.1l0.5,1.4L37.2,15.1z M38,14.6l-0.3,0.2l-0.5-1.4
				l0.3-0.1L38,14.6L38,14.6z M38.2,14.5L38.2,14.5l-0.4-1.2l0.3-0.1l0.4,1.2L38.2,14.5z M40,13.4l-0.3,0.2l-0.3-0.9l0.3-0.1
				L40,13.4L40,13.4z M40.2,13.3L40,12.5l0.3-0.1l0.2,0.7L40.2,13.3z M40.9,12.9L40.8,13v0l-0.2-0.6l0.3-0.1l0.2,0.5L40.9,12.9z
				 M41.5,12.5l-0.2,0.1l-0.2-0.5l0.3-0.1l0.1,0.4L41.5,12.5z M42.1,12.2l-0.3,0.2L41.7,12l0.3-0.1L42.1,12.2L42.1,12.2z M42.8,11.8
				L42.3,12l-0.1-0.2l0.9-0.3L42.8,11.8z"/>
			<polygon class="st2" points="18.2,19.4 18.1,19 17.8,19.2 17.8,19.2 17.9,19.5 			"/>
			<path class="st2" d="M23.3,15.9C23.3,15.9,23.3,15.9,23.3,15.9L23.3,15.9l-0.4,0.2l0.5,1.6l0.1,0C23.4,17.1,23.3,16.5,23.3,15.9z
				"/>
			<path class="st2" d="M22.9,18.1C22.9,18.1,22.9,18.1,22.9,18.1C22.9,18.1,22.9,18.1,22.9,18.1l-0.6,0.2c0,0,0,0,0,0c0,0,0,0,0,0
				l-0.5,0.2c0,0,0,0,0,0c0,0,0,0,0,0l-0.5,0.2c0,0,0,0,0,0c0,0,0,0,0,0l-0.5,0.2c0,0,0,0,0,0c0,0,0,0,0,0L20.1,19c0,0,0,0,0,0
				c0,0,0,0,0,0l-0.5,0.2c0,0,0,0,0,0c0,0,0,0,0,0L19,19.4c0,0,0,0,0,0c0,0,0,0,0,0l-0.5,0.2c0,0,0,0,0,0c0,0,0,0,0,0l-0.5,0.2
				c0,0,0,0,0,0c0,0,0,0,0,0L16.9,20l4.8-0.4c0.7-0.5,1.5-0.9,2.2-1.2c-0.1-0.2-0.2-0.4-0.2-0.6L22.9,18.1z"/>
			<polygon class="st2" points="17.6,19.3 16.7,19.9 17.7,19.5 			"/>
			<polygon class="st2" points="19.9,18.8 19.7,18.1 19.5,18.2 19.3,18.3 19.6,18.9 			"/>
			<polygon class="st2" points="21.7,16.8 21.5,17 21.4,17 21.8,18.2 22.1,18.1 			"/>
			<polygon class="st2" points="20.5,18.6 20.2,17.8 20,17.9 19.9,17.9 20.1,18.8 			"/>
			<polygon class="st2" points="21.6,18.3 21.2,17.1 21.1,17.2 20.9,17.3 21.2,18.4 			"/>
			<polygon class="st2" points="18.8,19.2 18.6,18.7 18.5,18.8 18.3,18.9 18.5,19.3 			"/>
			<polygon class="st2" points="22.9,17.9 23.2,17.7 22.7,16.2 22.4,16.4 			"/>
			<polygon class="st2" points="22.4,18 22.7,17.9 22.2,16.5 21.9,16.7 			"/>
			<polygon class="st2" points="21,18.5 20.7,17.4 20.7,17.5 20.4,17.6 20.7,18.6 			"/>
			<polygon class="st2" points="19.3,19 19.1,18.4 18.8,18.6 19,19.1 			"/>
			<path class="st3" d="M21.7,19.6L16.9,20l0.9-0.3c0,0,0,0,0,0c0,0,0,0,0,0l0.5-0.2c0,0,0,0,0,0c0,0,0,0,0,0l0.5-0.2c0,0,0,0,0,0
				c0,0,0,0,0,0l0.5-0.2c0,0,0,0,0,0c0,0,0,0,0,0l0.5-0.2c0,0,0,0,0,0c0,0,0,0,0,0l0.5-0.2c0,0,0,0,0,0c0,0,0,0,0,0l0.5-0.2
				c0,0,0,0,0,0c0,0,0,0,0,0l0.5-0.2c0,0,0,0,0,0c0,0,0,0,0,0l0.5-0.2c0,0,0,0,0,0c0,0,0,0,0,0l0.5-0.2c0,0,0,0,0,0c0,0,0,0,0,0
				l0.8-0.3c0-0.1-0.1-0.1-0.1-0.2l-0.1,0l-0.5-1.6l0.3-0.2l0.1,0c0-0.1,0-0.1,0-0.2c0-0.1,0-0.2,0-0.3l-0.1,0l-0.4,0.2l-1.2,0.7
				l-0.6,0.3l-5.7,3.4c-0.1,0-0.1,0.1-0.1,0.2c0,0.1,0.1,0.1,0.2,0.1c0,0,0,0,0,0l5.5-0.5C21.3,19.9,21.5,19.8,21.7,19.6z M21.4,17
				L21.4,17l0.3-0.2l0.4,1.3l-0.3,0.1L21.4,17z M22.7,16.2l0.5,1.5l-0.3,0.1l-0.5-1.5L22.7,16.2z M21.9,16.7l0.3-0.2v0l0.5,1.4
				L22.4,18L21.9,16.7z M21.1,17.2l0.1-0.1l0.4,1.1l-0.3,0.1l-0.3-1.1L21.1,17.2z M20.7,17.5L20.7,17.5l0.4,1l-0.3,0.1l-0.3-0.9
				L20.7,17.5z M20,17.9l0.2-0.1l0.3,0.9l-0.3,0.1l-0.3-0.8L20,17.9z M19.5,18.2l0.2-0.1v0l0.2,0.8l-0.3,0.1l-0.2-0.7L19.5,18.2z
				 M19.1,18.4l0.2,0.6L19,19.1l-0.2-0.5L19.1,18.4z M18.5,18.8l0.2-0.1l0.2,0.5l-0.3,0.1l-0.1-0.4L18.5,18.8z M17.8,19.2l0.3-0.2
				l0.1,0.4l-0.3,0.1L17.8,19.2L17.8,19.2z M17.6,19.3l0.1,0.2l-1,0.3L17.6,19.3z"/>
			<path class="st2" d="M36.5,14.6C36.5,14.6,36.5,14.5,36.5,14.6C36.5,14.5,36.5,14.6,36.5,14.6z"/>
			<path class="st2" d="M36,12.9C36,13,36,13,36,12.9C36,13,36,13,36,12.9z"/>
			<path class="st2" d="M36.6,15.4c0,0.1,0,0.2,0,0.2C36.6,15.6,36.6,15.5,36.6,15.4C36.6,15.5,36.6,15.4,36.6,15.4z"/>
			<path class="st2" d="M29.4,9C29.4,9,29.4,9,29.4,9C29.4,9,29.4,9,29.4,9z"/>
			<path class="st2" d="M33.9,10.3C33.9,10.3,33.9,10.3,33.9,10.3C33.9,10.3,33.9,10.3,33.9,10.3C33.9,10.3,33.9,10.3,33.9,10.3z"/>
			<path class="st2" d="M36.4,14.2C36.4,14.2,36.4,14.1,36.4,14.2C36.4,14.1,36.4,14.2,36.4,14.2z"/>
			<path class="st2" d="M36.6,15.1c0,0.1,0,0.1,0,0.2C36.6,15.2,36.6,15.2,36.6,15.1z"/>
			<path class="st2" d="M36.4,13.9C36.4,13.9,36.4,13.9,36.4,13.9C36.4,13.9,36.4,13.9,36.4,13.9z"/>
			<path class="st2" d="M36.6,15.9c0-0.1,0-0.2,0-0.3C36.6,15.8,36.6,15.9,36.6,15.9C36.6,15.9,36.6,15.9,36.6,15.9z"/>
			<path class="st2" d="M23.4,14.6c0-0.1,0-0.2,0-0.3C23.4,14.4,23.4,14.5,23.4,14.6z"/>
			<path class="st2" d="M28.5,9.2C28.5,9.2,28.5,9.2,28.5,9.2C28.5,9.2,28.5,9.2,28.5,9.2z"/>
			<path class="st2" d="M28.1,9.3C28.1,9.3,28.1,9.3,28.1,9.3C28.1,9.3,28.1,9.3,28.1,9.3C28.1,9.3,28.1,9.3,28.1,9.3z"/>
			<path class="st2" d="M23.5,14.2c0-0.1,0-0.1,0-0.2C23.5,14.1,23.5,14.2,23.5,14.2z"/>
			<path class="st2" d="M29.8,9c0.1,0,0.1,0,0.2,0C29.9,9,29.9,9,29.8,9C29.8,9,29.8,9,29.8,9z"/>
			<path class="st2" d="M23.5,13.9c0-0.1,0-0.1,0-0.2C23.6,13.8,23.6,13.9,23.5,13.9z"/>
			<path class="st2" d="M23.3,15.9c0-0.1,0-0.1,0-0.2C23.3,15.7,23.3,15.8,23.3,15.9C23.3,15.9,23.3,15.9,23.3,15.9z"/>
			<path class="st2" d="M23.3,15.4c0,0.1,0,0.2,0,0.3C23.3,15.6,23.3,15.5,23.3,15.4C23.3,15.4,23.3,15.4,23.3,15.4z"/>
			<path class="st2" d="M35.9,12.6C35.9,12.6,35.9,12.6,35.9,12.6C35.9,12.6,35.9,12.6,35.9,12.6z"/>
			<path class="st2" d="M36.5,14.8c0,0,0,0.1,0,0.1C36.6,14.8,36.5,14.8,36.5,14.8z"/>
			<path class="st2" d="M23.4,14.9c0,0,0-0.1,0-0.1C23.4,14.8,23.4,14.9,23.4,14.9z"/>
			<path class="st2" d="M23.3,15.2c0,0,0-0.1,0-0.1C23.3,15.1,23.3,15.2,23.3,15.2z"/>
			<polygon class="st2" points="36.3,13.7 36.3,13.7 36.3,13.7 			"/>
			<polygon class="st2" points="36.4,17.4 36.4,17.4 36.4,17.4 			"/>
			<polygon class="st2" points="36.2,13.4 36.2,13.4 36.2,13.4 			"/>
			<path class="st2" d="M36.2,15.7c0-3.5-2.8-6.3-6.3-6.3s-6.3,2.8-6.3,6.3c0,0.9,0.2,1.8,0.6,2.6c1.8-0.8,3.7-1.2,5.7-1.2
				c2,0,3.9,0.4,5.7,1.2C36,17.5,36.2,16.6,36.2,15.7z M25.5,13c0,0,0.8-0.8,1.7-0.8c1.3,0,1.9,0.7,1.9,0.7v0.4c0,0-0.8-0.8-1.9-0.8
				c-0.8,0-1.6,0.7-1.6,0.7L25.5,13z M28.5,14.3c0.1,0,0.1-0.1,0.1-0.2c0-0.1,0-0.1-0.1-0.3c-0.1-0.1-0.3-0.2-0.5-0.2
				c0.2,0.5-0.2,0.8-0.2,0.8c-0.1,0-0.4,0-0.5,0c-0.1-0.1-0.2-0.2-0.3-0.4c-0.1-0.2,0-0.4,0-0.4s-0.3,0.1-0.5,0.2
				c-0.2,0.2-0.1,0.3,0,0.4c0,0,0,0,0,0c0,0,0,0,0,0c-0.4-0.1-0.6-0.3-0.6-0.3s0.2-0.4,1.1-0.6c1.1-0.3,1.6,0.3,1.7,0.4
				c0.1,0.1,0.1,0.2,0.1,0.2C28.8,14.3,28.7,14.3,28.5,14.3C28.3,14.4,28.5,14.3,28.5,14.3z M31.4,16.5c-0.2,0.2-0.4,0.2-0.6,0.1
				c-0.2,0.2-0.4,0.3-0.7,0.3c-0.2,0-0.5-0.1-0.7-0.3c-0.2,0.1-0.5,0.1-0.6-0.1l0,0l0.1-0.1l0,0c0.2,0.2,0.5,0,0.5,0l0,0l0,0
				c0,0,0,0,0.1,0.1c0.1,0.1,0.3,0.2,0.5,0.2c0,0,0,0,0,0c0.2,0,0.4-0.1,0.6-0.2l0.1-0.1l0.1,0.1c0.1,0.1,0.1,0.1,0.2,0.1
				c0.1,0,0.2,0,0.2-0.1l0,0L31.4,16.5L31.4,16.5z M33.5,14.4C33.4,14.4,33.4,14.4,33.5,14.4C33.5,14.4,33.5,14.4,33.5,14.4
				c0.1-0.1,0.2-0.3,0-0.5c-0.2-0.2-0.5-0.2-0.5-0.2s0,0.2,0,0.4c-0.1,0.2-0.2,0.4-0.3,0.4c-0.1,0-0.4,0-0.5,0
				c-0.1,0-0.4-0.3-0.2-0.8c-0.2,0-0.3,0.1-0.4,0.2c-0.1,0.1-0.1,0.2-0.1,0.3c0,0.1,0.1,0.1,0.1,0.2c0,0,0.2,0.1,0,0.1
				c-0.2-0.1-0.3-0.1-0.4-0.2c0,0,0-0.1,0.1-0.2c0.1-0.1,0.6-0.7,1.7-0.4c0.9,0.2,1.1,0.6,1.1,0.6S33.9,14.3,33.5,14.4z M34.5,13.2
				c0,0-0.8-0.7-1.6-0.7c-1.1,0-1.9,0.8-1.9,0.8v-0.4c0,0,0.7-0.7,1.9-0.7c0.9,0,1.7,0.8,1.7,0.8L34.5,13.2z"/>
			<path class="st2" d="M30.1,9C30.1,9,30.1,9,30.1,9C30.1,9,30.1,9,30.1,9C30,9,30,9,30,9c0,0,0,0,0,0C30,9,30.1,9,30.1,9z"/>
			<polygon class="st2" points="26.4,10.1 26.4,10.1 26.4,10.1 			"/>
			<path class="st2" d="M23.6,13.7c0-0.1,0-0.1,0.1-0.2C23.7,13.5,23.6,13.6,23.6,13.7z"/>
			<path class="st3" d="M29.2,13.4v-0.4c0,0-0.7-0.7-1.9-0.7c-0.9,0-1.7,0.8-1.7,0.8l0.2,0.2c0,0,0.8-0.7,1.6-0.7
				C28.3,12.5,29.2,13.4,29.2,13.4z"/>
			<path class="st3" d="M31,12.9v0.4c0,0,0.8-0.8,1.9-0.8c0.8,0,1.6,0.7,1.6,0.7l0.2-0.2c0,0-0.8-0.8-1.7-0.8
				C31.6,12.2,31,12.9,31,12.9z"/>
			<path class="st3" d="M31.3,16.3c-0.1,0.1-0.1,0.1-0.2,0.1c-0.1,0-0.2,0-0.2-0.1l-0.1-0.1l-0.1,0.1c-0.2,0.1-0.4,0.2-0.6,0.2
				c0,0,0,0,0,0c-0.2,0-0.4-0.1-0.5-0.2c0-0.1-0.1-0.1-0.1-0.1l0,0l0,0c0,0-0.3,0.2-0.5,0l0,0l-0.1,0.1l0,0c0.2,0.2,0.4,0.2,0.6,0.1
				c0.2,0.2,0.4,0.3,0.7,0.3c0.3,0,0.5-0.1,0.7-0.3c0.2,0.1,0.5,0.1,0.6-0.1l0,0L31.3,16.3L31.3,16.3z"/>
			<path class="st3" d="M28.9,14.1c0,0,0-0.1-0.1-0.2c-0.1-0.1-0.6-0.7-1.7-0.4c-0.9,0.2-1.1,0.6-1.1,0.6s0.2,0.2,0.6,0.3
				c0,0,0,0,0,0c0,0,0,0,0,0c-0.1-0.1-0.2-0.2,0-0.4c0.2-0.2,0.5-0.2,0.5-0.2s0,0.2,0,0.4c0.1,0.2,0.2,0.4,0.3,0.4
				c0.1,0,0.4,0,0.5,0c0.1,0,0.4-0.3,0.2-0.8c0.2,0,0.4,0.1,0.5,0.2c0.1,0.1,0.1,0.2,0.1,0.3c0,0.1-0.1,0.1-0.1,0.2
				c0,0-0.2,0.1,0,0.1C28.7,14.3,28.8,14.3,28.9,14.1z"/>
			<path class="st3" d="M33,13.5c-1.1-0.3-1.6,0.4-1.7,0.4c-0.1,0.1-0.1,0.2-0.1,0.2c0.1,0.1,0.2,0.2,0.4,0.2c0.2,0.1,0-0.1,0-0.1
				c-0.1,0-0.1-0.1-0.1-0.2c0-0.1,0-0.1,0.1-0.3c0.1-0.1,0.2-0.2,0.4-0.2c-0.2,0.5,0.2,0.8,0.2,0.8c0.1,0,0.4,0,0.5,0
				c0.1-0.1,0.2-0.2,0.3-0.4c0.1-0.2,0-0.4,0-0.4s0.3,0.1,0.5,0.2c0.2,0.2,0.1,0.3,0,0.4c0,0,0,0,0,0c0,0,0,0,0,0
				c0.4-0.1,0.6-0.3,0.6-0.3S33.9,13.7,33,13.5z"/>
			<path class="st3" d="M36.3,17.6c0-0.1,0-0.1,0-0.2c0,0,0,0,0,0c0.1-0.5,0.2-1,0.2-1.5c0-0.1,0-0.2,0-0.3c0-0.1,0-0.2,0-0.2
				c0-0.1,0-0.1,0-0.2c0-0.1,0-0.1,0-0.2c0-0.1,0-0.1,0-0.2c0,0,0-0.1,0-0.1c0-0.1,0-0.1,0-0.2c0,0,0-0.1,0-0.1c0-0.1,0-0.2-0.1-0.3
				c0,0,0-0.1,0-0.1c0-0.1,0-0.1,0-0.2c0,0,0,0,0,0c0-0.1,0-0.1-0.1-0.2c0,0,0,0,0-0.1c0,0,0,0,0,0c0-0.1,0-0.1-0.1-0.2
				c0,0,0-0.1-0.1-0.1c0,0,0,0,0,0c0-0.1-0.1-0.2-0.1-0.3c0,0,0,0,0-0.1c0-0.1-0.1-0.2-0.1-0.3c0,0,0,0,0,0
				c-0.1-0.2-0.3-0.5-0.4-0.7c-0.1-0.1-0.2-0.2-0.3-0.4c-0.4-0.4-0.8-0.9-1.2-1.2c0,0-0.1,0-0.1-0.1c0,0,0,0,0,0c0,0,0,0-0.1,0
				c-0.5-0.3-1-0.6-1.6-0.8c-0.1-0.1-0.3-0.1-0.4-0.1C31.2,9.1,30.7,9,30.1,9c0,0-0.1,0-0.1,0c-0.1,0-0.1,0-0.2,0
				c-0.1,0-0.3,0-0.4,0c0,0,0,0,0,0c-0.3,0-0.6,0.1-0.8,0.1c0,0,0,0,0,0c-0.1,0-0.3,0.1-0.4,0.1c0,0,0,0,0,0c-0.1,0-0.3,0.1-0.4,0.1
				c-0.5,0.2-0.9,0.4-1.3,0.7c0,0,0,0,0,0c-0.1,0.1-0.2,0.1-0.3,0.2c-0.1,0-0.1,0.1-0.2,0.1c-0.4,0.3-0.8,0.7-1.2,1.2
				c-0.1,0.1-0.2,0.2-0.3,0.4c-0.3,0.5-0.6,1-0.8,1.5c0,0.1,0,0.1-0.1,0.2c0,0,0,0.1,0,0.1c0,0.1,0,0.1,0,0.2c0,0,0,0.1,0,0.1
				c0,0.1,0,0.1,0,0.2c0,0,0,0.1,0,0.1c0,0.1,0,0.2,0,0.3c0,0,0,0.1,0,0.1c0,0,0,0.1,0,0.1c0,0.1,0,0.1,0,0.2c0,0,0,0.1,0,0.1
				c0,0.1,0,0.1,0,0.2c0,0.1,0,0.2,0,0.3c0,0.1,0,0.1,0,0.2c0,0.6,0.1,1.2,0.3,1.8c0,0.1,0,0.1,0.1,0.2c0.1,0.2,0.1,0.4,0.2,0.6
				c0.1,0,0.2-0.1,0.3-0.1c-0.4-0.8-0.6-1.7-0.6-2.6c0-3.5,2.8-6.3,6.3-6.3s6.3,2.8,6.3,6.3c0,0.9-0.2,1.8-0.6,2.6
				c0.1,0,0.2,0.1,0.3,0.1c0.1-0.2,0.2-0.4,0.2-0.6C36.3,17.8,36.3,17.7,36.3,17.6z"/>
			<path class="st3" d="M24.5,11.9c0.1-0.1,0.2-0.2,0.3-0.4l-0.1,0l-0.4,0l-1.4-0.1l-0.6-0.1l-6.6-0.5c-0.1,0-0.2,0-0.2,0.1
				c0,0.1,0,0.2,0.1,0.2l4.6,2.8l0.4,0.2l0,0l2.5,1.5l0.4-0.2l-6.5-3.9l1,0.3c0,0,0,0,0,0c0,0,0,0,0,0l0.5,0.2c0,0,0,0,0,0
				c0,0,0,0,0,0l0.5,0.2c0,0,0,0,0,0c0,0,0,0,0,0l0.5,0.2c0,0,0,0,0,0c0,0,0,0,0,0l0.5,0.2c0,0,0,0,0,0c0,0,0,0,0,0l0.5,0.2
				c0,0,0,0,0,0c0,0,0,0,0,0l0.5,0.2c0,0,0,0,0,0c0,0,0,0,0,0l0.5,0.2c0,0,0,0,0,0c0,0,0,0,0,0l0.5,0.2c0,0,0,0,0,0c0,0,0,0,0,0
				l0.5,0.2c0,0,0,0,0,0c0,0,0,0,0,0l0.8,0.3l0.1-0.2l-0.1,0l0.5-1.6L24.5,11.9z M17.8,11.6l-0.9-0.3l1,0.1L17.8,11.6z M18.3,11.8
				L18,11.7l0.1-0.3l0.4,0L18.3,11.8z M18.9,12l-0.3-0.1l0.1-0.4l0.4,0L18.9,12z M19.4,12.1L19.1,12l0.2-0.5l0.4,0L19.4,12.1z
				 M20,12.3l-0.3-0.1l0.2-0.7l0.4,0L20,12.3z M20.5,12.5l-0.3-0.1l0.3-0.8l0.4,0L20.5,12.5z M21.1,12.7l-0.3-0.1l0.3-0.9l0.4,0
				L21.1,12.7z M21.7,12.9l-0.3-0.1l0.3-1.1l0.4,0L21.7,12.9z M22.2,13l-0.3-0.1l0.4-1.2l0.4,0L22.2,13z M22.8,13.2l-0.3-0.1
				l0.4-1.3l0.4,0L22.8,13.2z M23.3,13.4L23,13.3l0.5-1.4l0.4,0L23.3,13.4z"/>
		</g>
	</g>
</g>
</svg>
