<?xml version="1.0" encoding="utf-8"?>
<!-- Generator: Adobe Illustrator 25.0.0, SVG Export Plug-In . SVG Version: 6.00 Build 0)  -->
<svg version="1.1" id="Capa_1" xmlns="http://www.w3.org/2000/svg" xmlns:xlink="http://www.w3.org/1999/xlink" x="0px" y="0px"
	 viewBox="0 0 60 80" style="enable-background:new 0 0 60 80;" xml:space="preserve">
<style type="text/css">
	.st0{fill:#25418E;}
	.st1{fill:#FFE100;}
	.st2{fill:#C79600;}
	.st3{fill:#FFFFFF;}
	.st4{fill:#008D00;}
	.st5{fill-rule:evenodd;clip-rule:evenodd;}
	.st6{fill:#08612C;}
	.st7{fill:#0087D0;}
</style>
<g>
	<path class="st0" d="M34.5,74.4c-0.1,0.3-0.3,0.7-0.4,1.2c-0.4,1-0.7,2.2-0.7,2.2s1.5,0,2,0c0.1,0,0.2,0,0.3,0
		c-0.1-1.1-0.3-2.7-0.6-4.8C35.1,73,34.9,73.5,34.5,74.4z"/>
	<path class="st0" d="M25.6,74.8c-0.5-1-1-2-1-2c-0.3,1.8-0.5,3.3-0.7,4.4c0,0,0,0,0,0c0.3,1,0.6,1,1.1,1c0.5,0,1.7-0.2,1.7-0.2
		s-0.4-1.2-0.7-2.2C25.9,75.4,25.8,75.1,25.6,74.8z"/>
	<g>
		<g>
			<path class="st1" d="M44.9,14.8c-1.8-1.6-5.1-0.9-5.7-0.9c0.3-0.3,4.8-2.7,4.7-2.9c-0.2-0.3-2.1,0.1-5.5,0.3
				c0.9-2,1.7-4.2,3.8-4.9C39.8,5.6,37,8.7,36.5,9c0.1-0.4,2.2-5.6,2.2-5.6S35,6.6,34.6,7.1c-0.5-1.7-1-5.7,0.3-6.1
				c-2.4,0.6-2.5,3.8-3.1,5.7c0,0-1.6-6-1.6-5.9l-1.2,5.1c-1.6-1.4-4-3.5-3.3-4.9c-1.2,2.4,0.4,4.7,0.9,6.7l-5-4.3
				c-0.1-0.1-0.4,0-0.3,0.2c0,0,2.3,4.7,2.3,4.7c-2-0.1-5.1-0.7-5.4-2c0.6,2.5,3.2,3.7,4.8,5l-6.8-0.7c-0.2,0-0.1,0.2,0,0.3
				c0,0,4.6,2.7,4.6,2.7c-1.7,1.1-4.5,2.3-5.5,1.4c1.8,1.6,4.5,1.1,6.6,1.1c-5.1,3.4-8,4.1,1,3c7.4-0.9,13.3,0,20.9,0.6
				c0.8,0.1-4.9-3-4.7-3.1c1.7-0.8,3.9-2.6,5.7-1.8C45,15,45.1,14.9,44.9,14.8z"/>
			<g>
				<path class="st2" d="M24,17.4c0.1,0.2,0.1,0.4,0.2,0.6c0,0.1,0.3,0,0.4-0.1c0,0,0,0,0-0.1c-0.4-0.8-0.6-1.6-0.6-2.6
					c0-3.4,2.8-6.1,6.1-6.1c3.4,0,6.1,2.8,6.1,6.1c0,0.9-0.2,1.8-0.6,2.6c0.1,0,0.2,0.1,0.3,0.1c0.1-0.2,0.2-0.4,0.2-0.6l0.1,0
					l-0.2,0.6c0.1,0,0.1,0.1,0.2,0.1l0.2-0.6l0.3,0.1l-0.2,0.7c0.1,0,0.1,0.1,0.2,0.1l0.2-0.7l0.3,0.1l-0.3,0.8
					c0.1,0,0.1,0.1,0.2,0.1l0.3-0.8L38,18l-0.3,0.9c0.1,0,0.1,0.1,0.2,0.1l0.3-1l0.3,0.1l-0.3,1l0,0c0.2,0.1,0.4,0.3,0.6,0.4
					l5.4,0.4c0,0,0,0,0,0c0.1,0,0.2-0.1,0.2-0.1c0-0.1,0-0.2-0.1-0.2l-4.9-3c0.4-0.2,0.7-0.4,1.1-0.6c1.5-0.8,3-1.6,4.4-1
					c0.1,0,0.2,0,0.2-0.1c0-0.1,0-0.2,0-0.2c-1.6-1.4-3.2-1.3-4.7-1.2c-0.2,0-0.5,0-0.7,0l4.6-2.8c0.1,0,0.1-0.1,0.1-0.2
					c0-0.1-0.1-0.1-0.2-0.1L38.6,11c0.2-0.4,0.4-0.7,0.5-1.1c0.7-1.6,1.5-3.1,3-3.4c0.1,0,0.2-0.1,0.1-0.2c0-0.1-0.1-0.2-0.2-0.2
					c-2.1-0.2-3.4,0.8-4.5,1.8c-0.3,0.2-0.5,0.4-0.8,0.6L39,3.4c0-0.1,0-0.2-0.1-0.2c-0.1-0.1-0.2,0-0.2,0l-4.1,3.5
					c-0.1-0.4-0.1-0.7-0.2-1.1c-0.3-1.7-0.6-3.3,0.4-4.5c0.1-0.1,0.1-0.2,0-0.2c-0.1-0.1-0.2-0.1-0.2,0c-1.9,1.1-2.2,2.6-2.6,4.1
					c-0.1,0.4-0.2,0.9-0.3,1.3l-1.4-5.7c0-0.1-0.1-0.1-0.2-0.1c-0.1,0-0.2,0.1-0.2,0.1l-1.2,5.1c-0.2-0.2-0.5-0.4-0.7-0.7
					c-1.3-1.2-2.5-2.3-2.3-3.9c0-0.1-0.1-0.2-0.1-0.2c-0.1,0-0.2,0-0.2,0.1c-0.9,2-0.3,3.4,0.3,4.9c0.2,0.5,0.4,1,0.6,1.5l-4.8-4.1
					c-0.1-0.1-0.2-0.1-0.2,0c-0.1,0.1-0.1,0.1-0.1,0.2l2,4.7c-0.2,0-0.5-0.1-0.7-0.1c-1.7-0.2-3.4-0.4-4.2-1.8
					c0-0.1-0.1-0.1-0.2-0.1C18,6.2,18,6.3,18,6.4c0.4,2.1,1.8,2.9,3.1,3.8c0.5,0.3,1,0.6,1.4,0.9l-6.4-0.5c-0.1,0-0.2,0-0.2,0.1
					c0,0.1,0,0.2,0.1,0.2l4.5,2.7c-0.2,0.1-0.4,0.2-0.5,0.3c-1.5,0.8-3,1.6-4.4,1c-0.1,0-0.2,0-0.2,0.1c0,0.1,0,0.2,0,0.2
					c1.6,1.4,3.2,1.3,4.7,1.2c0.5,0,1-0.1,1.5-0.1L16,19.7c-0.1,0-0.1,0.1-0.1,0.2c0,0.1,0.1,0.1,0.2,0.1c0,0,0,0,0,0l5.4-0.4
					c0.2-0.1,0.4-0.3,0.6-0.4l-4.6,0.4L24,17.4z M37.2,13.1l0.3-0.1l0.4,1.3v0l-0.3,0.2L37.2,13.1z M37.5,14.6l-0.3,0.2l-0.5-1.5
					c0,0,0,0,0,0l0.3-0.1L37.5,14.6z M37.8,12.9l0.3-0.1l0.4,1.2l-0.3,0.2L37.8,12.9z M38.3,12.8l0.3-0.1l0.3,1l-0.3,0.2L38.3,12.8z
					 M38.9,12.6l0.3-0.1l0.3,0.9l-0.3,0.2L38.9,12.6z M39.7,13.3l-0.3-0.8l0.3-0.1l0.3,0.8L39.7,13.3z M40.2,13L40,12.2l0.3-0.1
					l0.2,0.6L40.2,13z M40.7,12.7L40.7,12.7l-0.2-0.6l0.3-0.1l0.2,0.5L40.7,12.7z M41.2,12.4L41,11.9l0.3-0.1l0.1,0.4L41.2,12.4z
					 M41.7,12l-0.1-0.3l0.3-0.1l0.1,0.3L41.7,12z M42.2,11.7l-0.1-0.2l0.9-0.3L42.2,11.7z M37.9,8.2c1-0.8,1.9-1.6,3.3-1.7
					c-1.1,0.7-1.7,2-2.4,3.3C38.7,10,38.2,11,38.2,11c0,0,0,0,0,0l-2.5,0.2l0.9-2C36.6,9.2,37.8,8.3,37.9,8.2z M36.6,8.3l-0.1,0.3
					L35.6,8l0.2-0.3L36.6,8.3z M35.9,7.5l0.2-0.3l0.7,0.5L36.7,8L35.9,7.5z M36.4,8.8l-0.1,0.3l-0.9-0.7l0.2-0.3L36.4,8.8z
					 M36.1,9.3L36,9.7l-1-0.8l0.2-0.3L36.1,9.3z M35.9,9.9l-0.1,0.3l-1.2-0.8l0.2-0.3L35.9,9.9z M35.7,10.4l-0.1,0.3l-1.3-0.9
					c0,0,0,0,0,0l0.2-0.3L35.7,10.4z M36.9,7.5l-0.6-0.4l0.2-0.3L37,7.2L36.9,7.5z M37.1,7l-0.5-0.4l0.2-0.3l0.4,0.3L37.1,7z
					 M37.4,6.4L37,6.1l0.2-0.3l0.3,0.2L37.4,6.4z M37.6,5.9l-0.3-0.2l0.2-0.3l0.2,0.2L37.6,5.9z M37.8,5.3l-0.2-0.1l0.6-0.8
					L37.8,5.3z M32.4,5c0.3-1.2,0.6-2.4,1.7-3.4c-0.5,1.2-0.2,2.6,0,4c0.1,0.5,0.2,0.9,0.2,1.3l-2,1.8l-0.4-1.9
					C32.1,6.2,32.3,5.6,32.4,5z M26.6,7.1c-0.1-0.3-0.5-1.3-0.5-1.5c-0.5-1.2-1-2.3-0.6-3.7c0.3,1.3,1.4,2.3,2.4,3.3
					C27.9,5.2,28.7,6,28.7,6l0,0L28,8.8l-1.2-1.1C26.8,7.7,26.7,7.4,26.6,7.1z M27.2,8.5l0.3,0.2l-1.3,0.9L26,9.4L27.2,8.5z
					 M25.8,9.2L25.6,9l1.1-0.8L27,8.4L25.8,9.2z M26.4,7.9L26.6,8l-1.1,0.8l-0.2-0.3l1-0.7L26.4,7.9z M26.1,7.6l-1,0.7L25,8l0.9-0.6
					L26.1,7.6z M25.4,7l0.2,0.2l-0.8,0.6l-0.2-0.3L25.4,7L25.4,7z M25.2,6.9l-0.7,0.5l-0.2-0.3L25,6.6L25.2,6.9z M24.7,6.4l0.1,0.1
					l-0.6,0.5L24,6.7l0.6-0.4L24.7,6.4z M24.3,6.1l-0.5,0.4l-0.2-0.3l0.5-0.3L24.3,6.1z M23.9,5.7L23.5,6l-0.2-0.3l0.3-0.3L23.9,5.7
					z M23.4,5.3l-0.3,0.2l-0.2-0.3l0.2-0.2L23.4,5.3z M22.2,4.3L23,5l-0.2,0.1L22.2,4.3L22.2,4.3z M21.3,9.8
					c-1.1-0.7-2.1-1.3-2.7-2.6c1,0.9,2.4,1,3.8,1.2c0.3,0,0.6,0.1,0.9,0.1l0,0l1.1,2.7l-1.4-0.1C23,11,22.5,10.6,21.3,9.8z
					 M23.8,11.6l0.4,0l-0.5,1.5L23.4,13L23.8,11.6z M23.1,12.9l-0.3-0.1l0.4-1.3l0.4,0L23.1,12.9z M22.7,11.5l0.4,0l-0.4,1.2
					l-0.3-0.1L22.7,11.5z M22.4,11.4l-0.4,1.1l-0.3-0.1l0.3-1L22.4,11.4z M21.8,11.4l-0.3,1l-0.3-0.1l0.3-0.9L21.8,11.4z M21.3,11.4
					L21,12.2l-0.3-0.1l0.3-0.8L21.3,11.4z M20.3,11.3l0.4,0L20.4,12l-0.3-0.1L20.3,11.3z M19.7,11.2l0.4,0l-0.2,0.6l-0.3-0.1
					L19.7,11.2z M19.1,11.2l0.4,0l-0.2,0.5L19,11.6L19.1,11.2z M18.6,11.1l0.4,0l-0.1,0.3l-0.3-0.1L18.6,11.1z M18.3,11.1l-0.1,0.2
					L17.3,11L18.3,11.1z M20.7,16c0,0-0.6,0-0.7,0c-1.3,0.1-2.5,0.2-3.7-0.5c1.3,0.1,2.6-0.6,3.8-1.3c0.1,0,0.7-0.4,0.7-0.4l0,0
					l2.4,1.5L22.1,16C21.9,16,20.8,16,20.7,16z M17.2,19.4l0.9-0.5l0.1,0.2L17.2,19.4z M18.4,19l-0.1-0.3l0.3-0.2l0.1,0.4L18.4,19z
					 M18.9,18.8l-0.1-0.4l0.3-0.2l0.2,0.5L18.9,18.8z M19.5,18.7l-0.2-0.5l0.3-0.2l0.2,0.6L19.5,18.7z M20,18.5l-0.2-0.7l0.3-0.2v0
					l0.2,0.7L20,18.5z M20.6,18.3l-0.3-0.8l0.3-0.2l0.3,0.9L20.6,18.3z M21.1,18.1l-0.3-0.9l0.3-0.2l0.3,1L21.1,18.1z M21.7,17.9
					l-0.3-1l0.3-0.2l0.4,1.1L21.7,17.9z M22.2,17.8l-0.4-1.2l0.3-0.2l0.4,1.2L22.2,17.8z M22.7,17.6l-0.4-1.3l0.3-0.2v0l0.4,1.4
					L22.7,17.6z M23.3,17.4L22.8,16l0.3-0.2l0.5,1.5L23.3,17.4z M23.7,15.5c0,0.6,0.1,1.2,0.3,1.7l-0.1,0l-0.5-1.6L23.7,15.5
					 M23.7,15.1c-0.2-0.1-6.4-3.9-6.4-3.9l6.7,2.2C24,13.4,23.7,14.3,23.7,15.1z M24,13.2l-0.1,0l0.5-1.5l0.4,0
					C24.5,12.1,24,13.2,24,13.2z M26.2,10.1c-0.4,0.3-0.8,0.7-1.2,1.1l-0.1,0L22,4.4L26.2,10.1z M26.7,9.8
					C26.7,9.8,26.7,9.8,26.7,9.8c-0.1,0.1-0.2,0.1-0.3,0.2l-0.1-0.1l1.3-1l0.3,0.3C27.5,9.4,27.1,9.6,26.7,9.8z M33.9,10
					c-0.5-0.3-1-0.6-1.5-0.8L38,4.3v0L33.9,10z M34.1,10.1l0.1-0.1c0,0,1.3,1,1.3,1l-0.1,0.3l-0.1,0C34.9,10.8,34.5,10.5,34.1,10.1z
					 M36.3,13.2c0,0-0.3-0.7-0.4-0.9c-0.1-0.2-0.3-0.4-0.4-0.7L43,11L36.3,13.2z M38.8,19.2l-0.4,0l0.3-1l0.3,0.1L38.8,19.2z
					 M39.1,19.2l0.3-0.8l0.3,0.1l-0.2,0.8L39.1,19.2z M40,19.3l-0.4,0l0.2-0.7l0.3,0.1L40,19.3z M40.6,19.4l-0.4,0l0.2-0.6l0.3,0.1
					L40.6,19.4z M41.2,19.4l-0.4,0l0.2-0.5l0.3,0.1L41.2,19.4z M41.8,19.4l-0.4,0l0.1-0.3l0.3,0.1L41.8,19.4z M42,19.5l0.1-0.2
					l0.9,0.3L42,19.5z M36.6,14.7c0-0.1,0-0.3,0-0.3c0-0.1,0-0.2,0-0.3c0-0.1,0-0.2-0.1-0.3c0,0,0-0.2-0.1-0.3c0,0,0-0.1-0.1-0.2
					l0.1,0c0,0,0.5,1.5,0.5,1.5l-0.3,0.2C36.6,15.1,36.6,14.8,36.6,14.7z M36.6,15.5L36.6,15.5l6.4,3.8l-6.7-2.2c0-0.1,0-0.1,0-0.2
					c0,0,0,0,0,0C36.5,16.5,36.6,16.1,36.6,15.5L36.6,15.5z M40.3,15.8c-0.1,0-1.2,0.6-1.3,0.7l0,0l-2-1.2l2-1.2
					c0.1,0,1.3-0.1,1.4-0.1c1.3-0.1,2.5-0.2,3.7,0.5C42.8,14.4,41.6,15.1,40.3,15.8z M31.2,5.8l0.1,0.3l-1,0l0-0.3L31.2,5.8z
					 M30.3,5.6l0-0.3l0.8,0l0.1,0.3L30.3,5.6z M31.4,6.4l0.1,0.3l-1.2,0l0-0.3L31.4,6.4z M31.5,7l0.1,0.3l-1.3,0l0-0.3L31.5,7z
					 M31.6,7.5l0.1,0.3l-1.4,0l0-0.3L31.6,7.5z M31.8,8.1l0.1,0.3l-1.5,0c0,0,0,0,0,0l0-0.3L31.8,8.1z M31,5l-0.8,0l0-0.3l0.7,0
					L31,5z M30.9,4.4l-0.6,0l0-0.3l0.5,0L30.9,4.4z M30.8,3.9l-0.5,0l0-0.3l0.4,0L30.8,3.9z M30.6,3.3l-0.4,0l0-0.3l0.3,0L30.6,3.3z
					 M30.5,2.7l-0.2,0l0-0.9L30.5,2.7z M30.1,8.8c-0.6,0-1.1,0.1-1.7,0.3L30,1.8l0,0L30.1,8.8z M30.3,8.8l0-0.1c0,0,1.6,0,1.6,0
					L32,9l0,0C31.4,8.9,30.9,8.8,30.3,8.8z"/>
				<path class="st2" d="M29.4,13v-0.4c0,0-0.6-0.7-1.9-0.7c-0.9,0-1.7,0.8-1.7,0.8l0.2,0.2c0,0,0.8-0.6,1.5-0.6
					C28.6,12.2,29.4,13,29.4,13z"/>
				<path class="st2" d="M31.1,12.6V13c0,0,0.8-0.8,1.9-0.8c0.8,0,1.5,0.6,1.5,0.6l0.2-0.2c0,0-0.8-0.8-1.7-0.8
					C31.8,11.9,31.1,12.6,31.1,12.6z"/>
				<path class="st2" d="M31.4,15.9C31.4,16,31.3,16,31.2,16c-0.1,0-0.2,0-0.2-0.1l-0.1-0.1L30.8,16c-0.1,0.1-0.3,0.2-0.6,0.2
					c0,0,0,0,0,0c-0.2,0-0.4-0.1-0.5-0.2c0-0.1-0.1-0.1-0.1-0.1l0,0l0,0c0,0-0.3,0.2-0.5,0l0,0L28.9,16l0,0c0.2,0.2,0.4,0.2,0.6,0.1
					c0.2,0.2,0.4,0.3,0.7,0.3c0.2,0,0.5-0.1,0.7-0.3c0.2,0.1,0.5,0.1,0.6-0.1l0,0L31.4,15.9L31.4,15.9z"/>
				<path class="st2" d="M29,13.6c-0.1-0.1-0.6-0.7-1.7-0.4c-0.8,0.2-1.1,0.6-1.1,0.6s0.2,0.2,0.6,0.3c0,0,0,0,0,0c0,0,0,0,0,0
					c-0.1-0.1-0.2-0.2,0-0.4c0.2-0.2,0.5-0.2,0.5-0.2s0,0.2,0,0.3c0.1,0.2,0.2,0.3,0.3,0.4c0.1,0,0.4,0,0.5,0c0,0,0.4-0.3,0.2-0.8
					c0.2,0,0.3,0.1,0.5,0.2c0.1,0.1,0.1,0.2,0.1,0.3c0,0.1-0.1,0.1-0.1,0.2c0,0-0.2,0.1,0,0.1c0.2-0.1,0.3-0.1,0.4-0.2
					C29.1,13.8,29.1,13.7,29,13.6z"/>
				<path class="st2" d="M33.1,13.1c-1.1-0.3-1.6,0.3-1.7,0.4c-0.1,0.1-0.1,0.2-0.1,0.2c0.1,0.1,0.2,0.2,0.4,0.2
					c0.2,0.1,0-0.1,0-0.1c-0.1,0-0.1-0.1-0.1-0.2c0-0.1,0-0.1,0.1-0.3c0.1-0.1,0.2-0.2,0.4-0.2c-0.2,0.5,0.2,0.8,0.2,0.8
					c0.1,0,0.4,0,0.5,0c0.1-0.1,0.2-0.2,0.3-0.4c0.1-0.2,0-0.3,0-0.3s0.3,0.1,0.5,0.2c0.2,0.2,0.1,0.3,0,0.4c0,0,0,0,0,0
					c0,0,0,0,0,0c0.4-0.1,0.6-0.3,0.6-0.3S34,13.3,33.1,13.1z"/>
			</g>
		</g>
	</g>
	<g>
		<path class="st3" d="M30.2,40.8h17.4c0,0,0,0,0,0c0-12.6-7.8-22.9-17.4-22.9c0,0,0,0,0,0V40.8L30.2,40.8z"/>
	</g>
	<path class="st0" d="M43.3,23.8c-3.5-4.6-8.1-7.1-13.1-7.1s-9.6,2.5-13.1,7.1c-3.5,4.5-5.4,10.5-5.4,16.9c0,6.4,1.9,12.4,5.4,16.9
		c3.5,4.6,8.1,7.1,13.1,7.1s9.6-2.5,13.1-7.1c3.5-4.5,5.4-10.5,5.4-16.9C48.6,34.4,46.7,28.4,43.3,23.8z M30.2,17.8
		c8.1,0,14.9,7.4,16.8,17.3c-0.7-0.2-1.4-0.4-2.3-0.4c-1.3,0-2,0.5-3.3,0.5c-1.3,0-1.9-0.5-3.2-0.5c-1.3,0-1.9,0.5-3.3,0.5
		c-1.6,0-1.8-0.5-3.2-0.5c-0.7,0-1.2,0.1-1.5,0.2L30.2,17.8C30.2,17.8,30.2,17.8,30.2,17.8z M30.2,39c0.1,0,0.7-0.2,1.5-0.2
		c1.2,0,1.9,0.5,3.2,0.5c1.4,0,2.1-0.5,3.3-0.5c1.3,0,1.8,0.5,3.2,0.5c1.4,0,1.9-0.5,3.3-0.5c1.2,0,1.9,0.4,2.7,0.5
		c0,0.2,0,0.4,0,0.6c-0.8-0.1-1.7-0.5-2.8-0.5c-1.3,0-2,0.5-3.3,0.5c-1.3,0-1.9-0.5-3.2-0.5c-1.3,0-1.9,0.5-3.3,0.5
		c-1.6,0-1.8-0.5-3.2-0.5c-0.7,0-1.2,0.1-1.5,0.2V39z M44.8,38.2c-1.3,0-2,0.5-3.3,0.5c-1.3,0-1.9-0.5-3.2-0.5
		c-1.3,0-1.9,0.5-3.3,0.5c-1.6,0-1.8-0.5-3.2-0.5c-0.7,0-1.2,0.1-1.5,0.2v-0.6c0.1,0,0.7-0.2,1.5-0.2c1.2,0,1.9,0.5,3.2,0.5
		c1.4,0,2.1-0.5,3.3-0.5c1.3,0,1.8,0.5,3.2,0.5c1.4,0,1.9-0.5,3.3-0.5c1.2,0,1.9,0.4,2.7,0.5c0,0.2,0,0.4,0,0.6
		C46.7,38.6,45.8,38.2,44.8,38.2z M44.8,37c-1.3,0-2,0.5-3.3,0.5c-1.3,0-1.9-0.5-3.2-0.5c-1.3,0-1.9,0.5-3.3,0.5
		c-1.6,0-1.8-0.5-3.2-0.5c-0.7,0-1.2,0.1-1.5,0.2v-0.6c0.1,0,0.7-0.2,1.5-0.2c1.2,0,1.9,0.5,3.2,0.5c1.4,0,2.1-0.5,3.3-0.5
		c1.3,0,1.8,0.5,3.2,0.5c1.4,0,1.9-0.5,3.3-0.5c1.1,0,1.8,0.3,2.5,0.5c0,0.2,0.1,0.4,0.1,0.6C46.6,37.4,45.8,37,44.8,37z M44.8,35.9
		c-1.3,0-2,0.5-3.3,0.5c-1.3,0-1.9-0.5-3.2-0.5c-1.3,0-1.9,0.5-3.3,0.5c-1.6,0-1.8-0.5-3.2-0.5c-0.7,0-1.2,0.1-1.5,0.2v-0.6
		c0.1,0,0.7-0.2,1.5-0.2c1.2,0,1.9,0.5,3.2,0.5c1.4,0,2.1-0.5,3.3-0.5c1.3,0,1.8,0.5,3.2,0.5c1.4,0,1.9-0.5,3.3-0.5
		c1,0,1.7,0.3,2.4,0.4c0,0.2,0.1,0.4,0.1,0.6C46.5,36.2,45.7,35.9,44.8,35.9z M47.5,40.8H30.2h0v22.9c-9.6,0-17.3-10.3-17.3-22.9
		h17.4v-0.6c0.1,0,0.7-0.2,1.5-0.2c1.2,0,1.9,0.5,3.2,0.5c1.4,0,2.1-0.5,3.3-0.5c1.3,0,1.8,0.5,3.2,0.5c1.4,0,1.9-0.5,3.3-0.5
		c1.2,0,1.9,0.4,2.8,0.5C47.5,40.5,47.5,40.6,47.5,40.8C47.5,40.7,47.5,40.7,47.5,40.8z"/>
	<g>
		<path class="st3" d="M30.2,40.8L30.2,40.8L30.2,40.8l-17.3,0c0,12.6,7.8,22.9,17.3,22.9V40.8z"/>
	</g>
	<path class="st1" d="M27.7,35.8l-1.9-5.4c0.2-0.1,0.4-0.3,0.4-0.6c0-0.4-0.3-0.6-0.6-0.6c-0.2,0-0.4,0.1-0.6,0.3h-2.7
		c0-0.1-0.1-0.2-0.2-0.2v-2c0.5-0.2,0.9-0.6,0.9-1.2c0-0.7-0.6-1.2-1.2-1.2c-0.7,0-1.2,0.6-1.2,1.2c0,0.6,0.4,1,0.9,1.2v2
		c-0.1,0.1-0.1,0.1-0.2,0.2h-2.7c-0.1-0.2-0.3-0.3-0.6-0.3c-0.4,0-0.6,0.3-0.6,0.6c0,0.3,0.2,0.5,0.4,0.6l-1.9,5.4v0.1
		c0,1.2,1,2.2,2.2,2.2c1.2,0,2.2-1,2.2-2.2v-0.1l-1.9-5.4c0.1-0.1,0.2-0.1,0.3-0.3h2.7c0.1,0.1,0.2,0.2,0.4,0.3v1.1
		c0,0.1,0.1,0.2,0.2,0.2s0.2-0.1,0.2-0.2v-1.1c0.2-0.1,0.3-0.2,0.4-0.3H25c0.1,0.1,0.2,0.2,0.3,0.3l-1.9,5.4v0.1
		c0,1.2,1,2.2,2.2,2.2c1.2,0,2.2-1,2.2-2.2V35.8z M25.7,31l1.7,4.8h-1.7V31z M21.1,26.1c0-0.3,0.3-0.6,0.6-0.6s0.6,0.3,0.6,0.6
		s-0.3,0.6-0.6,0.6S21.1,26.4,21.1,26.1z M17.7,35.8h-1.7l1.7-4.8V35.8z M18,35.8V31l1.7,4.8H18z M25.4,35.8h-1.7l1.7-4.8V35.8z"/>
	<rect x="37.8" y="26.8" width="0.2" height="0.5"/>
	<rect x="38.3" y="26.8" width="0.2" height="0.5"/>
	<rect x="38.8" y="26.8" width="0.2" height="0.5"/>
	<path d="M38,29c0-0.2,0.2-0.4,0.4-0.4c0.2,0,0.4,0.2,0.4,0.4v0.5c0.4,0,0.9,0.2,1.3,0.4v-1.5l0.2-0.2v-0.7c0-0.2-0.1-0.3-0.3-0.3
		s-0.3,0.1-0.3,0.3V28h-0.6v-0.3h0.1v-0.2h-1.7v0.2h0.1V28h-0.6v-0.6c0-0.2-0.1-0.3-0.3-0.3c-0.2,0-0.3,0.1-0.3,0.3v0.7l0.2,0.2v1.4
		c0.5-0.2,0.9-0.3,1.3-0.3V29z M39.9,27.5h0.2v0.2h-0.2V27.5z M36.9,27.7h-0.2v-0.2h0.2V27.7z"/>
	<path d="M38.4,25.9c-0.4,0-0.7,0.3-0.7,0.7h1.4C39.1,26.3,38.8,25.9,38.4,25.9z"/>
	<path class="st4" d="M41.1,30.3c-0.3-0.2-0.6-0.4-0.9-0.5c-0.5-0.2-0.9-0.3-1.3-0.4c-0.2,0-0.3,0-0.5,0c-0.1,0-0.2,0-0.3,0
		c-0.4,0-0.9,0.1-1.3,0.3c-0.4,0.1-0.7,0.3-1.1,0.6c-0.5,0.3-4.9,3.9-5,3.9c0.3-0.1,0.7-0.1,1.1-0.1c0.9,0,2.2,0.5,3.2,0.5
		c0.9,0,2.4-0.5,3.3-0.5c0.9,0,2.2,0.5,3.2,0.5c0.9,0,2.4-0.5,3.3-0.5c0.9,0,1.5,0.2,1.5,0.2c0,0,0,0,0,0
		C44.6,33.1,41.4,30.6,41.1,30.3z"/>
	<path class="st1" d="M43.9,51.6v-1.8c0-0.7-0.2-1.9-1.3-2.3c-0.2-0.1-0.5-0.1-0.6-0.1c-0.1,0-0.2,0-0.3,0c-0.6,0-2.8,0-4.7,0
		c0,0,0,0,0,0c0,0,0,0,0,0c-1.4,0-2.7,0-2.7,0c0,0,0,0,0,0c0.1-0.1,0.2-0.1,0.3-0.2c0.2-0.2,0.1-0.5-0.1-0.6c0,0.1,0,0.2-0.1,0.3
		c-0.1,0.1-0.4,0.3-0.6,0.3c0-0.1-0.1-0.2-0.2-0.2h-0.8c-0.1,0-0.2,0.1-0.2,0.2C32.2,47,32,46.8,32,46.5c0,0,0-0.1,0-0.1
		c-0.1,0.1-0.2,0.2-0.2,0.4c0,0.2,0.1,0.4,0.3,0.5h-0.4l0.2,0.4h0.3l-0.6,1.5l0.7,0.5l0.5-0.1c1.1,0.2,2,2.2,2.4,2.7l0,0
		c0,0.1,0.1,0.3,0.2,0.4c0.3,0.8,0.5,1.7,0.3,2c-0.1,0.2-0.1,0.4-0.1,0.5h0.7v-2.7c0.2,0,0.4,0.1,0.6,0.1c0,0,0.1,0,0.1,0
		c0.1,0.6,0.2,1.7,0.1,2c-0.1,0.3-0.2,0.5-0.2,0.6h0.9c0-0.1,0-0.4,0-0.6c0-0.3-0.1-0.9,0-1.7c0.1-0.4,0.9-0.9,0.9-0.9c0,0,0,0,0,0
		c0.6-0.3,1.2-0.4,1.7-0.4c0.4,0.2,0.9,0.7,1,1.3c0.1,0.5,0.1,1.2,0,1.5c-0.1,0.3-0.4,0.7-0.4,0.8h0.6c0.3-0.1,0.3-0.4,0.3-0.4v-0.2
		h0.1c0,0,0-1.5,0.1-1.8c0.1-0.3,0.6,1,0.6,1.4c0,0.4-0.3,0.9-0.4,1h0.6c0.1,0,0.1,0,0.1-0.1c0.1-0.1,0.1-0.3,0.1-0.4
		c0.1,0,0.1,0,0.1,0l0.1-4.3c0.1-0.2,0.2-0.4,0.2-0.7c0,0,0,0,0,0v1.8c-0.1,0-0.1,0.1-0.1,0.3c0.1,0.5,0.1,0.7,0.1,0.7
		s0.2-0.3,0.3-0.7C44,51.6,43.9,51.6,43.9,51.6z"/>
	<path d="M28.6,50.5c-0.4,0.1-0.6-0.1-0.7-0.5c0-0.3,0-0.5,0-0.8c0-0.5,0.1-1.1,0-1.6c0-0.2,0-0.5-0.1-0.6c-0.2-0.3-0.6-0.4-0.9-0.2
		c-0.4,0.2-0.9,0.4-1.3,0.7c-0.1,0-0.1,0.1-0.2,0c-0.3-0.2-0.7-0.4-1.1-0.4c0,0,0,0,0,0c0,0,0,0,0,0c-0.4,0-0.8,0.1-1.1,0.4
		c-1.2,0.8-1.9,0.4-2.3-1c-0.5-1.7-2.3-2.5-3.9-1.7c-0.1,0-0.2,0-0.3,0c-0.2,0-0.3,0-0.5-0.1c0,0,0,0.2-0.1,0.2
		c0.1,0.1,0.3,0.3,0.3,0.3s0,0.6,0,0.8c0,0.1,0,0.1,0.1,0.2c0.2,0.1,0.2,0.3,0.2,0.5c0,0.3,0,0.5,0,0.8c0,0.1,0,0.3,0,0.5
		c0.2,0,0.7,0,0.7,0l0.8-1.8l0.2,0.1v3.8c0,0-0.9,0-1.5,0c0,0.2,0,0.5,0,0.5l0.4,1.9c0,0,0.6,0.5,0.9,0.8c0,0,0.1,0,0.1,0.1
		c0-0.3,0-0.9,0-0.9h-0.5c0,0-0.2-0.8-0.3-1.1c-0.1-0.3,0.1-0.5,0.4-0.5c0.2,0,1.4,0,1.4,0c0.4,0.9,0.7,2.1,1.1,3c0,0.1,0,0.1,0,0.2
		c-0.1,0.2-0.2,0.4-0.3,0.6c-0.1,0.2-0.2,0.4-0.3,0.5c0.3,0,0.6,0,0.9,0c0.1,0,0.2,0,0.2-0.1c0-0.1,0.1-0.3-0.1-0.4
		c-0.2-0.1-0.1-0.2,0-0.3c0.1-0.1,0.2-0.1,0.3-0.1C21.1,54,20.6,52,20.6,52v-1.2h2c0,0,0.8,0.8,1.2,1.2c0.1,0.1,0.2,0.3,0,0.4
		c-0.1,0.1-0.6,0.5-0.8,0.7c-0.2,0.2-0.4,0.3-0.4,0.7c0,0.3-0.1,0.7-0.1,1.1c0.3-0.2,0.5-0.3,0.8-0.5c-0.1-0.2-0.1-0.4-0.2-0.6
		c0.2-0.1,1.6-1.1,1.9-1.3c0.1-0.1,0-0.4-0.1-0.6c-0.2-0.2-0.5-0.5-0.5-0.5l0.1-0.1c0,0,1,0.5,1.4,0.8c0.6,0.5,0.9,1.1,0.7,1.8
		c-0.1,0.4-0.3,0.8-0.4,1.1c0,0.1,0,0.1-0.1,0.2c0.3,0,0.5,0,0.7,0c0.4,0,0.4,0,0.4-0.4c0,0,0-0.1-0.1-0.1c-0.1-0.1-0.2-0.2,0-0.3
		c0.1-0.1,0.2-0.1,0.2-0.1s-0.4-1.8-0.5-2.4c0-0.1-0.3-0.4-0.3-0.4l-1.2-1.1c0,0-0.1-0.1,0-0.1c0.1-0.1,0.2-0.2,0.2-0.3
		c0.2-0.3,0.4-0.7,0.4-1.1c0-0.3-0.1-0.6-0.2-0.8c0,0,0-0.1,0.1-0.1c0.2-0.2,0.6-0.3,0.9-0.1c0.2,0.1,0.2,0.3,0.2,0.6
		c0,0.5,0,1,0,1.5c0,0.2,0,0.5,0.1,0.7c0.1,0.3,0.4,0.4,0.7,0.4C28.1,51,28.4,50.8,28.6,50.5C28.6,50.5,28.6,50.5,28.6,50.5z"/>
	<path class="st5" d="M51.7,32c-0.2-0.1-0.5-0.1-0.6,0c-0.1,0.2,0,0.4,0.2,0.6c0.2,0.1,0.5,0.1,0.6,0c0,0,0.1,0,0.2,0.2
		c0.2,0.1,0.2,0.2,0.2,0.2l0.1-0.1c0,0-0.1-0.1-0.3-0.2c-0.1-0.1-0.2-0.1-0.2-0.1C52,32.4,51.9,32.2,51.7,32z"/>
	<path class="st5" d="M53,47.8c-0.2-0.3-0.5-0.5-0.7-0.3c-0.2,0.1-0.3,0.5-0.1,0.8c0.2,0.3,0.5,0.4,0.7,0.3c0,0,0,0.1,0.2,0.3
		c0.1,0.3,0.1,0.4,0.1,0.4l0.1,0c0,0-0.1-0.2-0.2-0.4c-0.1-0.2-0.2-0.3-0.2-0.3C53.1,48.4,53.1,48.1,53,47.8z"/>
	<path class="st5" d="M52.9,36.8c-0.2-0.2-0.5-0.3-0.6-0.1c-0.2,0.2-0.1,0.5,0.1,0.7c0.2,0.2,0.5,0.3,0.6,0.1c0,0,0.1,0,0.2,0.2
		s0.2,0.3,0.2,0.3l0.1-0.1c0,0-0.1-0.2-0.2-0.3C53,37.5,53,37.4,53,37.4C53.1,37.3,53,37,52.9,36.8z"/>
	<path class="st5" d="M54.4,40.2c0.2-0.3,0.5-0.4,0.7-0.2c0.2,0.1,0.2,0.5,0,0.8c-0.2,0.3-0.5,0.3-0.7,0.2c0,0-0.1,0-0.2,0.3
		c-0.2,0.2-0.2,0.3-0.2,0.3l-0.1,0c0,0,0.1-0.2,0.2-0.4c0.1-0.2,0.2-0.3,0.2-0.3C54.2,40.7,54.2,40.4,54.4,40.2z"/>
	<path class="st5" d="M51.1,60c0.3-0.1,0.5-0.4,0.4-0.6c-0.1-0.2-0.4-0.4-0.7-0.3c-0.3,0.1-0.5,0.4-0.5,0.6c0,0-0.1,0-0.3,0.1
		c-0.3,0.1-0.4,0.1-0.4,0.1l0,0.1c0,0,0.2,0,0.5-0.1c0.2-0.1,0.3-0.1,0.3-0.1C50.6,60.1,50.9,60.1,51.1,60z"/>
	<path class="st5" d="M48.9,59.3c-0.1-0.3-0.3-0.4-0.5-0.4c-0.2,0.1-0.3,0.3-0.2,0.6c0.1,0.3,0.3,0.4,0.5,0.4c0,0,0,0.1,0.1,0.3
		c0,0.2,0,0.3,0,0.3l0.1,0c0,0,0-0.2-0.1-0.4c0-0.2-0.1-0.2-0.1-0.2C48.8,59.8,48.9,59.5,48.9,59.3z"/>
	<path class="st5" d="M52.9,55.9c0.2-0.2,0.3-0.4,0.2-0.6c-0.1-0.2-0.4-0.2-0.7-0.1c-0.2,0.2-0.3,0.4-0.2,0.6c0,0,0,0-0.3,0.2
		s-0.3,0.1-0.3,0.1l0,0.1c0,0,0.2-0.1,0.4-0.2c0.2-0.1,0.2-0.2,0.2-0.2C52.5,56.1,52.7,56.1,52.9,55.9z"/>
	<path class="st5" d="M54.2,34.6c0.2-0.2,0.2-0.5,0-0.7c-0.2-0.1-0.5-0.1-0.6,0.2c-0.2,0.2-0.2,0.5,0,0.7c0,0-0.1,0.1-0.2,0.3
		c-0.1,0.2,0,0.3,0,0.3l0.1,0.1c0,0,0-0.2,0-0.4c0.1-0.2,0.2-0.3,0.2-0.3C53.8,34.9,54,34.8,54.2,34.6z"/>
	<path class="st5" d="M47.9,64.3c0.3,0,0.5-0.2,0.4-0.5c0-0.2-0.3-0.4-0.5-0.3c-0.3,0-0.5,0.2-0.4,0.4c0,0-0.1,0-0.3,0.1
		c-0.2,0-0.3,0-0.3,0l0,0.1c0,0,0.2,0,0.4,0c0.2,0,0.3,0,0.3,0C47.4,64.2,47.6,64.3,47.9,64.3z"/>
	<path class="st5" d="M55,46.5c0.2-0.2,0.3-0.4,0.2-0.6c-0.1-0.2-0.4-0.2-0.6-0.1c-0.2,0.2-0.3,0.4-0.2,0.6c0,0,0,0-0.2,0.2
		s-0.3,0.1-0.3,0.1l0,0.1c0,0,0.2-0.1,0.3-0.2c0.2-0.1,0.2-0.2,0.2-0.2C54.5,46.6,54.8,46.6,55,46.5z"/>
	<path class="st5" d="M52.6,30.3c0.1-0.2,0.1-0.4,0-0.5c-0.1-0.1-0.3,0-0.4,0.1c-0.1,0.2-0.1,0.4,0,0.5c0,0,0,0-0.1,0.2
		c-0.1,0.1-0.2,0.2-0.2,0.2l0.1,0.1c0,0,0.1-0.1,0.2-0.2c0.1-0.1,0.1-0.2,0.1-0.2C52.4,30.5,52.5,30.4,52.6,30.3z"/>
	<path class="st5" d="M48.3,25c-0.2,0-0.4,0.1-0.4,0.3c0,0.2,0.2,0.3,0.4,0.3c0.2,0,0.3-0.1,0.4-0.3c0,0,0,0,0.2,0
		c0.2,0,0.2,0,0.2,0l0-0.1c0,0-0.1,0-0.3,0c-0.1,0-0.2,0-0.2,0C48.6,25.1,48.4,25,48.3,25z"/>
	<path class="st5" d="M50.9,29.4c-0.2-0.1-0.4-0.1-0.5,0.1c-0.1,0.1,0,0.4,0.2,0.5c0.2,0.1,0.4,0.1,0.5-0.1c0,0,0,0,0.2,0.1
		c0.2,0.1,0.2,0.2,0.2,0.2l0.1-0.1c0,0-0.1-0.1-0.2-0.2s-0.2-0.1-0.2-0.1C51.2,29.7,51.1,29.5,50.9,29.4z"/>
	<path class="st5" d="M50.9,25.7c0.1-0.3,0-0.5-0.2-0.6c-0.2-0.1-0.4,0.1-0.5,0.4c-0.1,0.3,0,0.5,0.2,0.6c0,0,0,0.1-0.1,0.3
		c-0.1,0.2-0.1,0.3-0.1,0.3l0.1,0.1c0,0,0.1-0.2,0.1-0.3c0-0.2,0.1-0.2,0.1-0.2C50.6,26.1,50.8,25.9,50.9,25.7z"/>
	<path class="st5" d="M53.2,42.8c-0.2-0.2-0.5-0.2-0.6-0.1c-0.1,0.1-0.1,0.4,0.1,0.6c0.2,0.2,0.4,0.2,0.6,0.1c0,0,0,0,0.2,0.2
		c0.2,0.2,0.2,0.3,0.2,0.3l0.1-0.1c0,0-0.1-0.2-0.2-0.3c-0.1-0.1-0.2-0.2-0.2-0.2C53.4,43.3,53.3,43,53.2,42.8z"/>
	<path class="st5" d="M42.3,68.8c0.2,0,0.5-0.2,0.5-0.4c0-0.2-0.2-0.4-0.5-0.4c-0.2,0-0.4,0.2-0.5,0.3c0,0-0.1,0-0.3,0
		c-0.2,0-0.3-0.1-0.3-0.1l0,0.1c0,0,0.2,0,0.3,0c0.2,0,0.2,0,0.2,0C41.9,68.6,42.1,68.8,42.3,68.8z"/>
	<path class="st5" d="M44.9,64.2c0.1-0.3-0.1-0.7-0.4-0.7c-0.3,0-0.5,0.2-0.6,0.5c-0.1,0.3,0.1,0.6,0.3,0.7c0,0,0,0.1,0,0.4
		s-0.1,0.4-0.1,0.4l0.1,0.1c0,0,0.1-0.2,0.1-0.5c0-0.2,0-0.3,0-0.3C44.7,64.8,44.9,64.5,44.9,64.2z"/>
	<path d="M7.6,50.5c0.2,0.2,0.2,0.4,0.2,0.4c0.1,0,0.3,0.1,0.3,0.3c0,0.1,0,0.2,0,0.2c0,0.2,0,0.3-0.2,0.3c-0.1,0-0.2-0.1-0.3-0.2
		c0,0-0.1-0.1-0.1-0.2c0-0.1,0-0.4,0.2-0.4l0,0l0,0C7.8,50.8,7.7,50.7,7.6,50.5c-0.2-0.1-0.3,0-0.3,0l0,0l0,0
		C7.3,50.4,7.4,50.3,7.6,50.5z"/>
	<path d="M8,49.9c0.1,0,0.2,0,0.2,0c0.2,0,0.3,0.1,0.3,0.2c0,0.1-0.1,0.2-0.2,0.3c0,0-0.1,0.1-0.2,0.1c-0.1,0-0.3,0-0.4-0.2l0,0
		c-0.1,0-0.3,0.2-0.5,0.3l0,0c0.1,0,0.3-0.3,0.5-0.3C7.7,50,7.9,49.9,8,49.9z"/>
	<g>
		<path d="M6.7,44.4c0.2-0.1,0.3-0.3,0.3-0.3c0.1,0,0.3,0,0.3-0.2c0.1-0.1,0.1-0.2,0.1-0.2c0-0.2,0-0.3-0.1-0.3
			c-0.1-0.1-0.2,0-0.3,0.1c0,0-0.1,0.1-0.1,0.2c-0.1,0.1-0.1,0.3,0.1,0.4l0,0l0,0C6.9,44.1,6.8,44.2,6.7,44.4
			c-0.2,0-0.3-0.1-0.3-0.1l0,0l0,0C6.3,44.3,6.5,44.5,6.7,44.4z"/>
		<path d="M6.8,45C6.9,45,7,45,7,45c0.1,0,0.2,0,0.3-0.1c0-0.1,0-0.2-0.1-0.3c0,0-0.1-0.1-0.2-0.1c-0.1-0.1-0.3,0-0.3,0.1l0,0
			c-0.1,0-0.2-0.2-0.3-0.3l0,0c0,0.1,0.2,0.3,0.3,0.4C6.7,44.8,6.7,44.9,6.8,45z"/>
	</g>
	<g>
		<path d="M7.3,36.8c0.2-0.1,0.3-0.2,0.3-0.2c0.1,0.1,0.3,0,0.4-0.1C8,36.3,8,36.2,8,36.2c0-0.2,0-0.3,0-0.3c-0.1-0.1-0.2,0-0.3,0.1
			c0,0-0.1,0.1-0.1,0.2c-0.1,0.1-0.1,0.3,0,0.4l0,0l0,0C7.5,36.5,7.4,36.6,7.3,36.8c-0.2,0-0.3-0.1-0.3-0.1l0,0l0,0
			C7,36.7,7.1,36.9,7.3,36.8z"/>
		<path d="M7.4,37.4c0.1,0.1,0.2,0.1,0.2,0.1c0.1,0,0.2,0,0.3-0.1c0.1-0.1,0-0.2-0.1-0.3c0,0-0.1-0.1-0.1-0.1
			c-0.1-0.1-0.3-0.1-0.3,0l0,0c-0.1,0-0.2-0.2-0.3-0.4l0,0c0,0.1,0.2,0.3,0.3,0.4C7.3,37.2,7.3,37.3,7.4,37.4z"/>
	</g>
	<path d="M9.7,56.4c0.2,0.1,0.3,0.3,0.3,0.4c0.2-0.1,0.4,0.1,0.5,0.2c0.1,0.1,0.1,0.2,0.1,0.3c0,0.2,0,0.4-0.1,0.4
		c-0.1,0.1-0.3,0-0.4-0.1c0,0-0.1-0.1-0.2-0.2c-0.1-0.2-0.1-0.4,0.1-0.5l0,0l0,0C9.9,56.7,9.8,56.5,9.7,56.4c-0.2,0-0.4,0.1-0.4,0.1
		l0,0l0,0C9.2,56.4,9.4,56.2,9.7,56.4z"/>
	<path d="M13.7,61.7c0.1,0,0.2,0.1,0.2,0.1c0.2,0.1,0.3,0.2,0.2,0.3c0,0.1-0.2,0.2-0.3,0.2c0,0-0.1,0-0.3,0c-0.2,0-0.3-0.2-0.3-0.4
		l0,0c-0.1,0-0.4,0-0.6,0.1l0-0.1c0.1,0,0.5-0.1,0.7-0.1C13.3,61.7,13.5,61.6,13.7,61.7z"/>
	<g>
		<path d="M12.7,63.7c-0.2,0.2-0.5,0.2-0.5,0.2c0,0.2-0.2,0.3-0.4,0.4c-0.2,0-0.3,0-0.3-0.1c-0.2-0.1-0.4-0.1-0.4-0.3
			c0-0.2,0.1-0.3,0.3-0.3c0,0,0.1-0.1,0.3-0.1c0.2,0,0.5,0.1,0.5,0.3l0,0l0,0C12.2,63.8,12.5,63.8,12.7,63.7
			c0.2-0.2,0.1-0.4,0.1-0.4l0,0l0,0C12.9,63.2,13,63.5,12.7,63.7z"/>
		<path d="M13.1,64.4c0,0.2-0.1,0.2-0.1,0.3c-0.1,0.2-0.2,0.3-0.4,0.2c-0.1,0-0.2-0.2-0.2-0.4c0,0,0-0.1,0-0.3
			c0-0.2,0.2-0.4,0.4-0.3l0,0c0-0.1,0-0.5-0.1-0.7l0.1,0c0,0.1,0.1,0.6,0.1,0.7C13.1,64,13.1,64.3,13.1,64.4z"/>
	</g>
	<g>
		<path d="M8.7,57.7c-0.1,0.2-0.1,0.4-0.1,0.4c-0.1,0-0.3,0.2-0.3,0.4c0,0.1,0.1,0.2,0.1,0.3c0.1,0.2,0.1,0.3,0.3,0.3
			c0.1,0,0.2-0.1,0.3-0.3c0,0,0-0.1,0-0.3c0-0.2-0.1-0.4-0.3-0.4l0,0l0,0C8.7,58.1,8.7,57.9,8.7,57.7c0.2-0.2,0.3-0.1,0.3-0.1l0,0
			l0,0C9.1,57.5,8.8,57.5,8.7,57.7z"/>
		<path d="M8.1,57.5c-0.1,0.1-0.2,0.1-0.2,0.1c-0.1,0.1-0.2,0.3-0.1,0.4c0.1,0.1,0.2,0.1,0.4,0.1c0,0,0.1,0,0.2-0.1
			c0.1-0.1,0.2-0.3,0.2-0.4l0,0c0.1-0.1,0.4-0.1,0.6-0.1l0-0.1c-0.1,0-0.5,0-0.6,0.1C8.4,57.5,8.2,57.4,8.1,57.5z"/>
	</g>
	<path d="M9,29.6c0.2,0,0.3,0.2,0.3,0.2c0.1-0.1,0.3-0.1,0.4,0C9.8,29.9,9.8,30,9.9,30c0.1,0.1,0.1,0.2,0,0.3
		c-0.1,0.1-0.2,0.1-0.3,0c0,0-0.1,0-0.2-0.1c-0.1-0.1-0.2-0.3-0.1-0.4l0,0l0,0C9.3,29.8,9.2,29.7,9,29.6c-0.2,0-0.2,0.2-0.2,0.2l0,0
		l0,0C8.7,29.8,8.8,29.6,9,29.6z"/>
	<path d="M8.9,30.7C9,30.8,9,30.8,9,30.8c0.1,0.1,0.2,0.1,0.3,0c0.1-0.1,0.1-0.2,0-0.3c0,0,0-0.1-0.1-0.2c-0.1-0.1-0.2-0.2-0.3-0.1
		l0,0c-0.1-0.1-0.1-0.3-0.1-0.5l-0.1,0c0,0.1,0.1,0.4,0.2,0.5C8.8,30.4,8.8,30.6,8.9,30.7z"/>
	<path d="M7.8,29.2C7.8,29.1,7.8,29,7.8,29c0-0.1,0-0.2,0-0.3c0.1-0.1,0.2,0,0.3,0.1c0,0,0.1,0,0.1,0.1c0.1,0.1,0.1,0.3,0,0.3l0,0
		c0,0.1,0.2,0.2,0.4,0.3l0,0c-0.1,0-0.3-0.2-0.4-0.3C8.1,29.3,7.9,29.3,7.8,29.2z"/>
	<path d="M5.5,39c-0.1,0.1-0.1,0.1-0.1,0.1c-0.1,0.1-0.1,0.2,0,0.3c0.1,0.1,0.2,0.1,0.3,0c0,0,0.1,0,0.2-0.1C5.9,39.3,6,39.1,5.9,39
		l0,0c0.1-0.1,0.3-0.1,0.4-0.1l0-0.1c-0.1,0-0.4,0.1-0.5,0.1C5.8,38.9,5.6,38.9,5.5,39z"/>
	<path class="st6" d="M38,26.7"/>
	<path class="st6" d="M59,49.1c-0.1,0-1.8,0-3.7,1.7c-1.2,1.1-2.2,2.5-2.7,3.4c0.5-1.3,0.8-2.7,1.1-4.1c0.8-0.5,2.6-1.5,3.9-3
		c1.8-2,1.9-4.2,1.9-4.2c0,0,0-0.1,0-0.1c0,0-0.1,0-0.1,0c0,0-1,0.6-2.4,1.9c-1.1,1-1.7,2.1-2.2,3c-0.1,0.3-0.3,0.5-0.4,0.7
		c-0.2,0.3-0.4,0.6-0.5,0.8c0.1-0.6,0.2-1.2,0.2-1.8c0.1-0.9,0.1-1.8,0.1-2.7c0.2-0.1,1.6-0.6,2.8-2c2.5-3,2.7-5.5,2.3-6
		c-0.1-0.1-0.1-0.1-0.2-0.1c-0.4,0-0.8,0.5-1.2,0.8l-0.1,0.1c-0.3,0.3-2.3,3.1-2.9,5.1c-0.3,1.1-0.6,1.6-0.7,1.9
		c0-1.6,0-3.2-0.2-4.8c0.6-0.6,2-2.1,2.8-4.1c1.1-2.6,0.4-5.3,0.4-5.3c0,0,0,0-0.1-0.1c0,0-0.1,0-0.1,0c0,0-0.8,0.9-1.7,2.7
		c-0.7,1.4-0.9,2.7-1.1,3.8c-0.1,0.3-0.1,0.6-0.2,0.9c-0.1,0.4-0.2,0.8-0.3,1.1c-0.2-1.5-0.5-3-0.8-4.5c0.4-0.5,1.2-1.6,1.7-3.2
		c0.5-1.8,0.4-3.6,0.4-4.3c0-0.1,0-0.2,0-0.2c0-0.3-0.1-0.4-0.1-0.5c-0.1,0-0.2,0-0.3,0.1l0,0c-0.3,0.2-1,1.8-1.4,3.1
		c-0.3,0.9-0.2,2.4-0.1,3.4c0,0.4,0,0.7,0,0.9c0,0.1,0,0.2-0.1,0.3c-0.3-1.3-0.7-2.6-1.2-3.9c0.2-0.5,0.7-1.8,0.8-3.6
		c0.1-1,0-2.8-0.9-3.6c0,0,0,0-0.1,0c0,0,0,0-0.1,0.1c-0.5,1.9-0.5,4.2-0.2,5.5c0.1,0.5,0.2,0.9,0.2,1.2c-0.1-0.2-0.1-0.3-0.2-0.5
		c-0.5-1.2-1.1-2.3-1.8-3.3c0.1-0.4,0.3-1.7,0.1-3c-0.2-1.6-1.2-2.3-1.2-2.4c0,0,0,0-0.1,0c0,0,0,0,0,0c0,0-0.1,0.7,0,1.8
		c0.1,0.9,0.3,1.5,0.6,2.1c0.1,0.2,0.1,0.3,0.2,0.4c0.1,0.2,0.2,0.4,0.2,0.6c-0.6-0.7-1.2-1.4-1.8-1.9c-0.2-0.3-0.4-0.6-0.7-0.9
		c-1.5-1.3-2.7-1.5-2.9-1.4c-0.1,0-0.1,0.1-0.1,0.1c0,0.2,0.2,0.4,0.4,0.6l0,0c0.2,0.2,1.5,1.2,2.5,1.6c0.5,0.2,0.8,0.3,0.9,0.4
		c1.2,1.1,2.1,2.3,2.8,3.6c-0.1-0.1-0.3-0.2-0.4-0.3c-0.1-0.1-0.2-0.2-0.3-0.3c-0.5-0.4-1-0.8-1.7-1.2c-1-0.4-1.6-0.5-1.6-0.5
		c0,0-0.1,0-0.1,0c0,0,0,0.1,0,0.1c0,0.1,0.6,1.3,1.9,2c1,0.5,2.1,0.6,2.5,0.7c0.3,0.5,0.5,1.1,0.7,1.7c0.2,0.5,0.4,1,0.5,1.6
		c-0.4-0.5-0.9-1.1-1.7-1.7c-0.6-0.5-2-1.3-3-1.1c0,0,0,0-0.1,0.1c0,0,0,0.1,0,0.1c1.1,1.3,2.7,2.4,3.7,2.8c0.6,0.2,0.9,0.4,1.1,0.6
		c0.4,1.4,0.7,2.8,1,4.2c-0.3-0.6-0.9-1.9-1.8-2.9c-1.3-1.4-2.7-1.5-2.8-1.5c0,0,0,0-0.1,0c0,0,0,0,0,0.1c0,0,0.3,0.8,1.1,1.8
		c0.6,0.8,1.3,1.3,1.9,1.7c0.2,0.1,0.3,0.2,0.5,0.3c0.7,0.5,1.2,0.9,1.2,0.9c0,0,0,0,0,0c0,0,0,0,0,0c0.3,1.5,0.4,3,0.5,4.5
		c-0.1-0.3-0.3-0.6-0.4-0.9c-0.1-0.2-0.2-0.4-0.3-0.7c-0.4-0.9-0.8-1.9-1.6-2.9c-1.1-1.3-1.9-1.9-1.9-1.9c0,0-0.1,0-0.1,0
		c0,0,0,0,0,0.1c0,0-0.2,2,1.2,3.9c1.1,1.5,2.6,2.7,3.2,3.1c0,1.5,0,3-0.1,4.4c-0.1-0.2-0.2-0.6-0.3-1c-0.5-1.6-2-3.9-2.3-4.2
		l-0.1-0.1c-0.3-0.4-0.7-0.7-0.9-0.7c-0.1,0-0.1,0-0.2,0.1c-0.2,0.4,0,2.4,1.9,4.9c0.7,0.9,1.5,1.4,1.9,1.6
		c-0.1,0.6-0.1,1.1-0.2,1.6c-0.2,1.6-0.6,3.2-1.1,4.7c-0.1-0.4-0.2-0.9-0.2-1.6c0.1-1.7-0.8-4.4-2.1-6.6c0,0,0,0-0.1,0
		c0,0-0.1,0-0.1,0c-0.9,1.3-0.5,3.6,0,4.7c0.8,1.9,1.8,3.3,2.3,3.9c-0.6,1.7-1.2,3.3-2.1,4.7c0-0.3,0-0.7,0-1.1c0-0.3,0-0.5,0-0.8
		c0-1.1,0.1-2.2-0.3-3.7c-0.5-1.8-1-2.8-1-2.8c0,0,0,0-0.1,0c0,0-0.1,0-0.1,0c0,0-1.1,1.9-0.6,4.5c0.4,1.9,1.3,3.7,1.7,4.5
		c-0.9,1.6-2,3-3.2,4.4c0.1-0.3,0.2-0.7,0.4-1.4c0.5-1.8,0.5-4.8,0.4-5.2l0-0.1c-0.1-0.5-0.2-1.1-0.4-1.2c-0.1,0-0.2,0-0.3,0
		c-0.5,0.2-1.5,2.2-1.3,5.6c0.1,1.4,0.6,2.4,0.8,2.8c-0.8,0.9-1.8,1.7-2.7,2.5c-0.2,0.2-0.5,0.4-0.8,0.6c0.1-0.3,0.2-0.6,0.3-1
		c0.1-0.2,0.2-0.5,0.2-0.7c0.3-1,0.7-2.1,0.8-3.5c0.1-1.8-0.1-2.9-0.1-3c0,0,0-0.1-0.1-0.1c0,0-0.1,0-0.1,0c-0.1,0.1-1.5,1.4-1.8,4
		c-0.2,1.8,0,3.7,0.2,4.7c-0.9,0.6-2,1.3-3.3,2c0.1-0.2,0.3-0.6,0.6-1.1c0.9-1.5,1.4-4.3,1.4-4.7l0-0.1c0-0.4,0-1-0.2-1.2
		c-0.1-0.1-0.2-0.1-0.3-0.1c-0.5,0-2,1.5-2.4,4.7c-0.1,1.2,0.2,2.2,0.3,2.7c-0.2,0.1-0.3,0.2-0.5,0.2c-2.7,1.1-5.6,2-7.8,2.5
		c-2.8-0.5-6.1-1.7-9-3.4l0,0l0-0.4l0.5-1.2c0,0,0,0,0,0l0.1-0.5l0-0.7l0-0.6c0,0,0,0,0,0l-0.1-0.5L21,63.9c0,0,0,0,0,0l-0.3-0.7
		c0,0,0,0,0,0l-0.7-0.9c0,0,0,0,0,0l-1.3-1c0,0-0.1,0-0.1,0c0,0-0.1,0-0.1,0.1l-0.1,1.2l-0.1,1l0,1c0,0,0,0,0,0l0.3,1.5c0,0,0,0,0,0
		l1,1.5c0,0,0,0,0,0l0.5,0.4l0.3,0.4c-1.2-0.7-2.4-1.5-3.5-2.3c-0.1-0.1-0.2-0.1-0.3-0.2l0-0.4l0.2-0.3l0.1-0.4l0.1-0.4l0.1-0.4
		l0.1-0.5l0-0.4c0-0.2,0-0.6,0-0.7c0-0.1,0-0.4-0.1-0.7l-0.2-0.9c0,0,0,0,0,0l-0.3-0.8c0,0,0,0,0,0l-0.7-1.1c0,0,0,0,0,0l-1-1
		c0,0-0.1,0-0.1,0c0,0-0.1,0-0.1,0.1l0,0.6l-0.1,0.4l-0.2,0.9l-0.2,1.1c0,0,0,0,0,0l0,0.9c0,0,0,0,0,0l0.2,0.8l0.3,0.6l0.2,0.3
		l0.2,0.4l0.3,0.4l0.2,0.4c0,0,0,0,0,0l0.4,0.4l0.3,0.4l0,0.2c-1.6-1.3-3-2.8-4.3-4.5l0-0.1l0.2-0.5l0.2-0.3l0.2-0.4l0.2-0.3
		l0.2-0.4l0.2-0.5l0.1-0.4c0.1-0.2,0.2-0.6,0.2-0.7c0-0.1,0.1-0.4,0.1-0.7l0.1-0.9c0,0,0,0,0,0L13.7,55c0,0,0,0,0,0l-0.4-1.3
		c0,0,0,0,0,0l-0.5-0.9c0,0,0,0-0.1,0c0,0-0.1,0-0.1,0L12,53.4c0,0,0,0,0,0l-0.4,0.8l-0.5,1.1c0,0,0,0,0,0l-0.2,0.9c0,0,0,0,0,0
		l0,0.8l0.1,0.7l0.1,0.4l0.1,0.5l0.2,0.5l0.1,0.4c0,0,0,0,0,0l0.3,0.5l0.2,0.4l-0.1,0.4c-1.2-1.6-2.1-3.4-2.9-5.2L9,55.4L9.2,55
		l1-0.8c0,0,0,0,0,0l0.3-0.5l0.3-0.6l0.2-0.6c0,0,0,0,0,0l0.1-0.5l0.2-0.9l0-0.8l0-0.5l0-1l0-0.6l-0.1-1l-0.1-0.4c0,0,0-0.1-0.1-0.1
		c0,0-0.1,0-0.1,0l-0.7,0.9l-0.4,0.7l-0.4,0.7l-0.4,0.7l-0.3,0.6L8.5,51l-0.2,0.8l-0.1,0.8c0,0,0,0,0,0l0.2,1.2c0,0,0,0,0,0l0.2,0.6
		L8.7,55l0,0.1c-0.8-2-1.4-4.1-1.7-6.3l0.2-0.2l0.2-0.3l1-0.5c0,0,0,0,0,0l0.4-0.4l0.5-0.5l0.4-0.5c0,0,0,0,0,0l0.2-0.5l0.4-0.8
		l0.2-0.7l0.1-0.5c0,0,0,0,0,0l0.1-1c0,0,0,0,0,0L10.6,42c0,0,0,0,0-0.1c0,0,0,0-0.1,0l-0.7,0.3c0,0,0,0,0,0l-0.9,0.6c0,0,0,0,0,0
		l-0.6,0.8l-0.8,1.4c0,0,0,0,0,0L7,47c0,0,0,0,0,0l0,0.7L7,48.2l-0.1,0.1c-0.2-1.6-0.4-3.2-0.4-4.9c0,0,0,0,0,0l0.6-0.8l0.3-0.4
		l0.3-0.1l0.3-0.2l0.3-0.2l0.3-0.3L9,41l0.2-0.3c0.1-0.1,0.4-0.5,0.4-0.6c0,0,0.2-0.3,0.3-0.6l0.4-0.8c0,0,0,0,0,0l0.2-0.8
		c0,0,0,0,0,0l0.1-1.3c0,0,0,0,0,0l-0.2-1.3c0,0,0-0.1-0.1-0.1c0,0-0.1,0-0.1,0l-0.3,0.4L9.6,36l-0.6,0.5l-0.8,0.7c0,0,0,0,0,0
		L7.7,38c0,0,0,0,0,0l-0.2,0.7l-0.1,0.6l-0.1,0.3l-0.1,0.5l0,0.4l0,0.4c0,0,0,0,0,0l0.1,0.6l0,0.4l-0.6,0.8l-0.1,0.1
		c0-2.6,0.3-5.2,0.8-7.8L7.5,35l0.3-0.2l0.3,0l0.3-0.1l0.3-0.1L9,34.3l0.4-0.2L9.6,34c0.1-0.1,0.4-0.3,0.4-0.4c0,0,0.2-0.2,0.4-0.4
		l0.5-0.5c0,0,0,0,0,0l0.3-0.6c0,0,0,0,0,0l0.3-1c0,0,0,0,0,0l0.1-1.1c0,0,0-0.1,0-0.1c0,0-0.1,0-0.1,0l-0.3,0.2l-0.3,0.1l-0.6,0.3
		L9.5,31c0,0,0,0,0,0L9,31.4c0,0,0,0,0,0L8.6,32l-0.3,0.5l-0.1,0.3L8.1,33L8,33.4l-0.1,0.3c0,0,0,0,0,0l-0.1,0.5l-0.1,0.4l-0.3,0.2
		c0.4-1.7,0.8-3.3,1.4-5c0.1-0.3,0.2-0.6,0.4-0.9l0.3-0.1l0.3-0.1l0.9,0c0,0,0,0,0,0l0.4-0.1l0.5-0.2l0.4-0.2c0,0,0,0,0,0l0.3-0.2
		l0.5-0.4l0.4-0.4l0.3-0.3c0,0,0,0,0,0l0.2-0.5l0.3-0.7c0,0,0,0,0-0.1c0,0,0,0-0.1,0l-0.5-0.1c0,0,0,0,0,0l-0.8,0c0,0,0,0,0,0
		l-0.7,0.3l-1,0.6c0,0,0,0,0,0L10,27.5c0,0,0,0,0,0L9.8,28l-0.2,0.3l-0.1,0.1c0.6-1.2,1.3-2.3,2.1-3.4l0.2,0l0.4-0.1c0,0,0,0,0,0
		l0.3-0.1l0.3-0.1l0.3-0.2l0.2-0.1l0.4-0.3l0.5-0.4c0,0,0,0,0,0l0.4-0.5c0,0,0,0,0,0l0.4-0.8l0.2-0.6l0.1-0.3l0.2-0.3
		c0,0,0-0.1,0-0.1c0,0,0,0-0.1,0l-1.1,0.1c0,0,0,0,0,0l-0.9,0.3c0,0,0,0,0,0l-0.6,0.3c0,0,0,0,0,0l-0.5,0.5
		c-0.1,0.2-0.3,0.4-0.3,0.4c-0.1,0-0.2,0.3-0.3,0.4l-0.2,0.2l-0.2,0.4L11.4,24l-0.1,0.3l-0.1,0.3l0,0.2c-1,1.2-1.7,2.4-2.2,3.4
		c0,0,0,0,0,0l0-0.4l0.2-0.4l0.3-0.4c0,0,0,0,0,0l0.4-0.8c0,0,0,0,0,0l0.1-0.5l0-0.6l0-0.6l-0.1-0.5l-0.1-0.6L9.6,23l-0.2-0.5
		l-0.3-0.8c0,0,0,0-0.1,0c0,0-0.1,0-0.1,0l-0.2,0.3l-0.3,0.7L8.4,23l-0.2,0.7L8.1,24L8,24.6l-0.1,0.7l0,0.4c0,0,0,0,0,0l0.1,0.4
		L8,26.6L8.2,27c0,0,0,0,0,0l0.5,0.8l0,0.3l0.1,0.6c0,0.1-0.1,0.2-0.1,0.2c-0.6,1.4-1,2.7-1.4,4.1l-0.1-0.5L7.3,32l0.2-0.6
		c0,0,0,0,0,0l0.2-1.7c0,0,0,0,0,0l-0.3-1.4c0,0,0,0,0,0l-0.7-1.2c0,0,0,0,0,0l-0.4-0.4c0,0,0,0,0,0l-0.7-0.5c0,0-0.1,0-0.1,0
		c0,0,0,0-0.1,0.1l-0.2,0.9L5,28.2c0,0,0,0,0,0l0,0.7l0.1,0.8l0.1,0.5c0,0,0,0,0,0l0.2,0.5l0.3,0.6l0.2,0.4c0,0,0,0,0,0l0.8,0.8
		l0.1,0.3l0.2,0.8c0,0,0,0,0,0c-0.4,1.4-0.6,2.8-0.8,4.2l-0.5-0.7l0.1-0.4L6,36.3c0,0,0,0,0,0l0-0.4l0-0.4l0-0.5l0-0.3l-0.1-0.6
		l-0.2-0.7c0,0,0,0,0,0l-0.4-0.7c0,0,0,0,0,0l-0.7-0.8l-0.6-0.5l-0.2-0.3l-0.3-0.4c0,0-0.1,0-0.1,0c0,0-0.1,0-0.1,0.1L2.9,32
		c0,0,0,0,0,0l0,1.2c0,0,0,0,0,0L3,34c0,0,0,0,0,0l0.3,0.8c0.1,0.2,0.3,0.5,0.3,0.6c0,0.1,0.3,0.4,0.3,0.6l0.2,0.3l0.3,0.4l0.3,0.3
		L5,37.1l0.3,0.2l0.3,0.1l0.3,0.4l0.4,0.5C6.1,40,6,41.8,6,43.6l-0.2-0.3l-0.1-0.6L5.7,42l-0.1-1.3c0,0,0,0,0,0L5.3,40l-0.4-0.8
		l-0.5-0.7L4,37.9l-0.6-0.6l-0.6-0.6l-0.6-0.6l-1-0.7c0,0-0.1,0-0.1,0c0,0,0,0,0,0.1l0,0.5L1.3,37l0.1,0.6l0.2,1l0.2,0.5L2.1,40
		l0.4,0.9l0.3,0.5c0,0,0,0,0,0l0.4,0.5l0.5,0.6l0.4,0.4c0,0,0,0,0,0l1.2,0.6L6,44.3c0,1,0.1,2,0.1,3.1c0,0.6,0.1,1.3,0.2,1.9L6,49
		l-0.2-0.6l0-0.7c0,0,0,0,0,0l-0.3-1.2c0,0,0,0,0,0L5,45.8l-0.5-0.7l-0.6-0.6L3.4,44l-0.7-0.5l-0.7-0.4l-0.7-0.4l-0.7-0.3
		c0,0-0.1,0-0.1,0c0,0,0,0,0,0.1l0,0.8l0,0.6l0.1,0.6c0,0,0,0,0,0l0.3,0.7l0.2,0.5l0.4,0.7l0.6,0.8l0.3,0.4c0,0,0,0,0,0l0.5,0.4
		l0.6,0.4l0.5,0.3c0,0,0,0,0,0l1.3,0.3l0.3,0.3L6.5,50c0.4,2.3,1.2,4.7,2.2,6.9l-0.8-0.5l-0.1-0.5l-0.1-0.6c0,0,0,0,0,0l-0.2-0.4
		l-0.2-0.5L7,53.7l-0.2-0.4l-0.4-0.7L5.8,52c0,0,0,0,0,0L5,51.4c0,0,0,0,0,0l-1.1-0.5l-0.9-0.3l-0.4-0.2L2,50c0,0-0.1,0-0.1,0
		c0,0,0,0,0,0.1l0.2,1.6c0,0,0,0,0,0l0.6,1.4c0,0,0,0,0,0l0.5,0.8c0,0,0,0,0,0l0.7,0.7c0.3,0.2,0.6,0.5,0.6,0.5
		c0.1,0.1,0.5,0.4,0.6,0.5l0.4,0.2l0.5,0.3l0.4,0.2l0.4,0.1l0.5,0.1l0.4,0l0.5,0.3l0.7,0.4C9,57.7,9.2,58,9.3,58.3
		c0.7,1.4,1.6,2.7,2.5,4l-0.4-0.1l-0.4-0.4L10.7,61c0,0,0,0,0,0l-0.8-1c0,0,0,0,0,0l-0.7-0.5l-0.8-0.4l-0.8-0.3l-0.6-0.2l-0.8-0.2
		l-0.8-0.1l-0.8-0.1l-1.2,0c0,0-0.1,0-0.1,0c0,0,0,0.1,0,0.1l0.3,0.4l0.7,0.8L4.8,60l0.7,0.7L5.9,61l0.7,0.5L7.5,62l0.5,0.3
		c0,0,0,0,0,0l0.6,0.2l0.7,0.2l0.6,0.1c0,0,0,0,0,0l1.3-0.2l0.4,0.1l0.6,0.2c0,0,0,0,0,0c0,0,0,0,0,0c1.4,1.7,3,3.3,4.7,4.5
		c0.1,0.1,0.2,0.1,0.2,0.2l-1.1,0.1l-0.5-0.4l-0.5-0.5c0,0,0,0,0,0l-0.4-0.2L14.2,66l-0.5-0.3l-0.4-0.2l-0.8-0.3L11.5,65
		c0,0,0,0,0,0l-1.1,0c0,0,0,0,0,0L9,65.3l-1,0.3l-0.5,0.1l-0.7,0.1c0,0-0.1,0-0.1,0.1c0,0,0,0.1,0,0.1L8,67.1c0,0,0,0,0,0L9.4,68
		c0,0,0,0,0,0l1,0.4c0,0,0,0,0,0l1.1,0.2c0.4,0,0.8,0,0.9,0.1c0,0,0.1,0,0.3,0c0.2,0,0.5,0,0.6,0l0.5,0l0.6-0.1l0.5-0.1l0.4-0.2
		l0.5-0.2l0.3-0.2l0.7,0l0.9-0.1c1.6,1.1,3.1,2,4.5,2.8l-0.3,0l-0.6-0.1L21,70.2L20.6,70l-0.4-0.2l-0.4-0.2l-0.6-0.1l-0.4,0
		c-0.2,0-0.7-0.1-0.8-0.1c-0.1,0-0.5,0-0.8,0l-1,0.1c0,0,0,0,0,0l-1,0.3c0,0,0,0,0,0l-1.4,0.7c0,0,0,0,0,0l-1.2,1.1c0,0,0,0.1,0,0.1
		c0,0,0,0.1,0.1,0.1l0.6,0.1l0.4,0.1l1,0.4l1.3,0.3c0,0,0,0,0,0l1,0.1c0,0,0,0,0,0c0,0,0,0,0,0l0.9-0.2l0.7-0.2l0.4-0.1l0.5-0.2
		l0.5-0.3l0.4-0.2c0,0,0,0,0,0l0.5-0.4l0.4-0.3l1.2,0.2c0,0,0,0,0,0l0.4-0.1l0,0l0,0c1.4,0.7,2.8,1.2,4.4,1.7
		c-1.5,0.2-3.1,0.8-4,1.2c-0.6,0.2-1.2,0.5-1.6,0.7c-0.6,0.3-0.7,0.5-0.7,0.6c0,0.2-0.1,0.4-0.2,0.5c-0.1,0.2-0.2,0.4,0,0.5
		c0,0,0.1,0,0.1,0c0.1,0,0.2-0.1,0.3-0.1c1.1-0.7,4.7-2.1,5.9-2.3c0.9-0.1,1.7-0.3,2.6-0.5c0.7,0.2,1.4,0.4,2.3,0.5
		c1.5,0.3,5.5,1.8,6,2.2c0.1,0.1,0.3,0.2,0.4,0.2c0,0,0.1,0,0.1,0c0.1-0.1,0.1-0.2,0.1-0.4c0-0.2-0.1-0.4-0.1-0.6c0,0,0-0.1,0-0.1
		c-0.4-0.4-4-1.6-6.4-2.3c2-0.6,3.9-1.3,5.6-2c0.9,0.4,3,1.1,5.7,1.5c0.2,0,0.5,0,0.9,0c0.6,0,1.4-0.1,2.1-0.2
		c0.9-0.2,2.2-0.6,2.9-1.5c0,0,0-0.1,0-0.1c0,0,0-0.1-0.1-0.1c-3.2-0.8-6.9-0.9-9-0.3c-0.8,0.3-1.4,0.3-1.9,0.4
		c1.8-0.9,3.6-2,4.9-2.9c0,0,0,0,0,0c0.4,0.2,1.4,0.5,2.7,0.5c0.2,0,0.4,0,0.6,0c4-0.3,6.1-1.9,6.3-2.5c0-0.1,0-0.2,0-0.3
		c-0.2-0.3-0.8-0.3-1.5-0.3h-0.1c0,0,0,0,0,0c-0.5,0-4,0.5-6,1.5c-0.4,0.2-0.8,0.4-1,0.5c1.3-1,2.6-2.3,3.7-3.7c0.4,0,1,0.1,1.7,0.1
		c0.8,0,1.9-0.1,2.8-0.3c2.3-0.6,3.4-2.6,3.4-2.6c0,0,0-0.1,0-0.1c0,0,0,0-0.1,0c0,0-1.1-0.1-2.7,0.2c-1.3,0.2-2.3,0.8-3.1,1.3
		c-0.2,0.1-0.4,0.3-0.6,0.4c-0.3,0.2-0.6,0.3-0.8,0.4c0.9-1.2,1.7-2.5,2.4-3.8c0.3,0.1,0.7,0.2,1.3,0.2c0.3,0,0.7,0,1.1-0.1
		c3-0.7,4.1-2.6,4.2-3.1c0-0.1,0-0.2-0.1-0.2c-0.2-0.2-0.8-0.1-1.1-0.1l-0.1,0c-0.4,0.1-2.9,1.3-4.1,2.2c-0.5,0.3-0.8,0.5-1,0.7
		c0.5-1,0.9-2,1.3-3c0.2-0.1,0.8-0.3,1.7-0.8c1.2-0.7,2.4-1.5,3.6-2.7C58.8,50.2,59.1,49.2,59,49.1C59.1,49.1,59.1,49.1,59,49.1
		C59,49.1,59,49.1,59,49.1z"/>
	<g>
		<path class="st7" d="M25.8,65.1c-0.8-0.2-1,0.2-1.3,0.4c-0.3,0.2-0.8,0.7-1.5,1.4c0.7,0.1,1.5,0.3,2.1,0.6c0,0,0,0,0,0
			c0.9,0.4,1.9,0.9,2.4,1.5c1,1,1.7,2.3,1.7,2.3c0.4-0.1,0.8-0.1,0.8-0.1s0-1.4-0.4-2.6C28.9,66.1,26.6,65.3,25.8,65.1z"/>
		<path class="st7" d="M35.7,65.5c-0.3-0.2-0.5-0.6-1.3-0.4c-0.8,0.2-3.1,0.9-3.9,3.5c-0.4,1.2-0.4,2.6-0.4,2.6s0.4,0,0.8,0
			c0,0,0.7-1.3,1.7-2.2c0.6-0.5,1.5-1.1,2.4-1.5c0,0,0,0,0,0c0.6-0.3,1.4-0.5,2.1-0.6C36.5,66.2,36,65.8,35.7,65.5z"/>
	</g>
	<path class="st7" d="M29.6,73l-0.7-0.2c0,0-2.1,2.5-2.8,3c0.4,1,0.7,2.2,0.7,2.2c0.5-0.3,2.7-2.8,3-4.4C29.9,72.9,29.6,73,29.6,73z
		"/>
	<path class="st7" d="M21.9,73.7c0,0.9-0.4,3.5-1,6c1.2-1.1,1.6-1.3,1.6-1.3l1.2,1.4c0,0,0-0.9,0.2-2.5c0.1-1.2,0.3-2.7,0.7-4.4
		C24.6,72.7,22.5,73.3,21.9,73.7z"/>
	<path class="st7" d="M31.3,72.8l-0.5,0c0,0-0.8-0.1-0.6,0.6c0.3,1.2,2.6,4.1,3.1,4.4c0,0,0.3-1.2,0.7-2.2
		C33.3,75.1,31.3,72.8,31.3,72.8z"/>
	<path class="st7" d="M37.2,73.8c-0.4-0.3-2.2-0.9-2.2-0.9c0.3,2.1,0.4,3.7,0.6,4.8c0.1,1.1,0.1,1.7,0.1,1.7l1.2-1.3
		c0,0,0.4,0.2,1.6,1.4C38.2,77.1,37.2,74.8,37.2,73.8z"/>
	<path class="st0" d="M37.2,66.9c-0.7,0.1-1.5,0.3-2.1,0.6c0,0,0,0,0,0c0,0.3-0.2,0.7-0.8,1.7c-0.5,0.8-1.9,1.8-2.6,2.2
		c0-0.1-0.1-0.1-0.1-0.2c-0.4-0.4-1-0.3-1.4-0.3c-0.3,0-0.9-0.1-1.3,0.3c-0.1,0.1-0.2,0.2-0.2,0.3c-0.6-0.4-2-1.5-2.5-2.3
		c-0.7-1-0.8-1.4-0.8-1.7c0,0,0,0,0,0c-0.6-0.3-1.4-0.5-2.1-0.6c-0.3,0.8-0.3,1.8,1.1,2.9c1.4,1.1,3.4,1.9,4.2,2.2
		c-0.1,0.6-0.2,1.5-0.2,1.5s0.3,0.5,1,0.8c0.6,0.2,1.5,0.3,2.3-0.2c0.2-0.1,0.4-0.1,0.5-0.6c0-0.3,0-1-0.1-1.6
		c0.8-0.3,2.8-1,4.2-2.2C37.5,68.7,37.4,67.7,37.2,66.9z"/>
</g>
</svg>
