<?xml version="1.0" encoding="UTF-8"?>
<svg id="Capa_1" data-name="Capa 1" xmlns="http://www.w3.org/2000/svg" viewBox="0 0 154.365723 43">
  <defs>
    <style>
      .cls-1 {
        fill: #002f6c;
      }

      .cls-2 {
        fill: #fbb800;
        fill-rule: evenodd;
      }
    </style>
  </defs>
  <g>
    <path class="cls-1" d="m53.205573,24.06282c0,.392578-.003906.714844-.011719.96582s-.020508.462891-.035156.635742c-.016602.172852-.040039.333984-.071289.483398s-.078125.30957-.141602.482422c-.109375.330078-.293945.675781-.552734,1.037109-.259766.361328-.613281.694336-1.060547,1.000977s-.998047.557617-1.649414.753906-1.417969.294922-2.296875.294922c-1.256836,0-2.333008-.185547-3.227539-.553711-.895508-.369141-1.571289-.915039-2.026367-1.637695-.141602-.204102-.255859-.408203-.341797-.612305s-.157227-.424805-.211914-.660156c-.055664-.235352-.094727-.498047-.118164-.789062-.023438-.290039-.035156-.631836-.035156-1.024414v-11.40332h3.369141v10.766602c0,.50293.023438.911133.070312,1.225586.047852.314453.118164.557617.212891.730469.391602.753906,1.138672,1.130859,2.238281,1.130859.72168,0,1.298828-.168945,1.731445-.506836.431641-.337891.686523-.804688.765625-1.402344.03125-.171875.046875-.344727.046875-.517578v-11.426758h3.345703v11.026367Z"/>
    <path class="cls-1" d="m62.464362,20.103836c-.297852-.15625-.604492-.235352-.917969-.235352-.707031,0-1.351562.337891-1.932617,1.013672v8.52832h-3.157227v-8.057617c0-.816406-.042969-1.523438-.128906-2.120117-.086914-.59668-.192383-1.068359-.318359-1.414062l2.827148-.753906c.283203.50293.447266,1.076172.495117,1.719727.344727-.455078.753906-.855469,1.224609-1.201172.47168-.345703,1.004883-.518555,1.602539-.518555.235352,0,.427734.015625.577148.047852.149414.03125.349609.101562.600586.211914l-.87207,2.779297Z"/>
    <path class="cls-1" d="m72.45362,29.740554c-.423828-.298828-.738281-.691406-.942383-1.178711-.392578.376953-.860352.664062-1.401367.860352-.541992.196289-1.135742.294922-1.779297.294922-.847656,0-1.601562-.180664-2.261719-.541992-.65918-.361328-1.091797-.833008-1.295898-1.414062-.09375-.266602-.161133-.581055-.200195-.942383s-.058594-.847656-.058594-1.460938v-7.727539l3.109375-.588867v7.750977c0,.550781.023438.974609.071289,1.272461.046875.298828.109375.53418.188477.707031.078125.172852.223633.310547.435547.412109.211914.102539.435547.15332.671875.15332.391602,0,.785156-.118164,1.177734-.353516s.651367-.501953.777344-.800781v-8.481445l3.015625-.636719v9.211914c0,.40918.0625.805664.188477,1.19043s.306641.717773.541992,1.000977l-2.238281,1.272461Z"/>
    <path class="cls-1" d="m89.204596,18.667312c-.345703.314453-.691406.541992-1.037109.682617-.344727.141602-.738281.212891-1.177734.212891-.157227,0-.310547-.007812-.458984-.024414-.149414-.014648-.271484-.03125-.365234-.046875.235352.283203.412109.581055.530273.895508.117188.314453.176758.675781.176758,1.083984,0,.517578-.110352.99707-.330078,1.436523-.220703.44043-.530273.817383-.930664,1.130859-.400391.314453-.87207.5625-1.414062.742188-.541992.180664-1.134766.271484-1.77832.271484h-.211914c-.047852,0-.133789-.007812-.259766-.023438-.408203.188477-.717773.357422-.930664.505859-.211914.149414-.317383.310547-.317383.483398,0,.188477.172852.282227.517578.282227l1.697266.024414c.910156.015625,1.640625.101562,2.19043.258789s1.037109.431641,1.460938.824219c.691406.644531,1.036133,1.5,1.036133,2.568359,0,.973633-.321289,1.805664-.96582,2.49707-.53418.56543-1.224609.96582-2.073242,1.202148-.847656.235352-1.743164.353516-2.685547.353516-.864258,0-1.704102-.09082-2.520508-.271484-.817383-.180664-1.500977-.522461-2.049805-1.024414-.660156-.613281-.990234-1.328125-.990234-2.144531,0-.329102.03125-.584961.094727-.765625.0625-.180664.125-.333984.188477-.458984h2.920898c-.0625.141602-.101562.262695-.117188.365234-.015625.101562-.023438.239258-.023438.412109,0,.486328.191406.855469.577148,1.107422.384766.250977.946289.376953,1.68457.376953.408203,0,.777344-.027344,1.107422-.083008.329102-.054688.620117-.161133.871094-.317383.236328-.141602.424805-.318359.56543-.530273.141602-.211914.211914-.444336.211914-.695312,0-.549805-.211914-.922852-.635742-1.119141s-.950195-.301758-1.578125-.318359l-1.34375-.023438c-1.381836-.014648-2.347656-.140625-2.897461-.376953-.282227-.109375-.506836-.297852-.671875-.56543-.164062-.266602-.24707-.604492-.24707-1.012695,0-.188477.023438-.376953.071289-.56543.046875-.188477.144531-.369141.293945-.541992s.369141-.337891.660156-.495117c.290039-.15625.686523-.297852,1.189453-.423828-1.728516-.439453-2.591797-1.554688-2.591797-3.345703,0-.612305.12207-1.169922.365234-1.672852.243164-.501953.58495-.930664,1.025391-1.283203.439453-.353516.973633-.62793,1.601562-.825195.62793-.196289,1.327148-.293945,2.09668-.293945.345703,0,.683594.023438,1.013672.070312.329102.046875.713867.125977,1.154297.235352.330078.079102.608398.141602.835938.188477.227539.047852.443359.071289.648438.071289.439453,0,.875-.09082,1.307617-.271484.431641-.179688.828125-.435547,1.189453-.765625l1.319336,2.00293Zm-5.583984,2.567383c0-.56543-.168945-1.004883-.505859-1.319336-.337891-.313477-.805664-.470703-1.402344-.470703s-1.060547.157227-1.389648.470703c-.330078.314453-.495117.753906-.495117,1.319336,0,.613281.172852,1.052734.518555,1.319336.344727.267578.792969.401367,1.342773.401367,1.288086,0,1.931641-.573242,1.931641-1.720703Z"/>
    <path class="cls-1" d="m98.10987,29.740554c-.423828-.298828-.738281-.691406-.942383-1.178711-.392578.376953-.860352.664062-1.401367.860352-.541992.196289-1.135742.294922-1.779297.294922-.847656,0-1.601562-.180664-2.261719-.541992-.65918-.361328-1.091797-.833008-1.295898-1.414062-.09375-.266602-.161133-.581055-.200195-.942383s-.058594-.847656-.058594-1.460938v-7.727539l3.109375-.588867v7.750977c0,.550781.023438.974609.071289,1.272461.046875.298828.109375.53418.188477.707031.078125.172852.223633.310547.435547.412109.211914.102539.435547.15332.671875.15332.391602,0,.785156-.118164,1.177734-.353516s.651367-.501953.777344-.800781v-8.481445l3.015625-.636719v9.211914c0,.40918.0625.805664.188477,1.19043s.306641.717773.541992,1.000977l-2.238281,1.272461Z"/>
    <path class="cls-1" d="m111.091315,30.022781c-.361328-.157227-.695312-.361328-1.000977-.612305-.306641-.250977-.539062-.53418-.695312-.848633-.125977.125977-.24707.244141-.365234.353516-.118164.110352-.239258.205078-.365234.283203-.612305.439453-1.421875.65918-2.426758.65918-1.350586,0-2.379883-.326172-3.085938-.977539-.707031-.651367-1.060547-1.582031-1.060547-2.791992,0-1.428711.483398-2.477539,1.449219-3.144531.96582-.667969,2.415039-1.001953,4.34668-1.001953h.353516c.109375,0,.227539.008789.353516.023438v-.494141c0-.675781-.09082-1.142578-.271484-1.402344-.180664-.258789-.561523-.388672-1.142578-.388672-.50293,0-1.044922.118164-1.625977.353516s-1.201172.573242-1.860352,1.012695l-1.34375-2.261719c.314453-.203125.613281-.376953.895508-.517578.283203-.141602.636719-.298828,1.060547-.47168.59668-.250977,1.158203-.431641,1.68457-.541992.525391-.109375,1.063477-.165039,1.613281-.165039,1.021484,0,1.865234.180664,2.533203.541992.666992.361328,1.119141.879883,1.354492,1.555664.046875.125.083008.24707.106445.365234.023438.117188.046875.254883.070312.412109s.035156.345703.035156.56543v.824219l-.070312,4.052734c0,.329102.007812.616211.023438.859375.015625.244141.0625.467773.141602.671875.078125.204102.191406.396484.341797.577148.148438.180664.356445.373047.624023.577148l-1.672852,1.931641Zm-2.685547-5.889648c-1.099609,0-1.865234.125977-2.297852.376953-.431641.250977-.647461.738281-.647461,1.460938,0,.470703.129883.851562.388672,1.142578s.592773.435547,1.000977.435547c.298828,0,.588867-.070312.872059-.211914.283215-.141602.542004-.345703.777355-.612305l.046875-2.591797h-.140625Z"/>
    <path class="cls-1" d="m120.656745,29.598953c-.204102.581055-.400391,1.087891-.588867,1.519531s-.373047.800781-.553711,1.107422-.365234.569336-.553711.789062-.392578.408203-.612305.56543c-.408203.298828-.860352.538086-1.354492.71875-.495117.180664-1.017578.30957-1.567383.388672l-1.083008-2.073242c.344727-.09375.698242-.208008,1.05957-.341797s.660156-.286133.895508-.458984c.330078-.235352.62793-.56543.895508-.989258.078125-.125977.144531-.236328.200195-.330078.054688-.094727.105469-.192383.15332-.294922.046875-.102539.09375-.21582.140625-.341797.047852-.125977.110352-.274414.188477-.447266h-.800781l-3.981445-11.874023,3.227539-.376953,2.09668,7.043945.636719,2.498047c0-.015625.011719-.098633.035156-.248047.023438-.148438.054688-.321289.09375-.518555.039062-.195312.083008-.40332.129883-.624023.046875-.219727.085938-.400391.118164-.541992.046875-.204102.113281-.462891.200195-.777344.085938-.313477.176758-.612305.270508-.895508l1.814453-5.748047h3.322266l-4.382812,12.250977Z"/>
    <path class="cls-1" d="m128.855963,27.69075c0,.282227-.055664.553711-.165039.8125-.110352.259766-.258789.483398-.447266.671875s-.40918.336914-.660156.447266c-.250977.109375-.518555.165039-.800781.165039-.581055,0-1.072266-.204102-1.472656-.612305s-.600586-.90332-.600586-1.484375c0-.56543.200195-1.048828.600586-1.449219s.883789-.600586,1.449219-.600586c.581055,0,1.075195.200195,1.484375.600586.408203.400391.612305.883789.612305,1.449219Z"/>
    <path class="cls-1" d="m139.504401,29.740554c-.423828-.298828-.738281-.691406-.942383-1.178711-.392578.376953-.860352.664062-1.401367.860352-.541992.196289-1.135742.294922-1.779297.294922-.847656,0-1.601562-.180664-2.261719-.541992-.65918-.361328-1.091797-.833008-1.295898-1.414062-.09375-.266602-.161133-.581055-.200195-.942383s-.058594-.847656-.058594-1.460938v-7.727539l3.109375-.588867v7.750977c0,.550781.023438.974609.071289,1.272461.046875.298828.109375.53418.188477.707031.078125.172852.223633.310547.435547.412109.211914.102539.435547.15332.671875.15332.391602,0,.785156-.118164,1.177734-.353516s.651367-.501953.777344-.800781v-8.481445l3.015625-.636719v9.211914c0,.40918.0625.805664.188477,1.19043s.306641.717773.541992,1.000977l-2.238281,1.272461Z"/>
    <path class="cls-1" d="m149.988776,29.598953c-.204102.581055-.400391,1.087891-.588867,1.519531s-.373047.800781-.553711,1.107422-.365234.569336-.553711.789062-.392578.408203-.612305.56543c-.408203.298828-.860352.538086-1.354492.71875-.495117.180664-1.017578.30957-1.567383.388672l-1.083008-2.073242c.344727-.09375.698242-.208008,1.05957-.341797s.660156-.286133.895508-.458984c.330078-.235352.62793-.56543.895508-.989258.078125-.125977.144531-.236328.200195-.330078.054688-.094727.105469-.192383.15332-.294922.046875-.102539.09375-.21582.140625-.341797.047852-.125977.110352-.274414.188477-.447266h-.800781l-3.981445-11.874023,3.227539-.376953,2.09668,7.043945.636719,2.498047c0-.015625.011719-.098633.035156-.248047.023438-.148438.054688-.321289.09375-.518555.039062-.195312.083008-.40332.129883-.624023.046875-.219727.085938-.400391.118164-.541992.046875-.204102.113281-.462891.200195-.777344.085938-.313477.176758-.612305.270508-.895508l1.814453-5.748047h3.322266l-4.382812,12.250977Z"/>
  </g>
  <path class="cls-2" d="m19.129999,13.589986c.549999.38,1.1.71,1.76.67.07-.01.209999.01.27.11.030001.07.09.18-.040001.34-.530001.55-1.379999.96-2.280001,1.12.280001.610001.6,1.16,1.18,1.460001.07.040001.190001.120001.17.24,0,.07,0,.200001-.200001.27-.74.219999-1.67.139999-2.540001-.17-.049999.67-.059999,1.299999.299999,1.84.040001.059999.1.190001.030001.299999-.030001.049999-.120001.17-.309999.139999-.75-.190001-1.51-.700001-2.11-1.41-.39.540001-.71,1.09-.67,1.74.01.08-.01.209999-.12.280001-.06.02-.19.09-.34-.049999-.55-.530001-.95-1.370001-1.11-2.27-.6.280001-1.16.6-1.45,1.18-.04.07-.12.18-.25.18-.06,0-.2-.02-.27-.200001-.21-.75-.14-1.67.18-2.540001-.67-.049999-1.3-.059999-1.85.299999-.07.049999-.19.1-.3.030001-.059998-.039999-.179997-.119999-.139997-.32.19-.75.71-1.51,1.42-2.1-.55-.39-1.1-.71-1.76-.67-.08.01-.21-.01-.27-.11-.04-.07-.09-.2.04-.35.53-.55,1.37-.95,2.28-1.11-.28-.6-.59-1.16-1.18-1.45-.069999-.06-.179998-.14-.169999-.26,0-.06.01-.2.2-.27.74-.21,1.67-.13,2.54.17.06-.66.07-1.3-.3-1.85-.05-.06-.1-.18-.04-.29.04-.06.12-.17.32-.14.74.19,1.51.72,2.11,1.42.39-.55.7-1.09.67-1.76-.01-.08.01-.21.12-.27.06-.04.19-.09.34.05.55.54.950001,1.37,1.110001,2.28.610001-.28,1.16-.6,1.450001-1.18.040001-.07.120001-.18.25-.17.059999,0,.200001.01.27.2.209999.74.139999,1.67-.18,2.54.67.06,1.299999.07,1.860001-.3.059999-.04.190001-.09.290001-.03.059999.04.17.12.139999.32-.190001.720002-.720001,1.500002-1.420002,2.090002"/>
  <path class="cls-1" d="m2.32,7.479985c-1.29,3.1-2.07,6.59-1.81,10.460001.78,10.210001,8.01,18.210001,16.020001,17.570002,4.52-.259998,8.27-3.23,10.719999-7.619999.52-1.030001.26-1.549999-.52-.65-10.58,11.119997-23.63-.510004-24.15-13.690003-.13-2.07,0-4.13.26-6.07.13-.9-.26-.64-.52,0"/>
  <path class="cls-1" d="m12.92,28.279986c-1.16-.52-1.42-1.289999.39-1.289999,10.070001,0,14.340001-11.37,14.21-20.02,0-.78.26-1.03.65-.13.52,1.55.780001,3.23.9,5.04.65,9.17-4.26,16.92-11.110001,17.440001-1.809999.119999-3.489999-.260002-5.039999-1.040001"/>
</svg>