<svg width="25" height="24" viewBox="0 0 25 24" fill="none" xmlns="http://www.w3.org/2000/svg">
<path d="M1 22L12.5789 2L24.1579 22H1ZM12.5789 18.8421C12.8772 18.8421 13.1272 18.7412 13.3289 18.5395C13.5307 18.3377 13.6316 18.0877 13.6316 17.7895C13.6316 17.4912 13.5307 17.2412 13.3289 17.0395C13.1272 16.8377 12.8772 16.7368 12.5789 16.7368C12.2807 16.7368 12.0307 16.8377 11.8289 17.0395C11.6272 17.2412 11.5263 17.4912 11.5263 17.7895C11.5263 18.0877 11.6272 18.3377 11.8289 18.5395C12.0307 18.7412 12.2807 18.8421 12.5789 18.8421ZM11.5263 15.6842H13.6316V10.4211H11.5263V15.6842Z" fill="#25418E"/>
</svg>
