<svg width="24" height="24" viewBox="0 0 24 24" fill="none" xmlns="http://www.w3.org/2000/svg">
<path d="M12 16.2C13.1364 16.2 14.1023 15.7917 14.8977 14.975C15.6932 14.1583 16.0909 13.1667 16.0909 12C16.0909 10.8333 15.6932 9.84167 14.8977 9.025C14.1023 8.20833 13.1364 7.8 12 7.8C10.8636 7.8 9.89773 8.20833 9.10227 9.025C8.30682 9.84167 7.90909 10.8333 7.90909 12C7.90909 13.1667 8.30682 14.1583 9.10227 14.975C9.89773 15.7917 10.8636 16.2 12 16.2ZM12 14.52C11.3182 14.52 10.7386 14.275 10.2614 13.785C9.78409 13.295 9.54545 12.7 9.54545 12C9.54545 11.3 9.78409 10.705 10.2614 10.215C10.7386 9.725 11.3182 9.48 12 9.48C12.6818 9.48 13.2614 9.725 13.7386 10.215C14.2159 10.705 14.4545 11.3 14.4545 12C14.4545 12.7 14.2159 13.295 13.7386 13.785C13.2614 14.275 12.6818 14.52 12 14.52ZM12 19C9.78788 19 7.77273 18.3661 5.95455 17.0983C4.13636 15.8306 2.81818 14.1311 2 12C2.81818 9.86889 4.13636 8.16944 5.95455 6.90167C7.77273 5.63389 9.78788 5 12 5C14.2121 5 16.2273 5.63389 18.0455 6.90167C19.8636 8.16944 21.1818 9.86889 22 12C21.1818 14.1311 19.8636 15.8306 18.0455 17.0983C16.2273 18.3661 14.2121 19 12 19ZM12 17.1333C13.7121 17.1333 15.2841 16.6706 16.7159 15.745C18.1477 14.8194 19.2424 13.5711 20 12C19.2424 10.4289 18.1477 9.18056 16.7159 8.255C15.2841 7.32944 13.7121 6.86667 12 6.86667C10.2879 6.86667 8.71591 7.32944 7.28409 8.255C5.85227 9.18056 4.75758 10.4289 4 12C4.75758 13.5711 5.85227 14.8194 7.28409 15.745C8.71591 16.6706 10.2879 17.1333 12 17.1333Z" fill="#25418E"/>
</svg>
