<svg width="24" height="24" viewBox="0 0 24 24" fill="none" xmlns="http://www.w3.org/2000/svg">
<path fill-rule="evenodd" clip-rule="evenodd" d="M12.0146 2C12.1726 2 12.3294 2.00474 12.4854 2.01172C12.5062 2.01271 12.527 2.01352 12.5479 2.01465C13.8602 2.08136 15.1017 2.39523 16.2725 2.95801C17.1369 3.36718 17.9329 3.89627 18.6396 4.52441C19.6176 5.38024 20.4067 6.4005 20.9619 7.56348C21.2089 8.06141 21.4159 8.58235 21.5781 9.12305C21.8636 10.0433 22.0003 10.9913 21.998 11.9404C21.9982 11.9603 22 11.9801 22 12C22 12.0212 21.9982 12.0423 21.998 12.0635C21.9973 12.1107 21.9955 12.1579 21.9941 12.2051C21.9457 14.6126 21.0477 16.8092 19.5859 18.5107C19.5515 18.5515 19.5165 18.5917 19.4814 18.6318C19.4456 18.6722 19.4105 18.7131 19.374 18.7529C19.2731 18.8645 19.1703 18.9741 19.0645 19.0801C18.8686 19.2761 18.6618 19.4626 18.4473 19.6416C17.0464 20.8247 15.3169 21.629 13.4141 21.8984C13.2925 21.9164 13.1708 21.9313 13.0488 21.9443C13.0326 21.946 13.0163 21.9476 13 21.9492C12.6791 21.9819 12.3573 21.9992 12.0352 21.999C12.0234 21.9991 12.0117 22 12 22C11.9697 22 11.9394 21.9973 11.9092 21.9971C11.8258 21.9959 11.7425 21.9945 11.6592 21.9912C10.5435 21.9538 9.47456 21.7353 8.48047 21.3613C8.37629 21.3239 8.27217 21.2855 8.16895 21.2451C6.32634 20.5234 4.80422 19.2406 3.68262 17.5566C2.56099 15.9529 2 14.0282 2 12.0234V12C2 6.63922 6.21826 2.2639 11.5166 2.01172C11.5618 2.00948 11.6071 2.00944 11.6523 2.00781C11.7678 2.00387 11.8836 2 12 2H12.0146ZM12.0146 14.5098C10.8129 14.5098 9.61082 14.911 8.64941 15.7129C7.85794 16.4332 7.26022 17.4121 6.97266 18.4756C8.36133 19.5553 10.1048 20.2002 12 20.2002C13.9146 20.2002 15.6738 19.5412 17.0693 18.4414C16.8336 17.3913 16.2339 16.4254 15.3799 15.7129C14.4185 14.911 13.2164 14.5098 12.0146 14.5098ZM12 3.7998C7.47126 3.7998 3.7998 7.47126 3.7998 12C3.7998 14.0304 4.53935 15.8872 5.76172 17.3193C6.07491 16.5732 6.50348 15.8444 7.04785 15.2314C7.76886 14.5098 8.56995 13.9478 9.45117 13.5469C8.81036 12.9856 8.4093 12.3447 8.16895 11.543C8.00871 10.7411 8.00863 9.93862 8.3291 9.13672C8.56945 8.4151 9.13063 7.77407 9.77148 7.29297C10.4124 6.81183 11.2135 6.57129 12.0146 6.57129C12.8158 6.57129 13.6168 6.81172 14.3379 7.37305C14.9787 7.77396 15.5399 8.49518 15.7803 9.2168C16.0206 9.9385 16.1007 10.7411 15.8604 11.543C15.62 12.3447 15.2189 12.9856 14.5781 13.5469C15.5395 13.9478 16.3405 14.5098 16.9814 15.2314C17.5245 15.8429 17.9507 16.5127 18.2637 17.2881C19.4705 15.8601 20.2002 14.0159 20.2002 12C20.2002 7.47126 16.5287 3.7998 12 3.7998ZM12.4951 8.1748C12.0146 8.09469 11.5342 8.1747 11.0537 8.33496C10.5731 8.49531 10.172 8.81595 9.93164 9.2168C9.69133 9.61769 9.5313 10.099 9.53125 10.5801C9.53125 11.2216 9.77125 11.8636 10.252 12.3447C10.7326 12.8258 11.3737 13.0664 12.0146 13.0664C12.4953 13.0664 12.9764 12.9056 13.377 12.665C13.7773 12.3444 14.0976 12.0238 14.2578 11.543C14.4981 11.062 14.498 10.5806 14.418 10.0996C14.3379 9.61858 14.0977 9.13717 13.7773 8.81641C13.4569 8.49565 12.9758 8.25499 12.4951 8.1748Z" fill="#25418E"/>
<path d="M12.0146 14.5098C10.8129 14.5098 9.61082 14.911 8.64941 15.7129C7.85794 16.4332 7.26022 17.4121 6.97266 18.4756C8.36133 19.5553 10.1048 20.2002 12 20.2002C13.9146 20.2002 15.6738 19.5412 17.0693 18.4414C16.8336 17.3913 16.2339 16.4254 15.3799 15.7129C14.4185 14.911 13.2164 14.5098 12.0146 14.5098Z" fill="#25418E"/>
<path d="M12.4951 8.1748C12.0146 8.09469 11.5342 8.1747 11.0537 8.33496C10.5731 8.49531 10.172 8.81595 9.93164 9.2168C9.69133 9.61769 9.5313 10.099 9.53125 10.5801C9.53125 11.2216 9.77125 11.8636 10.252 12.3447C10.7326 12.8258 11.3737 13.0664 12.0146 13.0664C12.4953 13.0664 12.9764 12.9056 13.377 12.665C13.7773 12.3444 14.0976 12.0238 14.2578 11.543C14.4981 11.062 14.498 10.5806 14.418 10.0996C14.3379 9.61858 14.0977 9.13717 13.7773 8.81641C13.4569 8.49565 12.9758 8.25499 12.4951 8.1748Z" fill="#25418E"/>
</svg>
